<svg xmlns="http://www.w3.org/2000/svg" width="78.586" height="66.5" viewBox="0 0 78.586 66.5"><defs><linearGradient id="a" x1=".5" y1=".28" x2=".5" y2="1" gradientUnits="objectBoundingBox"><stop offset="0" stop-color="#99acc2" stop-opacity="0"/><stop offset="1" stop-color="#fff"/></linearGradient><clipPath id="b"><circle data-name="Ellipse 38834" cx="19.718" cy="19.718" r="19.718" fill="#fff" stroke="#253342"/></clipPath></defs><g data-name="Group 5399"><g data-name="Group 5404"><g data-name="Group 5403"><g data-name="Group 5400" transform="translate(1.902 4.905)"><path data-name="Path 11584" d="M46.813 60.65H28.151l.633-8.224h17.4z" fill="#99acc2"/><path data-name="Path 11585" d="M73.225 0H1.898a1.9 1.9 0 00-1.9 1.9v43.49H75.12V1.898a1.9 1.9 0 00-1.9-1.9z" fill="#99acc2"/><path data-name="Path 11586" d="M0 44.831v7.117a1.9 1.9 0 001.9 1.9h71.329a1.9 1.9 0 001.9-1.9v-7.117z" fill="#99acc2"/><rect data-name="Rectangle 4772" width="67.689" height="37.957" rx="5" transform="translate(3.796 3.953)" fill="#e6e6e6"/><circle data-name="Ellipse 38831" cx="1.898" cy="1.898" r="1.898" transform="translate(35.743 47.362)" fill="#fff"/><path data-name="Rectangle 4773" d="M7.796 3.717h59.689a4 4 0 014 4V8.73H3.796V7.717a4 4 0 014-4z" fill="#253342"/><path data-name="Path 11592" d="M60.829 5.951a.384.384 0 000 .747h7.8a.384.384 0 000-.747z" fill="#fff"/><circle data-name="Ellipse 38832" cx="1.16" cy="1.16" r="1.16" transform="translate(56.865 5.147)" fill="#fff"/><path data-name="Line 1195" fill="none" stroke="#e5e6e8" stroke-width=".5" opacity=".52" d="M54.184 4.554v2.792"/><text transform="translate(42.72 7.306)" fill="#fff" font-size="3" font-family="FontAwesome5Pro-Light, 'Font Awesome \35 Pro'" font-weight="300"><tspan x="0" y="0">cog</tspan></text><text transform="translate(37.306 7.324)" fill="#fff" font-size="3" font-family="FontAwesome5Pro-Light, 'Font Awesome \35 Pro'" font-weight="300"><tspan x="0" y="0">search</tspan></text><g data-name="Group 5399"><text transform="translate(48.133 7.307)" fill="#fff" font-size="3" font-family="FontAwesome5Pro-Solid, 'Font Awesome \35 Pro'"><tspan x="0" y="0">bell</tspan></text><g data-name="Ellipse 38833" transform="translate(49.633 4.76)" fill="red" stroke="#253342" stroke-width=".1"><circle cx=".773" cy=".773" r=".773" stroke="none"/><circle cx=".773" cy=".773" r=".723" fill="none"/></g></g><path data-name="Path 11600" d="M467.083 561.2h-18.662l.633-8.224h17.4z" transform="translate(-420.27 -500.551)" fill="url(#a)"/><path data-name="Rectangle 4771" fill="#99acc2" d="M27.202 59.697h20.876v1.898H27.202z"/></g><path data-name="Path 11599" d="M27.747 5.53l23.623 6.505-7.095 7.349-9.037 9.366z" fill="#99acc2" opacity=".48"/><g data-name="Group 5402"><g data-name="Mask Group 23" clip-path="url(#b)"><g data-name="Group 5401" transform="translate(-196.465 -8.506)"><path data-name="Path 11584" d="M201.296 260.775H121.05l2.72-35.362h74.805z" fill="#99acc2"/><path data-name="Rectangle 4771" fill="#99acc2" d="M116.968 256.693h89.766v8.161h-89.766z"/><path data-name="Path 11585" d="M314.862 0H8.162A8.161 8.161 0 00.001 8.161v187.012h323.021V8.16a8.16 8.16 0 00-8.16-8.161z" fill="#99acc2"/><path data-name="Path 11586" d="M0 192.77v30.6a8.161 8.161 0 008.161 8.161h306.7a8.16 8.16 0 008.16-8.161v-30.6z" fill="#99acc2"/><rect data-name="Rectangle 4772" width="291.06" height="163.212" rx="5" transform="translate(16.324 16.998)" fill="#e6e6e6"/><circle data-name="Ellipse 38831" cx="8.161" cy="8.161" r="8.161" transform="translate(153.691 203.653)" fill="#fff"/><path data-name="Rectangle 4773" d="M20.324 15.982h283.06a4 4 0 014 4v17.556H16.324V19.982a4 4 0 014-4z" fill="#253342"/><path data-name="Path 11592" d="M261.563 25.586a1.651 1.651 0 000 3.21h33.534a1.651 1.651 0 000-3.21z" fill="#fff"/><circle data-name="Ellipse 38832" cx="4.987" cy="4.987" r="4.987" transform="translate(244.519 22.132)" fill="#fff"/><path data-name="Line 1195" fill="none" stroke="#e5e6e8" stroke-width=".5" opacity=".52" d="M238.713 19.583v12.005"/><text data-name="cog" transform="translate(193.256 30.256)" fill="#fff" font-size="9" font-family="FontAwesome5Pro-Light, 'Font Awesome \35 Pro'" font-weight="300"><tspan x="0" y="0">cog</tspan></text><text data-name="search" transform="translate(175.004 28.132)" fill="#fff" font-size="7" font-family="FontAwesome5Pro-Light, 'Font Awesome \35 Pro'" font-weight="300"><tspan x="0" y="0">search</tspan></text><g data-name="Group 5399"><text data-name="bell" transform="translate(210.399 30.425)" fill="#fff" font-size="10" font-family="FontAwesome5Pro-Solid, 'Font Awesome \35 Pro'"><tspan x="0" y="0">bell</tspan></text><g data-name="Ellipse 38833" transform="translate(215.558 20.393)" fill="red" stroke="#253342"><circle cx="3.611" cy="3.611" r="3.611" stroke="none"/><circle cx="3.611" cy="3.611" r="3.111" fill="none"/></g></g></g></g><g data-name="Ellipse 38835" fill="none" stroke="#253342" stroke-width=".6"><circle cx="19.718" cy="19.718" r="19.718" stroke="none"/><circle cx="19.718" cy="19.718" r="19.418"/></g></g></g></g><path data-name="Path 11601" d="M55.075 58.677L69.852 4.999h5.65s3.478-.218 2.825 3.912 0 44.115 0 44.115 1.521 5.65-2.825 5.65z" fill="#fff" opacity=".24"/></g></svg>