<svg xmlns="http://www.w3.org/2000/svg" width="84.459" height="23" viewBox="0 0 84.459 23"><g data-name="Group 13"><path data-name="Path 36" d="M22.344 16.253l-5.032-2.157a1.285 1.285 0 00-.423-.086 1.222 1.222 0 00-.835.4l-2.227 2.715a19.344 19.344 0 01-7.96-7.96l2.722-2.228a1.218 1.218 0 00.4-.834 1.281 1.281 0 00-.087-.424L6.743.652a1.177 1.177 0 00-.995-.651 1.3 1.3 0 00-.241.027L.836 1.106A1.129 1.129 0 000 2.156 20.841 20.841 0 0020.844 23a1.13 1.13 0 001.05-.836l1.078-4.672a1.313 1.313 0 00.028-.239 1.183 1.183 0 00-.656-1z" fill="#3cc2cc"/><path data-name="Path 35" d="M38.85 15.425l3.383-11.23h3.425l-5.199 14.93H37.25l-5.178-14.93h3.414zm7.085-1.95a6.58 6.58 0 01.636-2.943 4.654 4.654 0 011.83-2 5.34 5.34 0 012.774-.708 5.052 5.052 0 013.666 1.374 5.514 5.514 0 011.584 3.732l.021.759a5.8 5.8 0 01-1.425 4.1A4.954 4.954 0 0151.2 19.33a4.979 4.979 0 01-3.83-1.538 5.9 5.9 0 01-1.43-4.184zm2.963.21a4.147 4.147 0 00.595 2.418 1.962 1.962 0 001.7.837 1.966 1.966 0 001.682-.827 4.538 4.538 0 00.6-2.644 4.106 4.106 0 00-.6-2.4 1.967 1.967 0 00-1.7-.852 1.934 1.934 0 00-1.682.847 4.614 4.614 0 00-.593 2.621zm12.502 5.44h-2.976V8.03H61.4zM58.25 5.159a1.459 1.459 0 01.446-1.1 1.676 1.676 0 011.215-.431 1.679 1.679 0 011.21.431 1.451 1.451 0 01.451 1.1 1.455 1.455 0 01-.456 1.107 1.684 1.684 0 01-1.2.431 1.684 1.684 0 01-1.2-.431 1.455 1.455 0 01-.466-1.107zm10.2 11.782a1.944 1.944 0 001.333-.451 1.581 1.581 0 00.533-1.2H73.1a3.8 3.8 0 01-.615 2.066 4.06 4.06 0 01-1.659 1.456 5.183 5.183 0 01-2.326.518 4.817 4.817 0 01-3.753-1.512 5.985 5.985 0 01-1.374-4.178v-.195a5.917 5.917 0 011.364-4.091 4.761 4.761 0 013.746-1.529 4.667 4.667 0 013.338 1.184 4.193 4.193 0 011.279 3.154h-2.781a2.036 2.036 0 00-.533-1.407 1.778 1.778 0 00-1.354-.541 1.785 1.785 0 00-1.564.755 4.374 4.374 0 00-.528 2.449v.306a4.43 4.43 0 00.523 2.465 1.807 1.807 0 001.59.751zM79.9 19.33a5.447 5.447 0 01-3.973-1.5 5.321 5.321 0 01-1.537-3.986v-.287a6.7 6.7 0 01.646-2.989 4.741 4.741 0 011.83-2.03 5.137 5.137 0 012.7-.713 4.6 4.6 0 013.584 1.436 5.833 5.833 0 011.307 4.071v1.21h-7.063a2.753 2.753 0 00.866 1.743 2.619 2.619 0 001.83.656 3.2 3.2 0 002.676-1.241l1.456 1.63a4.449 4.449 0 01-1.8 1.471 5.921 5.921 0 01-2.522.529zm-.338-9.116a1.852 1.852 0 00-1.43.6 3.093 3.093 0 00-.7 1.71h4.122v-.239a2.206 2.206 0 00-.533-1.529 1.91 1.91 0 00-1.463-.542z" fill="#282828"/></g></svg>