<svg data-name="Group 175" xmlns="http://www.w3.org/2000/svg" width="12" height="12.234" viewBox="0 0 12 12.234"><path data-name="Subtraction 1" d="M8.028 12.234H1.147A1.148 1.148 0 010 11.087V2.676a1.148 1.148 0 011.147-1.147h2.116a1.338 1.338 0 112.662-.191 1.353 1.353 0 01-.014.191h2.117a1.148 1.148 0 011.147 1.147v1.246l-.765.53V2.676a.383.383 0 00-.382-.382H6.881v.478a.287.287 0 01-.287.287H2.581a.287.287 0 01-.287-.287v-.478H1.147a.383.383 0 00-.382.382v8.41a.383.383 0 00.382.382h6.881a.383.383 0 00.382-.382V9.521l.765-.328v1.893a1.148 1.148 0 01-1.147 1.148zM4.588.765a.573.573 0 10.573.574.574.574 0 00-.573-.574z" fill="#9a9a9a"/><path d="M5.373 8.22l-.167 1.515a.318.318 0 00.349.351l1.516-.169 4.684-4.675a.849.849 0 000-1.2l-.5-.5a.849.849 0 00-1.2 0zm1.5 1.293l-1.232.137.137-1.236 3.609-3.609 1.1 1.1-3.61 3.608zm4.582-4.571l-.662.662-1.1-1.1.662-.662a.425.425 0 01.6 0l.5.5a.425.425 0 010 .6z" fill="#9a9a9a"/></svg>