<svg xmlns="http://www.w3.org/2000/svg" viewBox="0 0 1112.36 113.04"><defs><style>.cls-1{fill:#eb0045}</style></defs><g id="Layer_2" data-name="Layer 2"><g id="Layer_1-2" data-name="Layer 1"><path id="Path_13091" data-name="Path 13091" class="cls-1" d="M83.08 77.51H21.52C24.08 87.44 31.46 95 45.45 95a50.09 50.09 0 0026.49-8.28l8.42 14.9a62.13 62.13 0 01-35.82 11.29C13.85 112.88 0 92 0 70c0-24.53 17.16-43 42.74-43 23.33 0 41.09 15.21 41.09 41.24a61 61 0 01-.75 9.27zM21.52 61.7h41.69a19.83 19.83 0 00-20.47-17.15A21 21 0 0021.52 61.7zM89.4 29.06h20.77v11.43c4.21-7.68 13.55-13.7 25.74-13.7 16.55 0 32.05 11 32.05 34.16v50.12h-21.22v-44.4c0-13.24-7.07-20.32-17.31-20.32-11.13 0-18.81 8.43-18.81 20.77v43.95H89.4zm146.14 77.2a45.47 45.47 0 01-24.23 6.74c-18.81 0-28.6-11.14-28.6-32.36V46.81h-13.4V29.06h13.56V0h21.07v29.06H231v17.76h-27.06v32.5c0 9.48 3.61 14.45 11.57 14.45a27.75 27.75 0 0013.7-4.22z"/><path id="Path_13092" data-name="Path 13092" class="cls-1" d="M314.26 77.51H252.7c2.56 9.93 9.93 17.49 23.93 17.49a50.12 50.12 0 0026.49-8.28l8.43 14.9a62.08 62.08 0 01-35.83 11.28C245 112.87 231.17 92 231.17 70c0-24.54 17.16-43 42.74-43C297.24 27 315 42.21 315 68.24a62.25 62.25 0 01-.74 9.35zM252.7 61.7h41.69a19.84 19.84 0 00-20.47-17.15A21 21 0 00252.7 61.7zM454.43 70c0-25 18.06-43 44.1-43 16.25 0 31.3 8 38.23 22.88l-17 9.33a24.43 24.43 0 00-20.92-12.49 23.41 23.41 0 00-.45 46.81 24.23 24.23 0 0020.91-12.41l17.15 10.08c-6.92 13.1-21.52 21.68-38.53 21.68-25.58 0-43.49-17.91-43.49-42.91zM603 106.25a45.47 45.47 0 01-24.25 6.75c-18.82 0-28.6-11.14-28.6-32.36V46.81h-13.4V29.06h13.55V0h21.07v29.06h27.1v17.76h-27.1v32.5c0 9.48 3.62 14.45 11.59 14.45a27.75 27.75 0 0013.7-4.22zM371.33 29.61c0 6.18-.08 11.92 0 17.65 0 1.91-1.26 2.13-2.44 2.7-11.1 5.35-19 13.49-21.74 25.8a52.63 52.63 0 00-1 10.4c-.15 8.25 0 16.5 0 24.91h-22.58c-.06-.88-.15-1.72-.16-2.56 0-7.11.29-14.23-.09-21.31a38.48 38.48 0 014.22-19.1c8.44-17.57 21.14-30.58 39.77-37.28 1.17-.43 2.39-.73 4-1.21zM323.76 59.9c0-12.67-.17-20.29-.17-33.28h22.18a7.66 7.66 0 01-2.51 8.14c-8.46 7.47-13.81 12-18 22.42-.37.94-.78 1.88-1.17 2.82zm122.79-3.8c-.36-12.87-5.93-23.26-18.47-28.34-15.25-6.17-30.65-5-45.93.25-.59.21-1.41.95-1.42 1.45-.1 5.69-.06 11.38-.06 17.33 2-.73 3.61-1.4 5.27-1.89a43.09 43.09 0 0129.45.74 14.15 14.15 0 019.21 17.17c-4.09-.8-8.15-1.91-12.27-2.31a70.38 70.38 0 00-12.82 0c-13.52 1.23-25.62 7.69-26.15 24.66-.32 10.36 2.57 19.07 12.31 24.26 9 4.79 25.84 5.4 36-3.66.84-.74 1.73-1.42 3.12-2.57v8h21.6a6.12 6.12 0 00.23-1c0-18 .39-36-.11-54zm-33 40.15c-14.08 3.23-22.37-.23-22.14-10.38s9.69-13.14 18.91-12.22a116.35 116.35 0 0113.14 1.85s4.19 17.5-9.88 20.75zm196-91.78v22.77h4.25V4.47h7.84V.4h-19.88v4.07zm15.87 22.77h4.15V10.06l8.75 12.79h1.24l8.75-12.79v17.18h4.22V.4h-2.36L639 16.85 627.77.4h-2.29z"/><path id="Path_13094" data-name="Path 13094" class="cls-1" d="M626.66 111.29A12.72 12.72 0 10614 98.58a12.71 12.71 0 0012.66 12.71z"/><path d="M728.83 31.39h12.11v75.3h-12.11V95.85c-6.89 8.45-15.76 12.67-26.88 12.67q-16.26 0-27-11.4c-7.18-7.74-10.7-17.17-10.7-28.57s3.52-20.55 10.7-27.87 16.18-11.12 27-11.12a33 33 0 0126.88 13zm-6.47 17.87c-4.93-5.48-11.26-8.16-19.14-8.16s-14.22 2.68-19.14 8.16-7.18 12-7.18 19.85A29.12 29.12 0 00684.08 89c4.92 5.35 11.26 8 19.14 8s14.21-2.68 19.14-8a28.79 28.79 0 007.46-20 28.15 28.15 0 00-7.46-19.74zm43.49 48.14c-7.46-7.46-11.12-16.89-11.12-28.29s3.8-21 11.26-28.43 17.31-11.12 29.13-11.12c14.78 0 28.29 7.74 34.06 19.56l-10.41 6.06c-5.21-8.59-13.94-14.08-23.65-14.08q-12 0-19.84 8a27.5 27.5 0 00-7.88 20q0 11.82 7.6 19.84a26.41 26.41 0 0019.42 7.89 26.89 26.89 0 0013.93-3.94 26 26 0 0010-9.86l10.41 6.06c-6.19 11.4-19.7 19.28-34.34 19.28-11.68.01-21.11-3.65-28.57-10.97zm81.35 0c-7.46-7.46-11.12-16.89-11.12-28.29s3.8-21 11.26-28.43 17.31-11.12 29.13-11.12c14.78 0 28.29 7.74 34.06 19.56l-10.41 6.06c-5.21-8.59-13.94-14.08-23.65-14.08q-12 0-19.84 8a27.5 27.5 0 00-7.88 20q0 11.82 7.59 19.84a26.45 26.45 0 0019.43 7.89 26.89 26.89 0 0013.93-3.93 26 26 0 0010-9.86l10.41 6.06c-6.19 11.4-19.7 19.28-34.34 19.28-11.68 0-21.11-3.66-28.57-10.98zm143.98-23.08H930.8c2.11 13.09 10.69 22.38 27 22.38a49.36 49.36 0 0026.6-8.59l5.35 9.71c-7.32 5.77-19.7 10.56-32.23 10.56-28.29 0-40-19.85-40-39.55 0-11.4 3.52-20.69 10.55-28.15s16.19-11.12 27.31-11.12c10.55 0 19.28 3.38 26 10.27S991.6 56 991.6 67.7c0 .99-.14 3.24-.42 6.62zM930.8 63.06h47.57C977.67 49.55 968 41 955.43 41c-12.95 0-22.52 9-24.63 22.06zm67.27 28.71l9.57-6.61c4.37 8 11.4 12.1 18.3 12.1 8.3 0 13.79-5.07 13.79-10.84q0-6.12-7.18-10.13c-1.54-.85-4.5-2.25-9.14-4.22a96.33 96.33 0 01-9.41-4.37c-7.46-4.08-11.26-10.13-11.26-18a19.11 19.11 0 016.47-14.92c4.36-3.94 10.27-5.91 17.45-5.91 9.57 0 19 4.22 23.51 12.1l-8.45 7.46c-3.8-5.91-9.15-8.87-15.9-8.87-7.18 0-11.12 4.37-11.12 9.57 0 4.08 2.11 7.18 6.19 9.15l8.59 3.94c4.36 1.83 7.74 3.38 9.85 4.51 8.59 4.5 12.81 10.83 12.81 19a20.67 20.67 0 01-7.46 16c-4.93 4.37-11.4 6.62-19.14 6.62-11.28.03-21.84-5.46-27.47-16.58zm60.24 0l9.57-6.61c4.36 8 11.4 12.1 18.3 12.1 8.3 0 13.79-5.07 13.79-10.84q0-6.12-7.18-10.13c-1.54-.85-4.5-2.25-9.15-4.22a97.51 97.51 0 01-9.43-4.37c-7.46-4.08-11.26-10.13-11.26-18a19.12 19.12 0 016.48-14.92c4.36-3.94 10.27-5.91 17.45-5.91 9.57 0 19 4.22 23.51 12.1l-8.45 7.46c-3.8-5.91-9.15-8.87-15.9-8.87-7.18 0-11.12 4.37-11.12 9.57 0 4.08 2.11 7.18 6.19 9.15l8.59 3.94c4.36 1.83 7.74 3.38 9.85 4.51 8.58 4.5 12.81 10.83 12.81 19a20.7 20.7 0 01-7.46 16c-4.93 4.37-11.4 6.62-19.14 6.62-11.26.03-21.82-5.46-27.45-16.58z" fill="#9398a5" id="access"/></g></g></svg>