<svg xmlns="http://www.w3.org/2000/svg" width="32.144" height="14.386" viewBox="0 0 32.144 14.386"><g data-name="Layer 1"><g data-name="Group 6075"><g data-name="Group 6069"><g data-name="Group 6068"><path data-name="Path 13081" d="M17.752 12.936a1.318 1.318 0 01-1.883 0 1.45 1.45 0 010-1.977 1.327 1.327 0 011.883 0 1.45 1.45 0 010 1.977z" fill="#fff"/></g></g><path data-name="Path 13082" d="M13.864 8.483H3.607a3.766 3.766 0 003.992 2.909 8.285 8.285 0 004.408-1.374l1.412 2.485a10.44 10.44 0 01-5.978 1.883C2.322 14.358.007 10.865.007 7.203A6.882 6.882 0 016.597.011h.555a6.486 6.486 0 016.855 6.1 5.413 5.413 0 010 .781 9.612 9.612 0 01-.143 1.591zM3.593 5.819h6.957a3.314 3.314 0 00-3.417-2.824 3.512 3.512 0 00-3.526 2.824z" fill="#fff"/><path data-name="Path 13599" d="M32.144 5.659v8.379h-2.012v-2.147a5.724 5.724 0 01-4.82 2.467c-2.89 0-5.018-1.676-5.018-4.378s2.45-4.557 5.385-4.557a14.884 14.884 0 014.453.763v-.527c0-1.883-.734-3.982-3.709-3.982a9.094 9.094 0 00-4 1.252l-.763-1.591A11.137 11.137 0 0126.583.01c3.737 0 5.561 2.363 5.561 5.649zm-2.012 4.085v-2.1a15.778 15.778 0 00-4.133-.555c-2.043 0-3.766 1.167-3.766 2.824s1.487 2.7 3.417 2.7 3.983-.939 4.482-2.869z" fill="#fff"/></g></g></svg>