<svg xmlns="http://www.w3.org/2000/svg" width="140.667" height="26.77" viewBox="0 0 140.667 26.77"><g data-name="Group 1"><path d="M44.038 22.924h-3.887v-9.69h-2.648v-3.156h2.648V7.833c0-2.66 1.171-4.568 5.052-4.568.816 0 2.1.165 2.1.165v2.93h-1.349c-1.378 0-1.916.419-1.916 1.578v2.14h3.217l-.287 3.156h-2.929zm8.92-13.1h-.173c-3.6 0-5.254 2.711-5.254 6.56 0 4.848 2.139 6.789 5.282 6.789a3.8 3.8 0 003.7-2.169v1.921h3.7V10.08h-3.7v1.975a3.789 3.789 0 00-3.555-2.229zm.945 3.041c1.514 0 2.423 1.056 2.423 2.852v1.835a2.458 2.458 0 01-2.423 2.623c-2.576 0-2.507-2.782-2.507-3.708 0-3.116 1.372-3.606 2.507-3.606zm7.8 3.642c0-1.561-.075-6.669 6.58-6.669a6.59 6.59 0 013.787.849l-.9 2.781a5.851 5.851 0 00-2.567-.617 2.772 2.772 0 00-3.045 2.974v1.36a2.837 2.837 0 003.047 3.038 6.372 6.372 0 002.541-.619l.894 2.722s-1.02.855-3.745.855c-6.336 0-6.6-4.583-6.6-6.678zM93.747 9.83c3.6 0 5.28 2.711 5.28 6.56 0 4.848-2.139 6.789-5.282 6.789a4.014 4.014 0 01-3.842-2.169v1.915h-3.654V3.656l3.876-.338v8.563c.559-1.5 2.4-2.051 3.622-2.051zm-1.087 3.035c-1.514 0-2.535 1.056-2.535 2.852v1.835a2.455 2.455 0 002.539 2.627c2.576 0 2.507-2.782 2.507-3.708-.003-3.12-1.376-3.606-2.511-3.606zM78.794 9.84c-4.088 0-6.247 2.229-6.247 6.19v.735c0 5.141 3.031 6.465 6.645 6.465a10.4 10.4 0 005.1-.982l-.725-2.616a11.31 11.31 0 01-3.912.8c-2.117 0-3.027-.54-3.261-2.574h8.209v-2.1c0-4.3-2.422-5.916-5.81-5.916zm.1 2.62c1.415 0 2.332.868 2.282 2.88h-4.773c.083-2.118 1.072-2.88 2.489-2.88zm27.862-2.637c-4.2 0-6.409 2.366-6.409 6.606 0 5.817 3.81 6.754 6.416 6.754 3.815 0 6.352-2.054 6.352-6.7 0-4.837-2.854-6.659-6.359-6.659zm-.053 3.049c1.846 0 2.578 1.382 2.578 2.954v1.352c0 1.905-1.024 3.007-2.585 3.007-1.46 0-2.486-1.031-2.486-3.007v-1.351c0-2.108 1.221-2.954 2.493-2.954zm14.135-3.049c-4.2 0-6.409 2.366-6.409 6.606 0 5.817 3.81 6.754 6.416 6.754 3.814 0 6.352-2.054 6.352-6.7 0-4.837-2.854-6.659-6.359-6.659zm-.053 3.049c1.846 0 2.578 1.382 2.578 2.954v1.352c0 1.905-1.024 3.007-2.585 3.007-1.46 0-2.486-1.031-2.486-3.007v-1.351c0-2.108 1.221-2.954 2.493-2.954zm7.877 10.052V3.656l3.887-.338v12.915l3.854-6.154h4.106l-4.023 6.374 4.178 6.472h-4.114l-4-6.284v6.284z" fill="#1877f2"/><g data-name="facebook-logo@logotyp.us" fill-rule="evenodd"><path data-name="Path 1" d="M26.77 13.385a13.385 13.385 0 10-15.476 13.223v-9.353h-3.4v-3.87h3.4v-2.95c0-3.354 2-5.208 5.056-5.208a20.578 20.578 0 013 .262v3.294h-1.688a1.935 1.935 0 00-2.182 2.091v2.511h3.712l-.593 3.87H15.48v9.353a13.387 13.387 0 0011.29-13.223z" fill="#1977f3"/><path data-name="Path 2" d="M18.593 17.255l.593-3.87h-3.712v-2.511a1.935 1.935 0 012.182-2.091h1.688V5.489a20.577 20.577 0 00-3-.262c-3.057 0-5.056 1.852-5.056 5.208v2.95h-3.4v3.87h3.4v9.353a13.456 13.456 0 002.091.162 13.688 13.688 0 002.091-.162v-9.353h3.123z" fill="#fefefe"/></g></g></svg>