<svg xmlns="http://www.w3.org/2000/svg" width="705.498" height="658.525" viewBox="0 0 705.498 658.525"><defs><clipPath id="a"><path data-name="Rectangle 5388" transform="translate(-.448 .214)" fill="#fff" d="M0 0h107v107H0z"/></clipPath><clipPath id="b"><path data-name="Rectangle 5391" transform="translate(-.252 .214)" fill="#fff" d="M0 0h105v104H0z"/></clipPath><clipPath id="c"><path data-name="Rectangle 5389" transform="translate(-.448 -.131)" fill="#fff" d="M0 0h105v105H0z"/></clipPath><clipPath id="d"><path data-name="Rectangle 5390" transform="translate(-.252 -.131)" fill="#fff" d="M0 0h105v105H0z"/></clipPath><clipPath id="e"><path data-name="Rectangle 5388" transform="translate(-.424 .214)" fill="#fff" stroke="#3cc480" d="M0 0h52v51H0z"/></clipPath><clipPath id="f"><path data-name="Rectangle 5391" transform="translate(-.252 .214)" fill="#fff" d="M0 0h53v53H0z"/></clipPath><clipPath id="g"><path data-name="Rectangle 5389" transform="translate(-.424 .042)" fill="#fff" d="M0 0h53v53H0z"/></clipPath><clipPath id="h"><path data-name="Rectangle 5390" transform="translate(-.252 .042)" fill="#fff" d="M0 0h52v52H0z"/></clipPath><clipPath id="i"><path data-name="Rectangle 5392" transform="translate(-.137 .41)" fill="#fff" d="M0 0h105v104H0z"/></clipPath><clipPath id="j"><path data-name="Rectangle 5395" transform="translate(-.137 -.131)" fill="#fff" d="M0 0h105v105H0z"/></clipPath><clipPath id="k"><path data-name="Rectangle 5397" transform="translate(-.252 -.475)" fill="#eb0045" d="M0 0h105v105H0z"/></clipPath><clipPath id="l"><path data-name="Rectangle 5403" transform="translate(.389 -.131)" fill="#fa0060" d="M0 0h105v106H0z"/></clipPath><clipPath id="m"><path data-name="Rectangle 5406" transform="translate(.241 .214)" fill="#fff" d="M0 0h107v107H0z"/></clipPath><clipPath id="n"><path data-name="Rectangle 5404" transform="translate(.389 -.475)" fill="#fff" d="M0 0h106v107H0z"/></clipPath><clipPath id="o"><path data-name="Rectangle 5405" transform="translate(-.137 -.475)" fill="#fff" d="M0 0h105v105H0z"/></clipPath><clipPath id="p"><path data-name="Rectangle 5393" transform="translate(-.448 .41)" fill="#fff" d="M0 0h106v105H0z"/></clipPath><clipPath id="q"><path data-name="Rectangle 5410" transform="translate(.045 .247)" fill="#fff" d="M0 0h104v104H0z"/></clipPath><clipPath id="r"><path data-name="Rectangle 5398" transform="translate(.389 .41)" fill="#fff" d="M0 0h105v105H0z"/></clipPath><clipPath id="s"><path data-name="Rectangle 5399" transform="translate(.045 .41)" fill="#fff" d="M0 0h106v105H0z"/></clipPath><clipPath id="t"><path data-name="Rectangle 5400" transform="translate(-.08 .434)" fill="#fff" d="M0 0h51v50H0z"/></clipPath><clipPath id="u"><path data-name="Rectangle 5401" transform="translate(.389 .434)" fill="#fff" d="M0 0h51v51H0z"/></clipPath><clipPath id="v"><path data-name="Rectangle 5411" transform="translate(-.137 .247)" fill="#fff" d="M0 0h105v104H0z"/></clipPath><clipPath id="w"><path data-name="Rectangle 5412" transform="translate(.356 .247)" fill="#fff" d="M0 0h106v107H0z"/></clipPath><clipPath id="x"><path data-name="Rectangle 5413" transform="translate(-.113 .271)" fill="#fff" d="M0 0h51v50H0z"/></clipPath><clipPath id="y"><path data-name="Rectangle 5414" transform="translate(.356 .271)" fill="#fff" d="M0 0h52v53H0z"/></clipPath></defs><g data-name="Group 6850" transform="translate(175.635 .475)"><ellipse data-name="Ellipse 39630" cx="53" cy="52.5" rx="53" ry="52.5" transform="translate(.863 211.525)" fill="#2e4453"/><ellipse data-name="Ellipse 39675" cx="53" cy="53.5" rx="53" ry="53.5" transform="translate(104.863 -.475)" fill="#fa0060"/><path data-name="Rectangle 5386" fill="#2e4453" d="M210.863-.475h107v107h-107z"/><path data-name="Rectangle 5385" fill="#2e4453" d="M104.863 318.525h106v106h-106z"/><path data-name="Rectangle 5408" fill="#fa0060" d="M421.862 423.525h106v107h-106z"/><path data-name="Rectangle 5409" fill="#2e4453" d="M421.862 528.525h106v107h-106z"/><path data-name="Rectangle 5383" fill="#2e4453" d="M104.863 105.525h106v107h-106z"/><path data-name="Rectangle 5384" fill="#3cc480" d="M104.863 211.525h106v107h-106z"/><circle data-name="Ellipse 39640" cx="27.5" cy="27.5" r="27.5" transform="translate(315.863 475.525)" fill="#eb0045"/><circle data-name="Ellipse 39649" cx="27.5" cy="27.5" r="27.5" transform="translate(26.863 236.525)" fill="#3cc480"/><circle data-name="Ellipse 39676" cx="27" cy="27" r="27" transform="translate(130.863 24.525)" fill="#fff"/><circle data-name="Ellipse 39642" cx="27.5" cy="27.5" r="27.5" transform="translate(315.863 423.525)" fill="#2e4453"/><circle data-name="Ellipse 39680" cx="27.5" cy="27.5" r="27.5" transform="translate(315.863 477.525)" fill="#fa0060"/><circle data-name="Ellipse 39679" cx="25.5" cy="25.5" r="25.5" transform="translate(370.863 423.525)" fill="#3cc480"/><circle data-name="Ellipse 39641" cx="25.5" cy="25.5" r="25.5" transform="translate(370.863 477.525)" fill="#2e4453"/><g data-name="Group 6845"><g data-name="Mask Group 36" transform="translate(211.31 211.311)" clip-path="url(#a)"><circle data-name="Ellipse 39633" cx="105.5" cy="105.5" r="105.5" transform="translate(-.448 -103.786)" fill="#2e4453"/></g><g data-name="Mask Group 39" transform="translate(318.114 211.311)" clip-path="url(#b)"><circle data-name="Ellipse 39647" cx="104" cy="104" r="104" transform="translate(-103.252 -103.786)" fill="#fa0060"/></g><g data-name="Mask Group 37" transform="translate(211.31 105.656)" clip-path="url(#c)"><circle data-name="Ellipse 39645" cx="104" cy="104" r="104" transform="translate(-.448 -.131)" fill="#fa0060"/></g><g data-name="Mask Group 38" transform="translate(318.114 105.656)" clip-path="url(#d)"><circle data-name="Ellipse 39646" cx="104" cy="104" r="104" transform="translate(-103.252 -.131)" fill="#3cc480"/></g></g><g data-name="Group 6846"><g data-name="Mask Group 36" transform="translate(265.287 211.311)" clip-path="url(#e)"><ellipse data-name="Ellipse 39633" cx="52" cy="51.5" rx="52" ry="51.5" transform="translate(-.424 -51.786)" fill="#3cc480"/></g><g data-name="Mask Group 39" transform="translate(318.115 211.311)" clip-path="url(#f)"><circle data-name="Ellipse 39647" cx="51.707" cy="51.707" r="51.707" transform="translate(-52.808 -50.764)" fill="#2e4453"/></g><g data-name="Mask Group 37" transform="translate(265.287 158.483)" clip-path="url(#g)"><ellipse data-name="Ellipse 39645" cx="52.5" cy="52" rx="52.5" ry="52" transform="translate(-.424 .042)" fill="#fff"/></g><g data-name="Mask Group 38" transform="translate(318.115 158.483)" clip-path="url(#h)"><circle data-name="Ellipse 39646" cx="51.707" cy="51.707" r="51.707" transform="translate(-52.808 .721)" fill="#fa0060"/></g></g><g data-name="Mask Group 40" transform="translate(0 318.115)" clip-path="url(#i)"><circle data-name="Ellipse 39648" cx="104.085" cy="104.085" r="104.085" transform="translate(.747 -102.503)" fill="#e5e6e8"/></g><g data-name="Mask Group 42" transform="translate(0 105.656)" clip-path="url(#j)"><circle data-name="Ellipse 39651" cx="104.085" cy="104.085" r="104.085" transform="translate(.747 -102.242)" fill="#fa0060"/></g><g data-name="Mask Group 43" transform="translate(318.114)" clip-path="url(#k)"><circle data-name="Ellipse 39652" cx="104.085" cy="104.085" r="104.085" transform="translate(-103.929 -101.343)" fill="#fa0060"/></g><g data-name="Mask Group 48" transform="translate(421.473 105.656)" clip-path="url(#l)"><circle data-name="Ellipse 39672" cx="104.085" cy="104.085" r="104.085" transform="translate(2.327 -.172)" fill="#fa0060"/></g><g data-name="Mask Group 51" transform="translate(422.622 211.311)" clip-path="url(#m)"><circle data-name="Ellipse 39677" cx="104.085" cy="104.085" r="104.085" transform="translate(-102.337 .271)" fill="#2e4453"/></g><g data-name="Mask Group 49" transform="translate(421.473)" clip-path="url(#n)"><circle data-name="Ellipse 39673" cx="104.085" cy="104.085" r="104.085" transform="translate(2.327 -101.343)" fill="#e5e6e8"/></g><g data-name="Mask Group 50" clip-path="url(#o)"><circle data-name="Ellipse 39674" cx="104.085" cy="104.085" r="104.085" transform="translate(.747 .727)" fill="#e5e6e8"/></g><g data-name="Mask Group 41" transform="translate(211.31 318.115)" clip-path="url(#p)"><circle data-name="Ellipse 39650" cx="104.085" cy="104.085" r="104.085" transform="translate(-103.224 -.433)" fill="#fa0060"/></g><g data-name="Mask Group 52" transform="translate(315.818 528.278)" clip-path="url(#q)"><circle data-name="Ellipse 39678" cx="104.085" cy="104.085" r="104.085" transform="translate(1.883 .259)" fill="#fa0060"/></g><path data-name="Rectangle 5394" fill="#fff" d="M136.863 135.525h45v45h-45z"/><path data-name="Rectangle 5402" fill="#3cc480" d="M136.863 347.525h45v45h-45z"/><path data-name="Rectangle 5407" fill="#2e4453" d="M453.862 454.525h45v45h-45z"/><g data-name="Group 6848"><g data-name="Mask Group 44" transform="translate(421.473 318.115)" clip-path="url(#r)"><circle data-name="Ellipse 39668" cx="104.085" cy="104.085" r="104.085" transform="translate(-102.531 -.433)" fill="#3cc480"/></g><g data-name="Mask Group 45" transform="translate(315.818 318.115)" clip-path="url(#s)"><circle data-name="Ellipse 39669" cx="104.085" cy="104.085" r="104.085" transform="translate(1.883 -.433)" fill="#2e4453"/></g><g data-name="Mask Group 46" transform="translate(370.943 372.091)" clip-path="url(#t)"><circle data-name="Ellipse 39670" cx="50.5" cy="50.5" r="50.5" transform="translate(-.08 .434)" fill="#fa0060"/></g><g data-name="Mask Group 47" transform="translate(421.473 372.091)" clip-path="url(#u)"><circle data-name="Ellipse 39671" cx="51.707" cy="51.707" r="51.707" transform="translate(-51.411 -.689)" fill="#fff"/></g></g><g data-name="Group 6847" transform="translate(136.663 233.131)" fill="#fff"><circle data-name="Ellipse 39654" cx="4.5" cy="4.5" r="4.5" transform="translate(.2 .394)"/><circle data-name="Ellipse 39667" cx="4.5" cy="4.5" r="4.5" transform="translate(34.2 .394)"/><ellipse data-name="Ellipse 39656" cx="5" cy="5.5" rx="5" ry="5.5" transform="translate(.2 27.394)"/><circle data-name="Ellipse 39666" cx="5.5" cy="5.5" r="5.5" transform="translate(34.2 27.394)"/><ellipse data-name="Ellipse 39658" cx="4.5" cy="5" rx="4.5" ry="5" transform="translate(.2 59.394)"/><ellipse data-name="Ellipse 39665" cx="4.5" cy="5" rx="4.5" ry="5" transform="translate(34.2 59.394)"/><ellipse data-name="Ellipse 39660" cx="5" cy="5.5" rx="5" ry="5.5" transform="translate(.2 89.394)"/><circle data-name="Ellipse 39664" cx="5.5" cy="5.5" r="5.5" transform="translate(34.2 89.394)"/></g><g data-name="Group 6849" transform="translate(453.629 503.012)" fill="#fff"><ellipse data-name="Ellipse 39654" cx="5" cy="5.5" rx="5" ry="5.5" transform="translate(.234 -.487)"/><circle data-name="Ellipse 39667" cx="5.5" cy="5.5" r="5.5" transform="translate(34.234 -.487)"/><ellipse data-name="Ellipse 39656" cx="5" cy="5.5" rx="5" ry="5.5" transform="translate(.234 29.513)"/><circle data-name="Ellipse 39666" cx="5.5" cy="5.5" r="5.5" transform="translate(34.234 29.513)"/><ellipse data-name="Ellipse 39658" cx="5.5" cy="6" rx="5.5" ry="6" transform="translate(.234 59.513)"/><circle data-name="Ellipse 39665" cx="6" cy="6" r="6" transform="translate(34.234 59.513)"/><circle data-name="Ellipse 39660" cx="5" cy="5" r="5" transform="translate(.234 89.513)"/><ellipse data-name="Ellipse 39664" cx="5.5" cy="5" rx="5.5" ry="5" transform="translate(34.234 89.513)"/></g><ellipse data-name="Ellipse 39681" cx="8" cy="8.5" rx="8" ry="8.5" transform="translate(386.862 494.525)" fill="#3cc480"/><ellipse data-name="Ellipse 39682" cx="8.5" cy="8" rx="8.5" ry="8" transform="translate(388.862 442.525)" fill="#2e4453"/><ellipse data-name="Ellipse 39683" cx="9" cy="8.5" rx="9" ry="8.5" transform="translate(333.863 442.525)" fill="#fa0060"/><circle data-name="Ellipse 39684" cx="9" cy="9" r="9" transform="translate(333.863 494.525)" fill="#fff"/><g data-name="Mask Group 53" transform="translate(0 528.278)" clip-path="url(#v)"><circle data-name="Ellipse 39685" cx="104" cy="104" r="104" transform="translate(-.137 .247)" fill="#fa0060"/></g><g data-name="Mask Group 54" transform="translate(104.507 528.278)" clip-path="url(#w)"><circle data-name="Ellipse 39686" cx="104.5" cy="104.5" r="104.5" transform="translate(-102.644 .247)" fill="#3cc480"/></g><g data-name="Mask Group 55" transform="translate(53.976 582.254)" clip-path="url(#x)"><circle data-name="Ellipse 39687" cx="50.5" cy="50.5" r="50.5" transform="translate(-.113 .271)" fill="#e5e6e8"/></g><g data-name="Mask Group 56" transform="translate(104.507 582.254)" clip-path="url(#y)"><circle data-name="Ellipse 39688" cx="51.707" cy="51.707" r="51.707" transform="translate(-51.399 .004)" fill="#fff"/></g></g><g data-name="Group 6851"><path data-name="Path 13597" d="M281.761 424.15s-.255 104.908 104.905 104.906" fill="#fa0060"/><path data-name="Path 13598" d="M281.647 424.265s104.907-.256 104.905 104.905" fill="#2e4453"/></g><g data-name="Group 6852"><path data-name="Path 13597" d="M385.951 528.36s.686 105.85 106.795 106.796" fill="#2e4453"/><path data-name="Path 13598" d="M385.837 528.475s105.849.686 106.795 106.795" fill="#3cc480"/></g><g data-name="Group 6853" fill="#e5e6e8"><path data-name="Path 13597" d="M385.952 529.169s-.055-105.108 105.311-105.312"/><path data-name="Path 13598" d="M385.837 529.054s105.109.055 105.312-105.311"/></g><g data-name="Group 6854" transform="rotate(90 -97.014 197.74)" fill="#fa0060"><circle data-name="Ellipse 39654" cx="5.372" cy="5.372" r="5.372" transform="translate(34.919 89.983)"/><circle data-name="Ellipse 39667" cx="5.372" cy="5.372" r="5.372" transform="translate(0 89.983)"/><circle data-name="Ellipse 39656" cx="5.372" cy="5.372" r="5.372" transform="translate(34.919 60.436)"/><circle data-name="Ellipse 39666" cx="5.372" cy="5.372" r="5.372" transform="translate(0 60.436)"/><circle data-name="Ellipse 39658" cx="5.372" cy="5.372" r="5.372" transform="translate(34.919 29.547)"/><circle data-name="Ellipse 39665" cx="5.372" cy="5.372" r="5.372" transform="translate(0 29.547)"/><circle data-name="Ellipse 39660" cx="5.372" cy="5.372" r="5.372" transform="translate(34.919)"/><circle data-name="Ellipse 39664" cx="5.372" cy="5.372" r="5.372"/></g></svg>