<svg xmlns="http://www.w3.org/2000/svg" width="16.75" height="16.75" viewBox="0 0 16.75 16.75"><g data-name="Group 396"><g data-name="Group 395" fill="#6cd5b1" stroke="#6cd5b1" stroke-width=".75"><path data-name="Path 418" d="M11.151 5.232a1.061 1.061 0 101.061 1.061 1.062 1.062 0 00-1.061-1.061zm0 1.415a.354.354 0 11.354-.354.354.354 0 01-.354.354z"/><path data-name="Path 419" d="M5.599 7.354a1.061 1.061 0 10-1.061-1.061 1.062 1.062 0 001.061 1.061zm0-1.415a.354.354 0 11-.354.354.354.354 0 01.354-.354z"/><path data-name="Path 420" d="M8.375.375a8 8 0 108 8 8.009 8.009 0 00-8-8zm0 15.3a7.3 7.3 0 117.3-7.3 7.313 7.313 0 01-7.3 7.3z"/><path data-name="Path 421" d="M11.912 9.365H4.839a.354.354 0 00-.354.354 3.89 3.89 0 007.78 0 .354.354 0 00-.353-.354zm-3.537 3.537a3.187 3.187 0 01-3.163-2.829h6.326a3.187 3.187 0 01-3.163 2.829z"/></g></g></svg>