<svg xmlns="http://www.w3.org/2000/svg" width="26.301" height="22.05" viewBox="0 0 26.301 22.05"><path data-name="Path 6191" d="M26.3 8.942v4.167c-6.025 0-7.888 1.275-9.861 2.625-1.9 1.3-3.855 2.639-8.657 2.639v-.03c-.228.02-.393.029-.393.029H5.706l1.308 3.31a.265.265 0 01-.408.308l-6.5-5a.265.265 0 010-.421l6.5-5a.265.265 0 01.408.308l-1.307 3.317h2.344a9.843 9.843 0 006.6-2.08A15.909 15.909 0 0118.5 11.03a15.938 15.938 0 01-3.849-2.09 9.842 9.842 0 00-6.6-2.08H5.707l1.308 3.31a.265.265 0 01-.408.308l-6.5-5a.265.265 0 010-.42l6.5-5a.265.265 0 01.408.308l-1.308 3.31 1.683.005s.166.009.393.029v-.03c4.8 0 6.762 1.341 8.657 2.639 1.973 1.347 3.835 2.623 9.86 2.623z" fill="#1da1f3"/></svg>