<svg xmlns="http://www.w3.org/2000/svg" width="12" height="12" viewBox="0 0 12 12"><g data-name="Group 55"><g data-name="Group 54" fill="#ffb73a"><path data-name="Path 15" d="M6 0a6 6 0 106 6 6.007 6.007 0 00-6-6zm0 11.478A5.478 5.478 0 1111.478 6 5.484 5.484 0 016 11.478z"/><path data-name="Path 16" d="M3.913 5.739a.783.783 0 10-.783-.783.784.784 0 00.783.783zm0-1.044a.261.261 0 11-.261.261.261.261 0 01.261-.26z"/><path data-name="Path 17" d="M8.087 4.174a.783.783 0 10.783.783.784.784 0 00-.783-.783zm0 1.043a.261.261 0 11.261-.261.261.261 0 01-.261.261z"/><path data-name="Path 18" d="M8.608 7.304H3.391a.261.261 0 100 .522h5.217a.261.261 0 000-.522z"/></g></g></svg>