<svg data-name="Group 53" xmlns="http://www.w3.org/2000/svg" width="12" height="12" viewBox="0 0 12 12"><g data-name="Group 52" fill="#7fd70d"><path data-name="Path 11" d="M6 0a6 6 0 106 6 6.007 6.007 0 00-6-6zm0 11.478A5.478 5.478 0 1111.478 6 5.484 5.484 0 016 11.478z"/><path data-name="Path 12" d="M4.695 4.957a.783.783 0 10-.783.783.784.784 0 00.783-.783zm-1.043 0a.261.261 0 11.261.261.261.261 0 01-.261-.261z"/><path data-name="Path 13" d="M8.087 4.174a.783.783 0 10.783.783.784.784 0 00-.783-.783zm0 1.043a.261.261 0 11.261-.261.261.261 0 01-.261.261z"/><path data-name="Path 14" d="M8.521 7.371a.261.261 0 00-.368.02 2.9 2.9 0 01-4.307 0 .261.261 0 00-.389.348 3.424 3.424 0 005.084 0 .261.261 0 00-.02-.368z"/></g></svg>