<svg xmlns="http://www.w3.org/2000/svg" width="125.447" height="25.001" viewBox="0 0 125.447 25.001"><g data-name="Group 8"><path data-name="Path 28" d="M21.875 0H3.125A3.128 3.128 0 000 3.125v14.063a3.128 3.128 0 003.125 3.125h4.688v4.1a.587.587 0 00.933.474l6.1-4.575h7.031A3.128 3.128 0 0025 17.188V3.125A3.128 3.128 0 0021.875 0z" fill="#cf61ea"/><path data-name="Path 27" d="M45.643 15.145a1.5 1.5 0 00-.586-1.27 7.685 7.685 0 00-2.109-.937 14.953 14.953 0 01-2.412-.972 3.941 3.941 0 01-2.422-3.525 3.434 3.434 0 01.649-2.066 4.236 4.236 0 011.865-1.411 7.02 7.02 0 012.729-.508 6.39 6.39 0 012.715.552 4.323 4.323 0 011.851 1.567 4.076 4.076 0 01.659 2.285h-2.93a1.917 1.917 0 00-.615-1.519 2.529 2.529 0 00-1.729-.542 2.7 2.7 0 00-1.67.454 1.432 1.432 0 00-.6 1.2 1.372 1.372 0 00.7 1.162 7.889 7.889 0 002.062.871 8.882 8.882 0 013.643 1.865 3.715 3.715 0 011.139 2.774 3.422 3.422 0 01-1.4 2.9 6.113 6.113 0 01-3.756 1.05 7.26 7.26 0 01-2.988-.6 4.729 4.729 0 01-2.056-1.651 4.214 4.214 0 01-.708-2.422h2.939q0 2.354 2.813 2.354a2.736 2.736 0 001.631-.425 1.382 1.382 0 00.586-1.186zm8.75-10.488l3.652 10.312 3.633-10.312h3.848v14.218h-2.94v-3.887l.293-6.709-3.838 10.596h-2.012L53.2 8.289l.293 6.7v3.886h-2.93V4.656zm21.064 10.488a1.5 1.5 0 00-.586-1.27 7.685 7.685 0 00-2.109-.937 14.953 14.953 0 01-2.412-.972 3.941 3.941 0 01-2.422-3.525 3.434 3.434 0 01.649-2.056 4.236 4.236 0 011.865-1.411 7.021 7.021 0 012.729-.508 6.39 6.39 0 012.715.552 4.323 4.323 0 011.851 1.557 4.076 4.076 0 01.663 2.28h-2.93a1.917 1.917 0 00-.615-1.519 2.529 2.529 0 00-1.729-.542 2.7 2.7 0 00-1.67.454 1.432 1.432 0 00-.6 1.2 1.372 1.372 0 00.7 1.162 7.889 7.889 0 002.056.879 8.882 8.882 0 013.643 1.865 3.715 3.715 0 011.145 2.771 3.422 3.422 0 01-1.4 2.896 6.113 6.113 0 01-3.76 1.054 7.26 7.26 0 01-2.988-.6 4.729 4.729 0 01-2.052-1.651 4.214 4.214 0 01-.708-2.422h2.939q0 2.354 2.813 2.354a2.736 2.736 0 001.631-.425 1.382 1.382 0 00.582-1.186zm5.625 4.951h-2.1l5.234-15.439h2.1zM98.553 7.029H94.2v11.846h-2.93V7.029h-4.3V4.656h11.583zm5.478 12.046a5.187 5.187 0 01-3.784-1.43 5.068 5.068 0 01-1.46-3.8v-.27a6.383 6.383 0 01.613-2.849 4.515 4.515 0 011.743-1.934 4.893 4.893 0 012.573-.679 4.385 4.385 0 013.413 1.367 5.555 5.555 0 011.245 3.877v1.152h-6.726a2.622 2.622 0 00.825 1.66 2.5 2.5 0 001.743.625 3.046 3.046 0 002.549-1.182l1.387 1.553a4.237 4.237 0 01-1.719 1.4 5.639 5.639 0 01-2.402.51zm-.322-8.682a1.764 1.764 0 00-1.362.569 2.946 2.946 0 00-.669 1.628h3.922v-.226a2.1 2.1 0 00-.5-1.46 1.819 1.819 0 00-1.391-.515zM114 11.463l1.777-3.154h3.023l-3.011 5.175 3.135 5.391H115.9l-1.888-3.32-1.875 3.32H109.1l3.135-5.391-3-5.176h3.027zm9.531-5.752v2.6h1.809v2.064h-1.807v5.273a1.259 1.259 0 00.225.84 1.128 1.128 0 00.859.254 4.5 4.5 0 00.83-.068v2.142a5.81 5.81 0 01-1.709.259q-2.969 0-3.027-3v-5.7h-1.543v-2.07h1.543v-2.6z" fill="#282828"/></g></svg>