<svg xmlns="http://www.w3.org/2000/svg" width="135.061" height="21.943" viewBox="0 0 135.061 21.943"><g data-name="Group 5" fill="#1da1f2"><g data-name="Group 2" stroke="#38cdff" stroke-miterlimit="10" stroke-width=".094"><path data-name="Path 6" d="M38.985 1.101a2.306 2.306 0 012.825 1.772c.084.986.084 1.989.1 2.975 2.491.017 5-.084 7.489.033a2.289 2.289 0 011.922 1.872 2.371 2.371 0 01-1.822 2.858c-2.541.2-5.1.05-7.656.084.033.936-.017 1.872.1 2.791a2.239 2.239 0 001.839 1.805c1.922.167 3.845 0 5.75.15a2.361 2.361 0 011.354 3.761c-.6 1.07-1.939 1.036-2.992 1.036-1.939-.033-3.945.234-5.834-.351a7.17 7.17 0 01-5-6.686c-.1-3.059-.033-6.135-.033-9.194a2.551 2.551 0 011.956-2.908z"/><path data-name="Path 7" d="M77.882 1.066a2.439 2.439 0 012.775 3.109 2.379 2.379 0 01-3.895 1.053 2.423 2.423 0 011.12-4.162z"/><path data-name="Path 8" d="M83.03 1.703a2.4 2.4 0 013.845.769 44.165 44.165 0 01.15 5.366 46.6 46.6 0 015.065.134 2.411 2.411 0 011.855 2.658 2.2 2.2 0 01-2.424 2.039c-1.438.084-2.875.05-4.313.067.167.8.2 1.956 1.086 2.357 1.555.619 3.443-.134 4.9.786a2.775 2.775 0 01.736 2.39 2.558 2.558 0 01-2.741 1.939c-2.909.351-6.469-.518-7.706-3.494-1.471-3.627-1.32-7.689-1.337-11.534.1-1.153-.167-2.674.886-3.477z"/><path data-name="Path 9" d="M95.567 1.704a2.717 2.717 0 012.858-.418 2.285 2.285 0 011.187 1.454c.184 1.7.1 3.41.117 5.1a46.588 46.588 0 015.065.134 2.411 2.411 0 011.872 2.507 2.318 2.318 0 01-1.805 2.156c-1.638.134-3.276.067-4.914.067.117.769.05 1.822.819 2.29 1.722.9 4.145-.351 5.483 1.371a2.461 2.461 0 01-1.32 3.728c-2.758.468-6.068.184-8.007-2.089-1.4-1.839-1.638-4.229-1.922-6.435a49.632 49.632 0 01-.184-7.221 4.215 4.215 0 01.752-2.641z"/><path data-name="Path 10" d="M53.962 6.818a2.335 2.335 0 012.674 1.321c.234 1.789.033 3.594.134 5.4a2.276 2.276 0 002.591 2.089 1.933 1.933 0 001.672-1.621c.134-1.7.017-3.427.084-5.148a2.493 2.493 0 011.922-2.089 2.621 2.621 0 012.039.618c1.371 1.989.334 4.58.769 6.786a2.005 2.005 0 001.672 1.454c1.2.251 2.674-.769 2.407-2.089.167-1.789-.234-3.661.318-5.4a2.254 2.254 0 014.3.485 34.23 34.23 0 01.067 5.4 6.853 6.853 0 01-6.653 6.185 7.177 7.177 0 01-4.519-1.626 8.646 8.646 0 01-3.443 1.538 6.735 6.735 0 01-7.455-4.73 24.3 24.3 0 01-.284-6.034 2.3 2.3 0 011.7-2.541z"/><path data-name="Path 11" d="M128.53 6.951a28.151 28.151 0 014.279-.1 2.309 2.309 0 012.039 3.026c-.351.618-.836 1.321-1.6 1.387-1.371.117-2.741.067-4.112.15a1.971 1.971 0 00-1.772 1.655c-.134 1.655-.017 3.326-.084 5a2.307 2.307 0 01-3.009 2.023c-.618-.351-1.32-.852-1.4-1.6a34.961 34.961 0 01-.017-5.767 6.518 6.518 0 015.683-5.767z"/><path data-name="Path 12" d="M78.049 7.603a2.38 2.38 0 012.674 1.989 80.694 80.694 0 01.067 8.291 2.47 2.47 0 01-2.039 2.257 2.287 2.287 0 01-2.741-2.424c-.067-2.775-.117-5.55.033-8.324a2.222 2.222 0 012.006-1.789z"/><path data-name="Path 13" d="M119.887 8.573a9.168 9.168 0 00-8.475-1.2 5.922 5.922 0 00-3.544 3.477 6.665 6.665 0 002.223 7.856c2.073 1.722 4.981 1.822 7.505 1.17a4.679 4.679 0 003.544-2.474 1.512 1.512 0 00-1.153-2.089c-1.32-.234-2.39.736-3.644.97-1.437.251-3.343.134-4.062-1.354 2.541-.1 5.1.05 7.639-.1a2.025 2.025 0 001.972-1.17 5.424 5.424 0 00-2.005-5.086zm-7.555 3.109a2.9 2.9 0 014.931-.05 80.237 80.237 0 01-4.93.05z"/></g><path d="M8.491 21.943A15.654 15.654 0 0024.252 6.182q0-.36-.016-.716A11.265 11.265 0 0027 2.6a11.044 11.044 0 01-3.181.872A5.56 5.56 0 0026.255.406a11.11 11.11 0 01-3.518 1.344A5.544 5.544 0 0013.3 6.8 15.729 15.729 0 011.879 1.014a5.544 5.544 0 001.715 7.4 5.5 5.5 0 01-2.509-.693v.071a5.541 5.541 0 004.444 5.43 5.529 5.529 0 01-2.5.1A5.545 5.545 0 008.2 17.16a11.113 11.113 0 01-6.88 2.371A11.251 11.251 0 010 19.454a15.68 15.68 0 008.491 2.488"/></g></svg>