<svg xmlns="http://www.w3.org/2000/svg" width="300.003" height="239.405" viewBox="0 0 300.003 239.405"><defs><linearGradient id="a" x1=".333" y1=".204" x2=".685" y2="1.055" gradientUnits="objectBoundingBox"><stop offset="0" stop-color="#cf61ea"/><stop offset=".395" stop-color="#a34dca"/><stop offset="1" stop-color="#05aaff"/></linearGradient><linearGradient id="b" x1=".5" x2=".918" y2="1.322" gradientUnits="objectBoundingBox"><stop offset="0" stop-color="#fff" stop-opacity=".369"/><stop offset=".575" stop-color="#fff" stop-opacity=".733"/><stop offset="1" stop-color="#fff"/></linearGradient></defs><path data-name="Intersection 10" d="M11156.742-5656.29a397.419 397.419 0 01-49.753-49.79V-5865h300v84.942q-5.534 2.321-11.366 4.628c-85.54 33.861-109.795 149.834-174.207 149.835-17.784-.005-38.631-8.842-64.674-30.695z" transform="translate(-11106.986 5865)" opacity=".06" fill="url(#a)"/><path data-name="Intersection 11" d="M11221.454-5711.482a238.221 238.221 0 01-82.167-56.029v-153.562h288.271a69.277 69.277 0 01-13.3 12.821c-69.367 53.366-101.284 201.455-170.753 201.458a57.548 57.548 0 01-22.051-4.688z" transform="translate(-11139.287 5921.074)" opacity=".08" fill="url(#b)"/><path data-name="Intersection 12" d="M11195.371-5767.265c-53.578-6.968-79.984-45.585-111.344-133.967v-1.7h245.216c-28.095 48.743-84.634 135.928-129.57 135.938a33.182 33.182 0 01-4.302-.271z" transform="translate(-11084.025 5902.929)" opacity=".08" fill="url(#b)"/><path data-name="Intersection 13" d="M11122.813-5924.834H11364v134.447c-10.712 4.928-22.59 7.146-35.157 7.147-79.364.01-186.568-88.414-206.03-141.594z" transform="translate(-11063.998 5924.834)" opacity=".08" fill="url(#b)"/></svg>