<svg xmlns="http://www.w3.org/2000/svg" viewBox="0 0 218.94 85.95"><defs><style>.cls-1{fill:#fff}</style></defs><g id="Layer_2" data-name="Layer 2"><g id="Layer_1-2" data-name="Layer 1"><path class="cls-1" d="M83.83 41.24C83.83 15.21 66.07 0 42.74 0 17.16 0 0 18.51 0 43.05 0 65 13.85 86 44.54 86a62.06 62.06 0 0035.82-11.34l-8.42-14.9A50.09 50.09 0 0145.45 68c-14 0-21.37-7.52-23.93-17.46h61.56a60.85 60.85 0 00.75-9.3zm-62.31-6.46a21 21 0 0121.22-17.16 19.85 19.85 0 0120.47 17.16z"/><path id="Path_13094" data-name="Path 13094" class="cls-1" d="M104.66 84.36A12.71 12.71 0 1092 71.65a12.71 12.71 0 0012.66 12.71z"/><path d="M206.83 4.46h12.11v75.3h-12.11V68.93c-6.89 8.44-15.76 12.66-26.88 12.66q-16.26 0-27-11.4c-7.18-7.74-10.7-17.17-10.7-28.57s3.52-20.55 10.7-27.87S169.11 2.63 180 2.63a33 33 0 0126.88 13zm-6.47 17.88c-4.93-5.49-11.26-8.16-19.14-8.16s-14.22 2.67-19.14 8.16-7.18 12-7.18 19.84A29.15 29.15 0 00162.08 62c4.92 5.35 11.26 8 19.14 8s14.21-2.67 19.14-8a28.86 28.86 0 007.46-20 28.17 28.17 0 00-7.46-19.66z" fill="#fff"/></g></g></svg>