<svg xmlns="http://www.w3.org/2000/svg" width="85.652" height="18.75" viewBox="0 0 85.652 18.75"><g data-name="Group 10"><path data-name="Path 32" d="M24.526 6.191c-1.094.85-2.539 1.934-7.52 5.552-.991.723-2.764 2.339-4.507 2.324-1.733.01-3.472-1.572-4.5-2.324-4.98-3.618-6.431-4.7-7.524-5.547a.292.292 0 00-.475.23v9.98a2.344 2.344 0 002.344 2.344h20.312A2.344 2.344 0 0025 16.406V6.421a.294.294 0 00-.474-.23zM12.5 12.5c1.133.02 2.764-1.426 3.584-2.022 6.479-4.7 6.973-5.112 8.467-6.284A1.168 1.168 0 0025 3.271v-.928a2.344 2.344 0 00-2.344-2.344H2.344A2.344 2.344 0 000 2.344v.928a1.176 1.176 0 00.449.923c1.494 1.167 1.987 1.582 8.467 6.284.82.595 2.451 2.041 3.584 2.021z" fill="#9c87ee"/><path data-name="Path 31" d="M46.824 9.588H41.2v3.809h6.6v2.353h-9.53V1.531h9.512v2.373H41.2v3.389h5.624zm5.156-4.4l.088 1.182a3.713 3.713 0 013.037-1.377 2.818 2.818 0 012.8 1.611 3.628 3.628 0 013.174-1.611 3.152 3.152 0 012.559 1 4.6 4.6 0 01.84 3.013v6.744h-2.83V9.012a2.012 2.012 0 00-.348-1.314 1.558 1.558 0 00-1.24-.415 1.761 1.761 0 00-1.76 1.211l.009 7.256h-2.823V9.021a1.988 1.988 0 00-.361-1.328 1.573 1.573 0 00-1.23-.41 1.829 1.829 0 00-1.738 1v7.467h-2.823V5.184zM72.771 15.75a3.134 3.134 0 01-.283-.947 3.415 3.415 0 01-2.666 1.147 3.752 3.752 0 01-2.573-.9 2.89 2.89 0 01-1.021-2.266 2.986 2.986 0 011.245-2.578 6.144 6.144 0 013.6-.908h1.3v-.605A1.741 1.741 0 0072 7.518a1.479 1.479 0 00-1.187-.439 1.682 1.682 0 00-1.118.342 1.161 1.161 0 00-.405.938h-2.827a2.835 2.835 0 01.566-1.7 3.744 3.744 0 011.6-1.226 5.837 5.837 0 012.324-.444 4.611 4.611 0 013.1.981A3.433 3.433 0 0175.2 8.729v4.58a5.052 5.052 0 00.42 2.275v.166zm-2.333-1.963a2.431 2.431 0 001.152-.278 1.828 1.828 0 00.781-.747V10.95h-1.055q-2.116 0-2.255 1.46l-.01.166a1.13 1.13 0 00.371.869 1.441 1.441 0 001.016.342zm9.912 1.963h-2.832V5.184h2.832zm-3-13.3a1.39 1.39 0 01.425-1.045 1.6 1.6 0 011.157-.41 1.6 1.6 0 011.152.41 1.382 1.382 0 01.43 1.045 1.386 1.386 0 01-.435 1.055 1.6 1.6 0 01-1.147.41 1.6 1.6 0 01-1.147-.41 1.386 1.386 0 01-.433-1.055zm8.302 13.3H82.82v-15h2.832z" fill="#282828"/></g></svg>