<svg xmlns="http://www.w3.org/2000/svg" width="94" height="73.107" viewBox="0 0 94 73.107"><g data-name="Group 1105"><g data-name="Group 586"><g data-name="Group 584"><path data-name="Path 548" d="M67.5 63.451H46.237v-7.314l-17.45 12.037.018-12.319-10.805-.1v-38.1h56.475v16.309h15.249v29.479l-8.239.076.016 9.588zm12.183 6.2l-.012-7.929 8.241-.076V35.777H74.475v19.987H48.05v5.875h20.015zm-49.078-4.935l15.61-10.767h26.448V19.464H19.817v34.494l10.808.1z" fill="#6b75ca"/></g><g data-name="Group 585" fill="#6b75ca"><path data-name="Path 549" d="M42.539 30.77a.612.612 0 01-.581-.4 2.353 2.353 0 00-2.242-1.582 2.353 2.353 0 00-2.241 1.583.612.612 0 01-.581.4.626.626 0 01-.515-.265.6.6 0 01-.083-.547 3.6 3.6 0 013.421-2.413 3.6 3.6 0 013.421 2.413.6.6 0 01-.083.547.626.626 0 01-.516.264z"/><path data-name="Path 550" d="M55.371 30.77a.612.612 0 01-.581-.4 2.353 2.353 0 00-2.242-1.583 2.353 2.353 0 00-2.242 1.583.612.612 0 01-.581.4.626.626 0 01-.514-.265.6.6 0 01-.084-.547 3.6 3.6 0 013.421-2.413 3.6 3.6 0 013.421 2.413.6.6 0 01-.084.547.626.626 0 01-.514.265z"/><path data-name="Path 551" d="M46.09 46.13a13.146 13.146 0 01-1.507-.087 13.515 13.515 0 01-8.97-5.02.706.706 0 01-.142-.56.75.75 0 01.332-.507.734.734 0 01.4-.119.743.743 0 01.584.283 12.017 12.017 0 007.966 4.451 11.739 11.739 0 001.343.077 12.076 12.076 0 009.379-4.524.751.751 0 01.59-.287.73.73 0 01.4.117.752.752 0 01.334.508.706.706 0 01-.142.56A13.578 13.578 0 0146.09 46.13z"/></g></g><text data-name="+" transform="translate(90 13)" fill="#a3a0fb" font-size="14" font-family="Roboto-Regular, Roboto" letter-spacing=".02em"><tspan x="-3.968" y="0">+</tspan></text><text data-name="+" transform="rotate(45 -13.607 13.864)" fill="#a3a0fb" font-size="14" font-family="Roboto-Regular, Roboto" letter-spacing=".02em"><tspan x="-3.968" y="0">+</tspan></text><g data-name="Ellipse 151" transform="translate(0 56)" fill="#fff" stroke="#a3a0fb"><circle cx="3" cy="3" r="3" stroke="none"/><circle cx="3" cy="3" r="2.5" fill="none"/></g></g></svg>