<svg xmlns="http://www.w3.org/2000/svg" width="117.5" height="21.247" viewBox="0 0 117.5 21.247"><path d="M24.08 6.61h1.69V4.991a2.947 2.947 0 013.238-3.238l1.079.2v1.959l-1.147-.2c-.675 0-.944.4-.944 1.079V6.61h2.154v1.956h-2.158v8.094h-2.159V8.566H24.08zm11.535-.202a5.223 5.223 0 015.261 5.261 5.261 5.261 0 01-10.522 0 5.181 5.181 0 015.261-5.261zm0 8.566a3.027 3.027 0 003.1-3.305 3.109 3.109 0 10-6.206 0 3.061 3.061 0 003.106 3.306zm11.396-8.566a5.223 5.223 0 015.261 5.261 5.261 5.261 0 01-10.522 0 5.222 5.222 0 015.261-5.261zm0 8.566a3.027 3.027 0 003.1-3.305 3.109 3.109 0 10-6.206 0 3.061 3.061 0 003.106 3.306zm16.46 1.686h-1.956l-.2-.877-.135-.135-.142.139a3.93 3.93 0 01-2.765 1.079 5.113 5.113 0 01-5.126-5.261 5.113 5.113 0 015.126-5.261 3.814 3.814 0 012.765 1.076l.135.135.135-.135v-5.6h2.158zm-5.059-8.364a3.027 3.027 0 00-3.1 3.305 3.027 3.027 0 003.1 3.305 3.143 3.143 0 003.1-3.305 3.184 3.184 0 00-3.1-3.305zm7.218-1.685h1.956l.2.877.135.135.135-.135a3.93 3.93 0 012.766-1.08 5.113 5.113 0 015.126 5.261 5.113 5.113 0 01-5.126 5.262 3.814 3.814 0 01-2.766-1.079l-.135-.135-.135.135v5.4h-2.089V6.611zm4.992 8.364a3.027 3.027 0 003.1-3.305 3.027 3.027 0 00-3.1-3.306 3.143 3.143 0 00-3.1 3.305 3.184 3.184 0 003.1 3.306zm10.657-4.587h1.754v-.472c0-1.214-.809-1.754-1.956-1.754a1.884 1.884 0 00-1.889 1.349l-1.889-.4a3.708 3.708 0 013.845-2.766c2.7 0 4.047 1.349 4.047 3.98v6.273h-1.754l-.2-1.349a3.541 3.541 0 01-3.17 1.484 2.87 2.87 0 01-3.1-3.1c-.067-1.956 1.686-3.238 4.317-3.238zm-.944 4.587a2.547 2.547 0 001.821-.675 2.353 2.353 0 00.809-1.889v-.2h-1.821c-1.282 0-2.091.607-2.091 1.551a1.187 1.187 0 001.282 1.213zm6.745-8.364h1.956l.2.877.135.135.135-.135a2.921 2.921 0 012.361-1.079 3.788 3.788 0 014.049 4.046v6.206h-2.158v-6.206A1.986 1.986 0 0091.6 8.297a2.377 2.377 0 00-2.362 2.293v6.071H87.08zm20.37 10.049h-1.956l-.2-.877-.135-.135-.135.135a3.929 3.929 0 01-2.765 1.079 5.113 5.113 0 01-5.126-5.261 5.113 5.113 0 015.123-5.261 3.814 3.814 0 012.765 1.079l.135.135.135-.135v-5.6h2.158zm-4.992-8.364a3.027 3.027 0 00-3.1 3.305 3.027 3.027 0 003.1 3.305 3.143 3.143 0 003.1-3.305 3.184 3.184 0 00-3.1-3.305zm11.13 2.092h1.756v-.472c0-1.214-.809-1.754-1.956-1.754a1.884 1.884 0 00-1.889 1.349l-1.889-.4a3.708 3.708 0 013.845-2.766c2.7 0 4.047 1.349 4.047 3.98v6.273h-1.758l-.2-1.349a3.541 3.541 0 01-3.17 1.484 2.87 2.87 0 01-3.1-3.1c-.067-1.956 1.619-3.238 4.317-3.238zm-.944 4.587a2.546 2.546 0 001.821-.675 2.353 2.353 0 00.809-1.889v-.2h-1.821c-1.282 0-2.091.607-2.091 1.551a1.187 1.187 0 001.282 1.213z" fill="#d70f64"/><g fill="#d70f64"><path d="M9.173 13.49a2.115 2.115 0 002.226-1.956H6.947a2.072 2.072 0 002.226 1.956z"/><path d="M16.661 4.18a2.217 2.217 0 00.809-1.821A2.362 2.362 0 0015.042 0a2.3 2.3 0 00-2.024 1.08A8.733 8.733 0 009.106.203a9.253 9.253 0 00-3.912.877A2.3 2.3 0 003.17 0 2.4 2.4 0 00.742 2.361a2.548 2.548 0 00.81 1.819A8.8 8.8 0 00.001 9.239a9.106 9.106 0 1018.212 0 8.644 8.644 0 00-1.552-5.059zM9.174 17.605A8.406 8.406 0 01.81 9.241a8.647 8.647 0 011.416-4.722 7.93 7.93 0 013.31-2.833 8.6 8.6 0 017.285 0 8.944 8.944 0 013.305 2.833 8.647 8.647 0 011.41 4.722 8.406 8.406 0 01-8.362 8.364z"/><path d="M9.174 10.994c.135.067 1.551-.472 1.551-1.147 0-.4-1.147-.472-1.551-.472s-1.551.067-1.551.472c-.068.675 1.416 1.215 1.551 1.147zm5.261-5.665c-.809-.54-2.563-.809-3.238.067a1.376 1.376 0 000 1.889 7.068 7.068 0 011.686 2.63c.2.809.54 1.079 1.147 1.079a2.8 2.8 0 002.024-2.5 3.387 3.387 0 00-1.619-3.17zm-1.821 1.956a.472.472 0 11.472-.472.461.461 0 01-.472.472zM7.081 5.396c-.675-.877-2.428-.607-3.238-.067a3.462 3.462 0 00-1.619 3.17 2.646 2.646 0 002.024 2.5c.607 0 .944-.337 1.147-1.079a7.426 7.426 0 011.686-2.635 1.356 1.356 0 000-1.889zm-1.28 1.889a.472.472 0 11.472-.472.461.461 0 01-.472.472z"/></g></svg>