<svg xmlns="http://www.w3.org/2000/svg" viewBox="0 0 158.68 16.63"><defs><style>.cls-1{fill:#eb0045}</style></defs><g id="Layer_2" data-name="Layer 2"><g id="Layer_1-2" data-name="Layer 1"><g id="ibex-enteract-engage.svg"><path id="Path_13091" data-name="Path 13091" class="cls-1" d="M12.23 11.4H3.17A3.3 3.3 0 006.69 14a7.33 7.33 0 003.9-1.22l1.24 2.19a9.08 9.08 0 01-5.27 1.63C2 16.6 0 13.53 0 10.29A6.06 6.06 0 015.8 4h.49a5.72 5.72 0 016.05 5.38 5.3 5.3 0 010 .69 8.93 8.93 0 01-.11 1.33zM3.17 9.08h6.14a2.93 2.93 0 00-3-2.53 3.09 3.09 0 00-3.14 2.53zm10-4.81h3.05V6a4.23 4.23 0 013.79-2c2.44 0 4.72 1.62 4.72 5v7.37h-3.14V9.81c0-1.95-1-3-2.54-3a2.77 2.77 0 00-2.78 2.79 2.44 2.44 0 000 .27v6.47h-3.11zm21.5 11.36a6.71 6.71 0 01-3.57 1c-2.76 0-4.2-1.64-4.2-4.76v-5h-2v-2.6h2V0H30v4.27h4v2.62h-4v4.78c0 1.4.53 2.13 1.7 2.13a4.13 4.13 0 002-.62z"/><path id="Path_13092" data-name="Path 13092" class="cls-1" d="M46.24 11.4h-9.06A3.3 3.3 0 0040.7 14a7.33 7.33 0 003.9-1.22l1.24 2.19a9.08 9.08 0 01-5.27 1.66c-4.52 0-6.56-3.08-6.56-6.31A6.08 6.08 0 0139.82 4h.48a5.71 5.71 0 016.05 5.38v.68a9 9 0 01-.11 1.38zm-9.06-2.32h6.13a2.91 2.91 0 00-3-2.53 3.09 3.09 0 00-3.13 2.53zm29.68 1.21a6.15 6.15 0 016-6.33h.52A6 6 0 0179 7.33L76.47 8.7a3.57 3.57 0 00-3.07-1.84 3.45 3.45 0 10-.07 6.89 3.6 3.6 0 003.07-1.82l2.52 1.49a6.29 6.29 0 01-5.67 3.18 6.1 6.1 0 01-6.39-5.8v-.51zm21.85 5.34a6.68 6.68 0 01-3.56 1c-2.77 0-4.21-1.64-4.21-4.76v-5H79v-2.6h2V0h3.1v4.27h4v2.62h-4v4.78c0 1.4.53 2.13 1.7 2.13a4.13 4.13 0 002-.62zM54.63 4.35v2.6c0 .28-.18.31-.36.4a5.46 5.46 0 00-3.2 3.79 7.93 7.93 0 00-.15 1.53v3.67h-3.31v-3.51a5.81 5.81 0 01.58-2.83A10.22 10.22 0 0154 4.53l.59-.18zm-7 4.46V3.92h3.26a1.11 1.11 0 01-.36 1.19 7.91 7.91 0 00-2.65 3.3c0 .14-.11.28-.17.41zm18.07-.56A4.28 4.28 0 0063 4.08a9.41 9.41 0 00-6.75 0c-.09 0-.21.14-.21.21v2.55c.29-.1.53-.2.77-.27a6.29 6.29 0 014.34.11A2.07 2.07 0 0162.5 9.2c-.6-.12-1.19-.28-1.8-.34a9.94 9.94 0 00-1.89 0c-2 .18-3.77 1.13-3.85 3.62a3.54 3.54 0 001.82 3.57 5.06 5.06 0 005.3-.54c.12-.11.25-.21.46-.38v1.18h3.17a.83.83 0 000-.15V8.21zm-4.85 5.91c-2.07.47-3.29 0-3.26-1.53s1.43-1.93 2.78-1.8a18.12 18.12 0 011.94.28s.61 2.58-1.46 3.05zM89.69.66V4h.62V.66h1.16v-.6h-2.94v.6zM92 4h.62V1.48l1.28 1.88h.19l1.31-1.88V4h.6V.06h-.35L94 2.48 92.36.06H92z"/><path id="Path_13094" data-name="Path 13094" class="cls-1" d="M92.2 16.37a1.87 1.87 0 10-.09 0z"/></g><path d="M106.05 10v6.37h-1.52V14.7a4.35 4.35 0 01-3.68 1.88c-2.2 0-3.82-1.27-3.82-3.34s1.86-3.48 4.1-3.48a11.51 11.51 0 013.4.59V10c0-1.42-.56-3-2.83-3a7.06 7.06 0 00-3 1L98 6.65a8.44 8.44 0 013.76-1c2.89-.01 4.29 1.79 4.29 4.35zm-1.52 3.09v-1.6a12 12 0 00-3.15-.42c-1.56 0-2.88.89-2.88 2.14s1.14 2.07 2.61 2.07a3.43 3.43 0 003.42-2.22zm3.65-1.99a5.51 5.51 0 015.42-5.46 5.41 5.41 0 013.73 1.53l-1.06 1A3.64 3.64 0 00113.6 7a4 4 0 00-3.82 4.11 4 4 0 003.82 4.13 3.67 3.67 0 002.73-1.24l1.06 1a5.33 5.33 0 01-3.79 1.6 5.53 5.53 0 01-5.42-5.5zm10.57 0a5.5 5.5 0 015.42-5.46 5.39 5.39 0 013.72 1.53l-1 1A3.64 3.64 0 00124.17 7a4 4 0 00-3.83 4.11 4 4 0 003.83 4.13A3.69 3.69 0 00126.9 14l1 1a5.31 5.31 0 01-3.78 1.6 5.52 5.52 0 01-5.37-5.5zm19.14 2.9l.93 1a6.21 6.21 0 01-4.21 1.62 5.37 5.37 0 01-5.3-5.5 5.26 5.26 0 015.16-5.44c3.16 0 5 2.38 5 6.05h-8.56a3.72 3.72 0 003.72 3.54 4.91 4.91 0 003.26-1.27zm-7-3.64h7c-.2-1.88-1.32-3.34-3.4-3.34a3.66 3.66 0 00-3.6 3.31zm10 4.64l.79-1.11a6.06 6.06 0 003.54 1.32c1.37 0 2.31-.65 2.31-1.64 0-1.14-1.22-1.5-2.63-1.9-2.53-.73-3.5-1.48-3.5-3 0-1.9 1.57-3.07 3.66-3.07a7 7 0 013.74 1.17L148.07 8a5.76 5.76 0 00-3-1c-1.18 0-2.15.53-2.15 1.54s.77 1.19 2.71 1.82c1.68.53 3.42 1.09 3.42 3.08s-1.66 3.15-3.82 3.15a7 7 0 01-4.34-1.59zm9.63 0l.79-1.11a6.09 6.09 0 003.54 1.32c1.38 0 2.31-.65 2.31-1.64 0-1.14-1.21-1.5-2.63-1.9-2.53-.73-3.5-1.48-3.5-3 0-1.9 1.58-3.07 3.66-3.07a7 7 0 013.75 1.17L157.71 8a5.82 5.82 0 00-3-1c-1.17 0-2.14.53-2.14 1.54s.77 1.19 2.71 1.82c1.68.53 3.42 1.09 3.42 3.08s-1.66 3.15-3.83 3.15a7.08 7.08 0 01-4.35-1.59z" fill="#9398a5"/></g></g></svg>