<svg xmlns="http://www.w3.org/2000/svg" viewBox="0 0 79 37" fill="#fa0060"><path d="M.7 7.3C.7 5.4 2.2 4 4.1 4s3.4 1.4 3.4 3.3-1.5 3.3-3.3 3.3C2.2 10.7.7 9.3.7 7.3zm.6 25.1V12.7H7v19.7H1.3zM31 22.6c0 6-4.2 10.4-9.8 10.4-2.7 0-4.6-1.2-5.9-2.7v2.2H9.7V5h5.7v9.6c1.3-1.4 3.2-2.4 5.7-2.4 5.6 0 9.9 4.4 9.9 10.4zm-5.8-.1c0-2.8-2-5.1-5-5.1s-5 2.3-5 5.1c0 2.9 2.1 5.2 5 5.2 3 .1 5-2.3 5-5.2zm27 2H37.6c.6 2.2 2.3 3.7 5.4 3.7 2.1 0 4.6-.8 6.2-1.9l2.2 3.9c-1.9 1.4-5 2.7-8.6 2.7-7.4 0-10.8-5-10.8-10.3 0-5.9 4.1-10.3 10.4-10.3 5.7 0 10 3.6 10 9.9-.1.7-.1 1.5-.2 2.3zm-14.6-4.1h9.3c-.5-2.2-2.2-3.7-4.5-3.7-2.3.1-4.1 1.4-4.8 3.7zm27.5 12l-3.4-6.2-3.7 6.2h-6.4l6.4-10-5.7-9.7h6.4l3 5.8 3.3-5.8h6.3l-6 9.8 6.2 9.9h-6.4zm6.8-2.6c0-1.8 1.4-3.1 3.2-3.1a3.12 3.12 0 013.1 3.1c0 1.8-1.4 3.2-3.1 3.2-1.8 0-3.2-1.3-3.2-3.2z"/></svg>