<svg xmlns="http://www.w3.org/2000/svg" width="132.181" height="28" viewBox="0 0 132.181 28"><defs><radialGradient id="a" cx=".266" cy="1.077" r=".991" gradientTransform="matrix(0 -1 .93 0 -2.918 5.666)" gradientUnits="objectBoundingBox"><stop offset="0" stop-color="#fd5"/><stop offset=".1" stop-color="#fd5"/><stop offset=".5" stop-color="#ff543e"/><stop offset="1" stop-color="#c837ab"/></radialGradient><radialGradient id="b" cx="-.168" cy=".072" r=".443" gradientTransform="matrix(.196 .981 -4.042 .809 15.634 -.42)" gradientUnits="objectBoundingBox"><stop offset="0" stop-color="#3771c8"/><stop offset=".128" stop-color="#3771c8"/><stop offset="1" stop-color="#60f" stop-opacity="0"/></radialGradient></defs><g data-name="Group 6"><path data-name="Path 3" d="M13.393 0C7.8 0 6.168.006 5.85.032A6.643 6.643 0 003.212.7a5.345 5.345 0 00-1.538 1.121A5.746 5.746 0 00.123 5.078 24.163 24.163 0 000 9.029v4.351c0 5.585.006 7.218.033 7.535A6.725 6.725 0 00.672 23.5a5.64 5.64 0 003.655 2.986 9.5 9.5 0 001.944.257c.332.014 3.711.025 7.093.025s6.763 0 7.086-.021a9.147 9.147 0 002.014-.264 5.606 5.606 0 003.655-2.992 6.615 6.615 0 00.631-2.537c.018-.231.026-3.908.026-7.581s-.008-7.344-.026-7.575a6.54 6.54 0 00-.644-2.562 5.307 5.307 0 00-1.146-1.57A5.779 5.779 0 0021.7.123 24.129 24.129 0 0017.75 0z" fill="url(#a)"/><path data-name="Path 4" d="M13.393 0C7.8 0 6.168.006 5.85.032A6.643 6.643 0 003.212.7a5.345 5.345 0 00-1.538 1.121A5.746 5.746 0 00.123 5.078 24.163 24.163 0 000 9.029v4.351c0 5.585.006 7.218.033 7.535A6.725 6.725 0 00.672 23.5a5.64 5.64 0 003.655 2.986 9.5 9.5 0 001.944.257c.332.014 3.711.025 7.093.025s6.763 0 7.086-.021a9.147 9.147 0 002.014-.264 5.606 5.606 0 003.655-2.992 6.615 6.615 0 00.631-2.537c.018-.231.026-3.908.026-7.581s-.008-7.344-.026-7.575a6.54 6.54 0 00-.644-2.562 5.307 5.307 0 00-1.146-1.57A5.779 5.779 0 0021.7.123 24.129 24.129 0 0017.75 0z" fill="url(#b)"/><path data-name="Path 5" d="M13.387 3.501c-2.685 0-3.022.012-4.076.06a7.254 7.254 0 00-2.4.459 5.057 5.057 0 00-2.892 2.891 7.221 7.221 0 00-.459 2.4c-.047 1.053-.059 1.39-.059 4.075s.012 3.021.06 4.075a7.265 7.265 0 00.459 2.4 5.059 5.059 0 002.891 2.892 7.26 7.26 0 002.4.459c1.054.048 1.391.06 4.076.06s3.021-.012 4.075-.06a7.265 7.265 0 002.4-.459 5.065 5.065 0 002.891-2.892 7.327 7.327 0 00.459-2.4c.047-1.054.06-1.391.06-4.075s-.012-3.022-.06-4.076a7.324 7.324 0 00-.459-2.4 5.057 5.057 0 00-2.891-2.891 7.277 7.277 0 00-2.4-.459c-1.054-.048-1.39-.06-4.076-.06zm-.886 1.781h.887c2.639 0 2.952.009 3.994.057a5.473 5.473 0 011.835.34 3.275 3.275 0 011.876 1.876 5.462 5.462 0 01.34 1.835c.047 1.042.058 1.355.058 3.993s-.01 2.951-.058 3.993a5.467 5.467 0 01-.34 1.835 3.278 3.278 0 01-1.876 1.875 5.453 5.453 0 01-1.835.341c-1.042.047-1.355.058-3.994.058s-2.952-.01-3.994-.058a5.484 5.484 0 01-1.836-.341 3.275 3.275 0 01-1.877-1.876 5.462 5.462 0 01-.34-1.835c-.047-1.042-.057-1.355-.057-3.995s.009-2.951.057-3.993a5.473 5.473 0 01.34-1.835 3.276 3.276 0 011.877-1.877 5.461 5.461 0 011.836-.341c.912-.041 1.265-.054 3.108-.056zm6.163 1.641a1.186 1.186 0 101.186 1.186 1.186 1.186 0 00-1.186-1.186zm-5.277 1.386a5.076 5.076 0 105.076 5.076 5.077 5.077 0 00-5.076-5.076zm0 1.781a3.3 3.3 0 11-3.3 3.3 3.3 3.3 0 013.3-3.299z" fill="#fff"/><path d="M41.9 1.094a8.951 8.951 0 00-4.767 6.011c-.858 3.665 2.71 5.212 3 4.707.343-.6-.641-.8-.842-2.7a8 8 0 012.319-6.406c.268-.22.255.091.255.663 0 1.033-.058 10.276-.058 12.205a16.8 16.8 0 01-.3 4.247c-.194.826-.508 1.383-.272 1.6.268.239 1.408-.331 2.068-1.253A6.892 6.892 0 0044.42 16.3c.058-1.735.055-4.493.058-6.063 0-1.444.023-5.665-.023-8.207-.012-.63-1.741-1.277-2.555-.936m89.85 13.713c-.279 0-.411.292-.518.781-.369 1.706-.757 2.091-1.259 2.091-.56 0-1.062-.844-1.194-2.535a56.968 56.968 0 01.045-6.209c.026-.5-.11-.993-1.451-1.482-.579-.207-1.418-.518-1.835.492a25.121 25.121 0 00-1.752 6.028c0 .048-.061.055-.071-.055a47.555 47.555 0 01-.242-4.883 1.468 1.468 0 00-.729-1.4c-.392-.246-1.583-.686-2.014-.165a11.2 11.2 0 00-1.249 2.933c-.363 1.107-.615 1.858-.615 1.858s0-2.985.01-4.119a.584.584 0 00-.379-.6 7.924 7.924 0 00-1.515-.307c-.411 0-.508.23-.508.563 0 .042-.068 3.926-.068 6.643v.382c-.224 1.25-.961 2.946-1.761 2.946s-1.179-.709-1.179-3.946c0-1.888.058-2.71.084-4.076.016-.787.048-1.392.045-1.531-.007-.418-.735-.632-1.072-.709a3.234 3.234 0 00-.867-.1.541.541 0 00-.554.532V8.4a3.1 3.1 0 00-1.548-1.253 2.981 2.981 0 00-3.432 1.294 7.868 7.868 0 00-1.392 3.989 11.707 11.707 0 00.145 3.623c-.285 1.22-.809 1.722-1.382 1.722-.836 0-1.437-1.36-1.369-3.714a21.479 21.479 0 01.7-4.2 1.365 1.365 0 00-.268-1.36 1.7 1.7 0 00-1.67-.272c-.587.139-1.431.288-2.2.4a4.779 4.779 0 00.084-.512c.2-1.713-1.664-1.574-2.257-1.026a2.1 2.1 0 00-.689 1.4 1.656 1.656 0 00.751 1.619 16.649 16.649 0 01-1.761 4.38 18.514 18.514 0 01-1.1 1.722v-.6c-.007-2.833.029-5.063.045-5.866.016-.787.049-1.376.049-1.515-.007-.3-.185-.424-.56-.567a4.05 4.05 0 00-1.126-.256c-.508-.038-.819.233-.809.554V8.4a3.132 3.132 0 00-1.544-1.253 2.983 2.983 0 00-3.435 1.294 8.6 8.6 0 00-1.4 3.972 12.177 12.177 0 00.075 3.413c-.194.951-.748 1.949-1.375 1.949-.8 0-1.257-.709-1.257-3.946 0-1.888.058-2.71.088-4.076.016-.787.045-1.392.042-1.531 0-.418-.731-.632-1.071-.709a3.242 3.242 0 00-.894-.1.578.578 0 00-.527.512V8.4a3.124 3.124 0 00-1.548-1.253 2.989 2.989 0 00-3.428 1.294 7.533 7.533 0 00-1.4 3.957 14.28 14.28 0 00-.1 1.729c-.25 1.528-1.353 3.289-2.253 3.289-.531 0-1.036-1.023-1.036-3.208 0-2.907.181-7.051.213-7.452l1.363-.023c.567 0 1.085.01 1.839-.029.382-.019.748-1.382.353-1.554A13.607 13.607 0 0072.086 5c-.42-.01-1.583-.1-1.583-.1s.1-2.749.127-3.037c.019-.246-.292-.369-.473-.444a6.279 6.279 0 00-1.289-.364c-.644-.132-.932 0-.987.537-.084.82-.13 3.222-.13 3.222-.473 0-2.075-.095-2.545-.095-.436 0-.91 1.878-.3 1.9.7.026 1.9.052 2.706.074 0 0-.036 4.213-.036 5.51v.4a6.377 6.377 0 01-1.994 3.545A3.463 3.463 0 0064 12.518a92.89 92.89 0 00-2.347-1.771 6.083 6.083 0 001.097-1.719c.363-.813.379-1.748-.514-1.952a2.671 2.671 0 00-3.056 1.9 2.2 2.2 0 00.421 2.25l.126.156c-.33.641-.79 1.5-1.175 2.175-1.078 1.862-1.891 3.332-2.5 3.332-.492 0-.486-1.493-.486-2.891 0-1.2.091-3.02.162-4.9a1.371 1.371 0 00-.809-1.3 3.641 3.641 0 00-1.383-.576c-.582 0-2.273.077-3.868 4.691-.2.583-.6 1.642-.6 1.642l.032-5.54a.385.385 0 00-.226-.34 3.967 3.967 0 00-1.625-.443c-.308 0-.46.143-.46.424l-.051 8.676a12.834 12.834 0 00.084 1.768 1.875 1.875 0 00.3.777.893.893 0 00.527.337c.23.049 1.5.207 1.561-.275a18.1 18.1 0 01.748-3.544c1.036-3.639 2.383-5.413 3.018-6.045.113-.11.239-.117.233.065-.029.8-.123 2.791-.187 4.484-.171 4.536.65 5.374 1.832 5.374.9 0 2.169-.9 3.532-3.162.851-1.415 1.674-2.8 2.269-3.8.408.381.874.793 1.337 1.233a2.975 2.975 0 011.195 2.911c-.178.705-.855 1.43-2.056.725-.35-.2-.5-.363-.851-.6a.6.6 0 00-.651-.032 2.319 2.319 0 00-.858 1.3c-.139.521.382.793.923 1.032a7.008 7.008 0 002.1.418c2.483.084 4.471-1.2 5.853-4.5.25 2.852 1.3 4.468 3.131 4.468 1.227 0 2.454-1.583 2.992-3.14a5.489 5.489 0 00.676 1.655c1.412 2.233 4.15 1.755 5.523-.143a3.577 3.577 0 00.493-.8 2.591 2.591 0 002.47 2.421 2.729 2.729 0 002.55-1.949 4.326 4.326 0 00.263.47c1.408 2.233 4.147 1.755 5.523-.143.062-.094.12-.171.168-.246l.043 1.178s-.787.719-1.269 1.162c-2.12 1.946-3.733 3.422-3.852 5.138a2.908 2.908 0 002.972 3.111 3.78 3.78 0 003.4-1.78 10.134 10.134 0 001.063-5.125c-.013-.829-.033-1.877-.052-3.007A23.312 23.312 0 0096.1 14.84a24.1 24.1 0 002.2-4.727s.787.007 1.622-.045c.269-.016.346.039.294.233-.058.236-1.055 4.086-.145 6.65a3.215 3.215 0 002.862 2.321 2.836 2.836 0 002.4-1.832c.062.12.123.239.195.35 1.408 2.233 4.137 1.751 5.523-.143a5.516 5.516 0 00.489-.8 2.688 2.688 0 002.567 2.428c.864 0 1.68-.353 2.344-1.92a6.8 6.8 0 00.139 1.431c.042.11.288.246.463.314a3.533 3.533 0 001.887.091c.207-.042.369-.2.389-.631a25.135 25.135 0 01.362-4.4 12.976 12.976 0 011.356-3.7c.14-.253.3-.295.3-.029.01.541.039 2.127.262 4.264a9.59 9.59 0 00.544 2.791 1.533 1.533 0 001.538.877c.3 0 .939-.084.884-.619a17 17 0 01.58-4.179 20.513 20.513 0 011.2-3.374c.084-.184.12-.042.12-.013a30.319 30.319 0 00.268 6.3c.577 2.522 2.237 2.8 2.817 2.8 1.233 0 2.247-.939 2.587-3.412.084-.6-.039-1.056-.4-1.056m-51.758-1.531a8.043 8.043 0 01-.731 3.2c-.745 1.441-2.211 1.894-2.856-.181a11.051 11.051 0 01-.113-4.649c.285-1.638 1.007-2.8 2.133-2.69 1.152.114 1.716 1.6 1.567 4.326m11.3.019a8.873 8.873 0 01-.735 3.176c-.722 1.45-2.231 1.9-2.856-.181a10.434 10.434 0 01-.113-4.429c.276-1.508.939-2.911 2.134-2.911 1.162 0 1.735 1.276 1.57 4.345m.295 8.43c-.016 2.257-.369 4.232-1.127 4.808a1.365 1.365 0 01-2.233-1.444c.265-1.457 1.525-2.943 3.364-4.759 0 0 .006.414 0 1.4m19.5-8.417a8.013 8.013 0 01-.738 3.163c-.722 1.45-2.218 1.9-2.856-.181a11.772 11.772 0 01-.113-4.617c.252-1.613.962-2.83 2.133-2.723s1.7 1.6 1.574 4.358" fill="#231e1f"/></g></svg>