<svg xmlns="http://www.w3.org/2000/svg" width="231.864" height="181.424" viewBox="0 0 231.864 181.424"><defs><linearGradient id="a" y1=".5" x2="1" y2=".5" gradientUnits="objectBoundingBox"><stop offset="0" stop-color="gray" stop-opacity=".251"/><stop offset=".54" stop-color="gray" stop-opacity=".122"/><stop offset="1" stop-color="gray" stop-opacity=".102"/></linearGradient></defs><g transform="translate(.004 -.003)"><ellipse data-name="Ellipse 38782" cx="40.445" cy="7.662" rx="40.445" ry="7.662" transform="translate(40.885 162.59)" fill="#f0f0f0"/><path data-name="Path 6217" d="M134.711 25.588c-14.864-.518-29.021-5.318-42.541-10.565S65.262 3.957 50.753 1.176c-9.332-1.789-20-2.044-27.522 2.954-7.237 4.823-9.575 13.126-10.831 20.836-.946 5.8-1.5 11.909 1.089 17.34 1.8 3.771 4.993 6.941 7.2 10.553 7.687 12.568 2.253 28.066-6.075 40.337-3.9 5.756-8.44 11.254-11.456 17.375s-4.41 13.158-1.771 19.419c2.614 6.2 8.845 10.85 15.595 14.123 13.709 6.649 29.857 8.551 45.615 9.63 34.871 2.384 69.926 1.353 104.889.317 12.94-.381 25.935-.769 38.663-2.77 7.069-1.112 14.366-2.875 19.5-7.134 6.514-5.4 8.128-14.554 3.762-21.33-7.322-11.369-27.561-14.191-32.685-26.389-2.816-6.716.076-14.194 4.171-20.42 8.783-13.36 23.5-25.08 24.276-40.349.533-10.487-6.543-20.99-17.485-25.953-11.467-5.2-27.372-4.548-35.829 4.063-8.712 8.857-24.022 12.267-37.148 11.81z" fill="#f0f0f0"/><path data-name="Path 6218" d="M389.807 212.151l-7.035-4.743 3.548-5.282-18.581-1.481-6.677 5.163-8.358-4.685-6.971.838-.083-1.837a51.864 51.864 0 00-.576-5.719c.03-.574.051-1.233.048-1.95 0-3.02-.409-7.023-2.2-9.692l.413-3.716-3.353-3.962a25.345 25.345 0 011.837-3.091c.115-.165.23-.326.354-.482a8.339 8.339 0 007.786-8.268 5.3 5.3 0 00-.023-.6 2.194 2.194 0 00-.025-.243c.425.23.854.459 1.284.689.08.115.172.23.273.365l.021.025.129.158.041.048c.046.055.094.108.142.163l.032.037c.122.136.25.273.388.409a.411.411 0 01.046.044l.172.161.048.044c.147.131.3.257.459.377l.051.037.2.136.064.041c.076.046.154.094.23.138l.028.016c.09.048.181.094.273.138l.046.018.23.1.071.025c.08.028.159.053.241.076l.051.014c.1.025.2.046.305.062h.011a2.5 2.5 0 00.294.03h.067a2.526 2.526 0 00.264 0h.057a2.725 2.725 0 00.328-.039 3.624 3.624 0 001.447-.519 1.264 1.264 0 00.294-.273 1.083 1.083 0 00-.046-1.261c-.179-.427-1.341-.728-1.341-.728s-3.675-1.534-3.675-2.756-.919-7.561-10.4-9.01c0 0-6.169-.347-7.9 2.956l-.037.386c-.51.319-.932.96-1.435 1.148a2.345 2.345 0 00-.622.23v-.044a.592.592 0 00-.14.181 1.838 1.838 0 00-.191.689 2.594 2.594 0 01-.3.834 1.854 1.854 0 01-.138.211l-.039.062a1.676 1.676 0 00.781-.126 3.887 3.887 0 01-.23.919.762.762 0 00.707-.423v-.018l.03-.041a1.937 1.937 0 00.142-.333l-.025.028c.046-.149.087-.3.138-.448a.7.7 0 01.113-.23.556.556 0 01.475-.158l-.094 1.991h.041a2.722 2.722 0 01-.2.418c-.326.528-.919.889-1.137 1.468a2.159 2.159 0 00-.106.868c0 .172.021.347.034.519v-.014a1.937 1.937 0 01-.207 1.265c-.17.253-.443.443-.537.73a.711.711 0 00-.034.248 2.786 2.786 0 00.156.737.032.032 0 000-.014 1.121 1.121 0 01.039.542c-.1.459-.661.843-.634 1.282a.493.493 0 00.025.17.93.93 0 00.519.459 2.021 2.021 0 001.167.257 1.535 1.535 0 00.436-.149c-.161.37-.326.735-.494 1.082-.025.055-.053.11-.08.165 0 0-1.419-.949-2.226.985a4.29 4.29 0 00-.5 1.3 3.078 3.078 0 01-.17.533 3.429 3.429 0 01-1.534 1.378c-1.644.753-8.287 9.038-8.4 11.183a12.511 12.511 0 01-.423 2.476 14.734 14.734 0 00-.395 5.854 11.2 11.2 0 00.406 1.867 41.839 41.839 0 011.176 6.141l.763 6.941a19.747 19.747 0 00.124 2.869c-.779.889-3.9 4.593-2.71 5.6.919.795 2.526.664 3.429.5a29.182 29.182 0 00-2.115 7.4c-.23 3.323.393 7.726 1.378 9.417s4.27 6.027 4.27 6.027-.154 5.949 1.02 8.11 1.647 6.644 1.647 6.644 1.1 3.785.547 5.177 1.017 2.549-.627 3.475-3.748 21.787-3.748 21.787-.847 13.672 0 14.368a.865.865 0 00.145.085v4.593s-.588.965 1.8 1.16c1.638.131 6.279.427 9.033.6l2.134.133s5.053 1.006 7.285 0 6.19-.983 5.6-3.64a7.556 7.556 0 00-.312-1.063c-.645-1.649-1.741-1.837-3.76-2.3-.117-.025-.23-.048-.333-.067-2.127-.37-2.825.62-4.017-.668-1.036-1.114-4.334-2.361-5.457-2.756.028-.083.062-.163.09-.248a1.681 1.681 0 01-.852-.416l3.043.193 1.812.113s4.295.857 6.2 0 5.259-.834 4.759-3.091a6.487 6.487 0 00-.264-.9c-.549-1.4-1.481-1.555-3.2-1.943-.1-.021-.191-.041-.282-.057-1.807-.315-2.4.526-3.413-.567-.868-.932-3.608-1.977-4.593-2.333 0-.51-.689-1.236-1.123-1.964-.51-.85.432-3.824.432-3.824l.537-12.34a2.384 2.384 0 01.643-.184s2.43-2.32 1.881-4.791a15.884 15.884 0 01-.175-2.258 11.6 11.6 0 002.212-2.513c.51-1.1 0-6.431 0-6.431v-20.402l4.065.411 3.689.379 1.123.115 3.689.372 8.477.857 7.639-1.447 3.3-.625 6.8-1.286v-16.629zm-55.951-55.1l-.473-.051c.156.007.317.037.473.051z" transform="translate(-266.908 -129.067)" fill="url(#a)"/><path data-name="Path 6219" d="M106.411 93.881c-2.3 3.287-10.553 1.546-10.553 1.546l-6.4-5.988-.861-.811 1.445-3.068s.459.126 1.247.351c4.137 1.199 17.061 5.207 15.122 7.97z" fill="#efb7b9"/><path data-name="Path 6220" d="M91.285 85.91a13.472 13.472 0 01-1.826 3.528l-.861-.811 1.445-3.068s.464.127 1.242.351z" opacity=".1"/><path data-name="Path 6221" d="M69.335 51.313s-5.9 2.616-5.609 9.04a105.911 105.911 0 001.35 12.347s-1.206 9.667 3.815 12.159 9.667 4.541 9.667 4.541 7.855.845 8.831 1.194 4.026-4.988 3.463-5.82-7.772-2.575-8.691-3.962a7.669 7.669 0 00-3.043-2.244s-2.193-1.328-2.343-2.526a5.453 5.453 0 01.576-2.618c.147-.526.519-5.6.519-5.6s2.482-18.083-8.535-16.511z" fill="#e5e6e8"/><path data-name="Path 6222" d="M73.232 72.432s-8.091 1.355-7.308 4.187a17.154 17.154 0 017.308-4.187z" opacity=".1"/><path data-name="Path 6223" d="M73.295 73.578s-4.449 3.631-3.578 3.817 3.578-3.817 3.578-3.817z" opacity=".1"/><path data-name="Path 6224" d="M75.433 74.844s-1.192 2.441-.459 2.276.459-2.276.459-2.276z" opacity=".1"/><path data-name="Path 6225" d="M91.583 86.171l-.491-.14a1.4 1.4 0 00.064-1c-.563-.831-7.767-2.572-8.684-3.962a7.629 7.629 0 00-3.043-2.244s-2.193-1.327-2.343-2.526a5.453 5.453 0 01.576-2.618c.147-.526.519-5.606.519-5.606s2.469-18.073-8.544-16.5c0 0-5.9 2.618-5.611 9.042a105.62 105.62 0 001.353 12.347s-1.206 9.667 3.815 12.159 9.667 4.541 9.667 4.541 7.852.843 8.831 1.194c.37.133 1.038-.553 1.693-1.5l.372.347 6.4 5.985s8.257 1.743 10.553-1.543c1.94-2.772-10.981-6.777-15.127-7.976z" opacity=".1"/><path data-name="Path 6226" d="M65.945 27.199a1.952 1.952 0 00-.636.246c-.23.191-.23.517-.287.8a2.637 2.637 0 01-.459 1.1 1.651 1.651 0 00.765-.126 3.936 3.936 0 01-.23.919.744.744 0 00.689-.42 4.422 4.422 0 00.287-.806.664.664 0 01.11-.23c.211-.25.6-.138.93-.106a1.527 1.527 0 001.4-.671c.347-.526.367-1.872-.459-2.014-.868-.144-1.405 1.046-2.11 1.308z" fill="#965d7b"/><g data-name="Group 4224" opacity=".1"><path data-name="Path 6227" d="M65.286 27.726c.021-.113.034-.23.06-.342a1.347 1.347 0 00-.287.8 2.532 2.532 0 01-.135.485 2.633 2.633 0 00.362-.943z"/><path data-name="Path 6228" d="M65.359 29.624a3.819 3.819 0 00.23-.919 1.645 1.645 0 01-.728.126 2.659 2.659 0 01-.264.459 1.635 1.635 0 00.763-.124 3.819 3.819 0 01-.23.919.747.747 0 00.689-.42 1.721 1.721 0 00.138-.328.689.689 0 01-.6.287z"/><path data-name="Path 6229" d="M67.376 28.062c-.326-.032-.721-.145-.932.106a.708.708 0 00-.11.23c-.021.06-.039.122-.055.184.218-.172.572-.08.868-.051a1.534 1.534 0 001.4-.671 1.271 1.271 0 00.154-.361 1.53 1.53 0 01-1.321.563z"/></g><path data-name="Path 6230" d="M72.858 46.167l3.5 4.212-.457 4.251-4.233-6.626z" fill="#e5e6e8"/><path data-name="Path 6231" d="M76.359 50.379l-.43 4-.028.253-3.819-5.981-.411-.645.119-.186 1.066-1.653.237.285z" opacity=".1"/><path data-name="Path 6232" d="M78.177 40.464a7.022 7.022 0 00-3.3 2.924 24.958 24.958 0 00-1.782 3.064c-.324.648-.609 1.27-.845 1.812l-.165.386c-.4.944-.622 1.576-.622 1.576s-9.072-6.821-7.637-7.281c.482-.154 1.116-1.187 1.743-2.49l.078-.165c.4-.836.788-1.769 1.135-2.646.71-1.8 1.236-3.369 1.236-3.369s13.776 5.155 10.159 6.189z" fill="#efb7b9"/><path data-name="Path 6233" d="M83.604 33.891s2.095 3.79 4.908 3.273 1.656-2.035 1.656-2.035z" fill="#444053"/><path data-name="Path 6234" d="M79.544 165.068c-1.856.847-6.052 0-6.052 0l-1.768-.11c-2.3-.147-6.141-.395-7.5-.505-1.984-.163-1.5-.976-1.5-.976v-4.913l9.628-2.439s3.806 1.3 4.848 2.439c.99 1.084 1.569.25 3.335.563.087.016.179.034.276.057 1.677.384 2.586.535 3.124 1.925a6.455 6.455 0 01.259.9c.499 2.233-2.795 2.217-4.65 3.059z" fill="#a36468"/><path data-name="Path 6235" d="M83.937 161.109a7.2 7.2 0 01-1.084.556c-1.263.576-2.464 1.279-3.741 1.824a8.752 8.752 0 01-4.035.829 6.018 6.018 0 00-2.154-.023 4.976 4.976 0 00-1.2.664c-2.3-.147-6.141-.395-7.5-.505-1.984-.163-1.5-.976-1.5-.976v-.574c.071 0 .152-.021.243-.028a4.337 4.337 0 011.4.209c1 .271 1.989.537 2.986.8a2.359 2.359 0 011.148-1.465 3.662 3.662 0 011.851-.425c1.546.021 3.009.753 4.552.827a2.507 2.507 0 001.261-.211c.211-.106.4-.26.6-.377a4.409 4.409 0 011.04-.351 22.914 22.914 0 002.974-.96c.276-.108.6-.3.56-.6-.048-.39-.661-.436-.822-.795a.459.459 0 01.018-.406c.087.016.179.034.276.057 1.68.388 2.59.54 3.127 1.93z" opacity=".1"/><path data-name="Path 6236" d="M77.585 175.817c-2.182 1-7.12 0-7.12 0l-2.079-.122c-2.692-.172-7.225-.459-8.826-.595-2.336-.193-1.762-1.148-1.762-1.148v-5.79l11.33-2.871s4.479 1.532 5.705 2.871c1.164 1.275 1.837.294 3.925.661.1.018.211.041.324.067 1.973.459 3.043.632 3.675 2.267a7.372 7.372 0 01.306 1.054c.569 2.632-3.296 2.611-5.478 3.606z" fill="#a36468"/><path data-name="Path 6237" d="M82.753 171.157a8.543 8.543 0 01-1.275.654c-1.486.678-2.9 1.5-4.4 2.145a10.322 10.322 0 01-4.75.976 6.928 6.928 0 00-2.526-.028 5.857 5.857 0 00-1.412.79c-2.692-.172-7.225-.459-8.826-.595-2.336-.193-1.762-1.148-1.762-1.148v-.675q.143-.023.287-.032a5.036 5.036 0 011.649.246l3.512.946a2.779 2.779 0 011.362-1.725 4.286 4.286 0 012.18-.5c1.819.025 3.539.887 5.356.974a2.965 2.965 0 001.479-.246c.25-.126.459-.308.712-.443a5 5 0 011.224-.413 27.518 27.518 0 003.482-1.13c.324-.129.7-.358.659-.7-.057-.459-.779-.515-.969-.937a.553.553 0 01.023-.478c.1.019.211.041.324.067 1.969.438 3.039.617 3.671 2.252z" opacity=".1"/><path data-name="Path 6238" d="M72.646 136.086l-.613 14.43s-.919 2.947-.42 3.79 1.339 1.683 1.034 2.182-3.98 5.886-5.168 3.82-2.359-11.024-2.359-11.024l1.1-11.063z" fill="#444053"/><path data-name="Path 6239" d="M75.306 100.133l1.7 2.278v19.816s.5 5.282 0 6.373a17.106 17.106 0 01-3.025 3.273l-2.124-10.909.459-11.541z" fill="#444053"/><path data-name="Path 6240" d="M72.646 136.086l-.613 14.43s-.919 2.947-.42 3.79 1.339 1.683 1.034 2.182-3.98 5.886-5.168 3.82-2.359-11.024-2.359-11.024l1.1-11.063z" opacity=".1"/><path data-name="Path 6241" d="M75.306 100.133l1.7 2.278v19.816s.5 5.282 0 6.373a17.106 17.106 0 01-3.025 3.273l-2.124-10.909.459-11.541z" opacity=".1"/><path data-name="Path 6242" d="M77.011 91.681V102.4l-1.913 8.344s-.613 20.135-.078 22.584-1.837 4.747-1.837 4.747-1.378.154-1.378 1.224-2.3 4.134-2.3 4.134l.076 5.971s1 11.178-.535 13.321.535 2.451.535 2.451c-1.913 6.277-11.1 4.823-11.929 4.134s0-14.24 0-14.24 2.053-20.671 3.661-21.589.078-2.067.613-3.445-.535-5.129-.535-5.129-.459-4.442-1.608-6.585-1-8.038-1-8.038-3.215-4.288-4.171-5.971-1.571-6.047-1.341-9.341a29.348 29.348 0 012.067-7.331c.356-.893.613-1.472.613-1.472l.218.057 12.545 3.284z" fill="#444053"/><path data-name="Path 6243" d="M78.177 40.464a7.022 7.022 0 00-3.3 2.924h-.257a8.2 8.2 0 01-7.12-4.118 8.079 8.079 0 01-.721-1.642c.71-1.8 1.236-3.369 1.236-3.369s13.779 5.171 10.162 6.205z" opacity=".1"/><path data-name="Path 6244" d="M82.827 34.722a8.211 8.211 0 11-15.361-4.024 8.025 8.025 0 01.868-1.254 8.309 8.309 0 011.893-1.662 8.211 8.211 0 0112.593 6.334c.001.206.007.406.007.606z" fill="#efb7b9"/><path data-name="Path 6245" d="M75.928 54.377l-.028.253-3.819-5.971c-.4.944-.622 1.576-.622 1.576s-9.072-6.83-7.637-7.29c.482-.154 1.116-1.187 1.743-2.49l.078-.165c.666 1.984 4.536 5.951 6.146 7.54.186.184.34.335.459.446l.246.23.129.129c.586.602 3.057 3.266 3.305 5.742z" opacity=".1"/><path data-name="Path 6246" d="M78.783 74.639l-.418 13.452-.073 2.4s-4.952-.459-9.573-.965a62.353 62.353 0 01-7.768-1.1 14.618 14.618 0 00-3.33-.733c-.9-.122-1.608-.186-1.608-.186s-.264.078-.671.152c-.887.161-2.444.292-3.351-.5-1.16-1.008 1.888-4.672 2.648-5.551l.168-.191-.287-2.653-.746-6.879a41.971 41.971 0 00-1.148-6.086 11.225 11.225 0 01-.4-1.849 14.809 14.809 0 01.386-5.8 12.652 12.652 0 00.413-2.455c.115-2.124 6.6-10.335 8.211-11.082a3.408 3.408 0 001.644-1.64 3.133 3.133 0 00.25-.714c.689-2.986 2.432-1.8 2.432-1.8.42 2.336 6.927 8.519 6.927 8.519l.129.129c.645.661 3.521 3.767 3.316 6.417a7.779 7.779 0 00.434 2.9 49.093 49.093 0 012.262 12.862z" fill="#e5e6e8"/><path data-name="Path 6247" d="M69.565 58.665s-1.608 3.9-2.813 4.536 3.387 1.332 2.813-4.536z" opacity=".1"/><path data-name="Path 6248" d="M70.771 65.958s-3.675.459-3.675 1.148 3.675-1.148 3.675-1.148z" opacity=".1"/><path data-name="Path 6249" d="M74.618 70.436s-5.34 11.369-6.833 11.713 6.833-11.713 6.833-11.713z" opacity=".1"/><path data-name="Path 6250" d="M72.392 49.55l-4.417 1.92-5.33-8.053a3.128 3.128 0 00.25-.714c.689-2.986 2.432-1.8 2.432-1.8.42 2.336 6.927 8.519 6.927 8.519z" opacity=".1"/><path data-name="Path 6251" d="M72.621 49.091l-4.417 1.92-5.33-8.053a3.133 3.133 0 00.25-.714c.689-2.986 2.432-1.8 2.432-1.8.42 2.336 6.927 8.519 6.927 8.519z" fill="#e5e6e8"/><path data-name="Path 6252" d="M78.292 90.486s-4.952-.459-9.573-.965l8.291 2.17v2.526c-.363.328-.678.5-.882.411-.955-.4-8.753-1.665-8.753-1.665s-4.529-2.3-9.417-5.053a3.773 3.773 0 01-.344-.216 5.429 5.429 0 01-1.447-1.449 10.285 10.285 0 01-1.534-4.633 20.031 20.031 0 01-.119-2.843 23.309 23.309 0 01.294-3.213 105.669 105.669 0 01-.689-12.4c.057-6.431 6.086-8.728 6.086-8.728 11.082-.976 7.646 16.938 7.646 16.938s-.641 5.053-.815 5.57a5.452 5.452 0 00-.717 2.584c.085 1.206 2.2 2.648 2.2 2.648a7.733 7.733 0 012.919 2.4c.62 1.059 4.649 2.494 6.925 3.519z" opacity=".1"/><path data-name="Path 6253" d="M82.003 29.624a2.6 2.6 0 01-.23 1.1 6.787 6.787 0 01-.409.818 3.766 3.766 0 01-1.006 1.249 5.146 5.146 0 01-1.837.639 2.659 2.659 0 00-1.661.942 3.294 3.294 0 00-.388 1.125 2.421 2.421 0 01-.459 1.089.9.9 0 01-1.075.257 1.086 1.086 0 01-.416-.535 7.674 7.674 0 01-.434-1.881 4 4 0 00-.645-1.8 1.614 1.614 0 00-1.695-.65 1.633 1.633 0 00-.919.891 5.111 5.111 0 00-.347 1.268q-.427 2.338-1.008 4.649a.427.427 0 01-.076.175.331.331 0 01-.23.1c-.514.069-1.008-.292-1.527-.253a.878.878 0 00-.158.025 8.206 8.206 0 01.829-9.371l.041-.011a2.476 2.476 0 00.919-.579 9.692 9.692 0 00.919-1.063l.184-.23a10.474 10.474 0 011.791-1.7 1.837 1.837 0 01.611-.331 1.81 1.81 0 01.579-.018 14.6 14.6 0 002.391.09 15.341 15.341 0 011.679-.17 5.168 5.168 0 013.613 2.193 3.4 3.4 0 01.964 1.982z" opacity=".1"/><path data-name="Path 6254" d="M66.395 30.914c-.319.524-.9.88-1.112 1.454-.317.834.218 1.872-.273 2.616-.163.25-.432.436-.524.723-.156.485.271 1 .161 1.5s-.767.919-.593 1.406a.919.919 0 00.505.459 1.975 1.975 0 001.148.255c.627-.1 1.093-.719 1.729-.765.517-.037 1.011.322 1.525.255a.344.344 0 00.23-.1.4.4 0 00.076-.175q.579-2.308 1.011-4.649a5.007 5.007 0 01.345-1.268 1.647 1.647 0 01.919-.891 1.62 1.62 0 011.695.65 3.978 3.978 0 01.648 1.8 7.776 7.776 0 00.432 1.881 1.1 1.1 0 00.418.537.9.9 0 001.073-.257 2.4 2.4 0 00.459-1.091 3.279 3.279 0 01.388-1.123 2.665 2.665 0 011.661-.942 5.2 5.2 0 001.837-.641 3.781 3.781 0 001.006-1.247 3.671 3.671 0 00.629-1.918 3.52 3.52 0 00-.942-1.987 5.162 5.162 0 00-3.615-2.191 14.29 14.29 0 00-1.679.17 14.37 14.37 0 01-2.391-.092 1.879 1.879 0 00-.579.021 1.732 1.732 0 00-.609.331 10.48 10.48 0 00-1.794 1.7 13.161 13.161 0 01-1.107 1.286 2.492 2.492 0 01-.919.581c-.23.064-.459.018-.678.09-.676.222-.762 1.106-1.08 1.622z" fill="#965d7b"/><path data-name="Path 6255" d="M88.512 37.162c-1.837.338-3.36-1.148-4.2-2.232a9.005 9.005 0 01-.705-1.038l6.307 1.19.255.048s1.157 1.517-1.657 2.032z" opacity=".1"/><g data-name="Group 4225" opacity=".1"><path data-name="Path 6256" d="M64.648 36.553a1.913 1.913 0 00-.133-.882c0 .023-.021.046-.028.069a1.709 1.709 0 00.119.946.685.685 0 00.042-.133z"/><path data-name="Path 6257" d="M65.194 32.793a5.1 5.1 0 00.018.953 5.119 5.119 0 00-.018-.953z"/><path data-name="Path 6258" d="M81.144 30.645a3.767 3.767 0 01-1.006 1.249 5.131 5.131 0 01-1.837.638 2.653 2.653 0 00-1.661.942 3.309 3.309 0 00-.388 1.125 2.4 2.4 0 01-.459 1.091.9.9 0 01-1.073.257 1.1 1.1 0 01-.418-.537 7.648 7.648 0 01-.432-1.881 3.968 3.968 0 00-.648-1.8 1.614 1.614 0 00-1.695-.65 1.64 1.64 0 00-.919.891 5.007 5.007 0 00-.345 1.268q-.429 2.34-1.011 4.649a.4.4 0 01-.076.175.345.345 0 01-.23.1c-.514.067-1.008-.292-1.525-.255-.636.046-1.1.661-1.729.763a1.941 1.941 0 01-1.148-.255 1.229 1.229 0 01-.42-.3.62.62 0 00-.085.535.9.9 0 00.505.459 1.941 1.941 0 001.148.255c.627-.1 1.093-.717 1.729-.763.517-.037 1.011.322 1.525.255a.344.344 0 00.23-.1.4.4 0 00.076-.175q.579-2.3 1.011-4.649a5.007 5.007 0 01.345-1.268 1.64 1.64 0 01.919-.891 1.616 1.616 0 011.695.65 3.978 3.978 0 01.648 1.8 7.777 7.777 0 00.432 1.881 1.1 1.1 0 00.418.537.9.9 0 001.073-.257 2.4 2.4 0 00.459-1.091 3.31 3.31 0 01.388-1.125 2.675 2.675 0 011.661-.942 5.238 5.238 0 001.837-.638 3.766 3.766 0 001.006-1.249 3.657 3.657 0 00.629-1.915 2.479 2.479 0 00-.023-.26 4.513 4.513 0 01-.606 1.481z"/></g><path data-name="Path 6259" d="M81.783 30.714a8.114 8.114 0 011.022 3.411c-2.046-1.148-3.971-2.409-4.943-2.848-1.693-.765-8.022-.65-10.4-.579a8.02 8.02 0 01.868-1.254 8.309 8.309 0 011.895-1.658 8.215 8.215 0 0111.571 2.924z" opacity=".1"/><path data-name="Path 6260" d="M89.086 36.188c-1.1.34-2.908-.317-4.777-1.259a9.005 9.005 0 01-.705-1.038l6.307 1.19c.418.284.523.691-.825 1.107z" opacity=".1"/><path data-name="Path 6261" d="M75.106 22.752s-6.029-.345-7.724 2.928l-.273 2.9-.459-.051-.092 1.973s9.214-.4 11.311.544 8.613 5.714 11.224 4.91-.23-1.55-.23-1.55-3.594-1.523-3.594-2.717-.891-7.502-10.163-8.937z" fill="#444053"/><path data-name="Path 6262" d="M63.478 130.284s3.847 3.732 5.512 3.445c0 0-4.708-.402-5.512-3.445z" opacity=".1"/><path data-name="Path 6263" d="M62.674 132.014s.345 1.92 1.263 1.732-1.263-1.732-1.263-1.732z" opacity=".1"/><path data-name="Path 6264" d="M68.704 164.103s-5.462 4.249-4.541 4.364 4.541-4.364 4.541-4.364z" opacity=".1"/><path data-name="Path 6265" d="M76.009 79.775l17.685-2.878V93.64l-16.8-.88z" fill="#ff505c"/><path data-name="Path 6266" d="M76.009 79.775l17.685-2.878V93.64l-16.8-.88z" opacity=".05"/><path data-name="Path 6267" d="M93.694 76.897l21.208 1.587-1.174 14.57-20.034.586z" fill="#ff505c"/><path data-name="Path 6268" d="M93.694 76.897l21.208 1.587-1.174 14.57-20.034.586z" opacity=".1"/><path data-name="Path 6269" d="M100.214 71.787l-6.52 5.11 21.208 1.587 3.466-5.23z" fill="#ff505c"/><path data-name="Path 6270" d="M69.606 74.193l15.92-1.938 8.167 4.642-17.685 2.878z" fill="#ff505c"/><path data-name="Path 6271" d="M97.571 81.245v22.891l-8.284-.85-3.6-.367-1.1-.115-3.6-.37-4.975-.51V79.775l17.682 1.2z" fill="#ff505c"/><path data-name="Path 6272" d="M114.902 78.484v22.324l-6.64 1.275-3.229.62-7.462 1.433V81.245z" fill="#ff505c"/><path data-name="Path 6273" d="M114.902 78.484v22.324l-6.64 1.275-3.229.62-7.462 1.433V81.245z" opacity=".05"/><path data-name="Path 6274" d="M69.606 84.593l6.4-4.819 21.562 1.47-3.174 5.347z" fill="#ff505c"/><path data-name="Path 6275" d="M69.606 84.593l6.4-4.819 21.562 1.47-3.174 5.347z" fill="#fff" opacity=".1"/><path data-name="Path 6276" d="M114.902 78.484l-17.331 2.761 5.641 5.053 18.564-3.114z" fill="#ff505c"/><path data-name="Path 6277" d="M114.902 78.484l-17.331 2.761 5.641 5.053 18.564-3.114z" fill="#fff" opacity=".1"/><path data-name="Path 6278" d="M108.262 102.083l-3.229.62v-4.77l3.025-.763z" fill="#fff" opacity=".1"/><path data-name="Path 6279" d="M89.287 100.131v3.156l-3.6-.367v-2.789z" fill="#fff" opacity=".1"/><path data-name="Path 6280" d="M84.585 101.125v1.679l-3.6-.37v-1.309z" fill="#fff" opacity=".1"/><path data-name="Path 6281" d="M95.402 98.456c-2.469 3.158-10.622.976-10.622.976l-6.059-6.321-.822-.857 1.608-2.986s.459.152 1.227.418c4.06 1.42 16.745 6.112 14.668 8.77z" opacity=".1"/><path data-name="Path 6282" d="M95.173 97.997c-2.469 3.158-10.622.976-10.622.976l-6.059-6.321-.822-.857 1.608-2.986s.459.152 1.226.418c4.061 1.42 16.746 6.113 14.669 8.77z" fill="#efb7b9"/><path data-name="Path 6283" d="M80.495 89.228a13.577 13.577 0 01-2.012 3.424l-.822-.857 1.608-2.986s.461.153 1.226.419z" opacity=".1"/><path data-name="Path 6284" d="M60.435 53.509s-6.029 2.3-6.086 8.728a105.682 105.682 0 00.689 12.4s-1.723 9.589 3.158 12.345 9.417 5.053 9.417 5.053 7.8 1.263 8.755 1.665 4.286-4.766 3.769-5.627-7.616-2.986-8.459-4.421a7.649 7.649 0 00-2.919-2.4s-2.118-1.445-2.2-2.65a5.425 5.425 0 01.717-2.584c.177-.517.818-5.57.818-5.57s3.423-17.927-7.659-16.939z" fill="#e5e6e8"/><path data-name="Path 6285" d="M63.191 74.8s-8.153.919-7.522 3.79a17.152 17.152 0 017.522-3.79z" opacity=".1"/><path data-name="Path 6286" d="M63.192 75.948s-4.628 3.388-3.778 3.617 3.778-3.617 3.778-3.617z" opacity=".1"/><path data-name="Path 6287" d="M65.259 77.326s-1.321 2.375-.574 2.251.574-2.251.574-2.251z" opacity=".1"/><path data-name="Path 6288" d="M150.15 25.815s-8.728-.526-7.708 5.6a1.494 1.494 0 00.776 1.573s.016-.459.9-.3a4.023 4.023 0 00.949.046 1.968 1.968 0 001.162-.48s2.455-1.013 3.411-5.028c0 0 .707-.877.689-1.1l-1.475.632a2.642 2.642 0 01.106 1.948s-.046-1.909-.331-1.865c-.057 0-.765.37-.765.37a4.356 4.356 0 01.211 3.2s.248-2.283-.482-3.066l-1.038.606a4.582 4.582 0 01.326 3.475s.177-2.4-.544-3.328l-.942.733s.953 1.888.372 3.183c0 0-.076-2.788-.576-3a5.681 5.681 0 00-.946 1.024s.65 1.378.246 2.092c0 0-.248-1.858-.459-1.867a6.182 6.182 0 00-.9 2.067 4.468 4.468 0 01.705-2.191 2.46 2.46 0 00-1.254.65s.126-.87 1.456-.946a6.279 6.279 0 01.859-.992 5.386 5.386 0 00-2.125.246 2.407 2.407 0 012.368-.459l.919-.758a7.925 7.925 0 00-2.48.025 3.019 3.019 0 012.731-.2l1.011-.6a9.074 9.074 0 00-2.368-.2 3.633 3.633 0 012.664.041l.723-.324s-1.089-.214-1.406-.248-.335-.122-.335-.122a3.757 3.757 0 012.042.23 9.014 9.014 0 001.508-.667z" fill="#ff505c"/><path data-name="Path 6289" d="M176.668 56.44s-8.727-.526-7.708 5.6a1.494 1.494 0 00.776 1.573s.016-.459.9-.3a4.022 4.022 0 00.949.046 1.966 1.966 0 001.148-.478s2.457-1.015 3.413-5.03c0 0 .705-.875.678-1.1l-1.475.629a2.65 2.65 0 01.108 1.948s-.048-1.909-.331-1.865c-.057 0-.767.37-.767.37a4.355 4.355 0 01.214 3.2s.248-2.283-.485-3.066l-1.027.6a4.581 4.581 0 01.326 3.475s.177-2.4-.544-3.328l-.939.735s.951 1.886.372 3.181c0 0-.076-2.788-.576-3a5.761 5.761 0 00-.949 1.024s.652 1.378.248 2.092c0 0-.248-1.858-.459-1.867a6.183 6.183 0 00-.9 2.067 4.482 4.482 0 01.707-2.191 2.472 2.472 0 00-1.256.65s.129-.87 1.458-.946a5.735 5.735 0 01.859-.992 5.385 5.385 0 00-2.124.246 2.386 2.386 0 012.366-.448l.919-.758a7.927 7.927 0 00-2.48.025 3.019 3.019 0 012.731-.2l1.011-.6a9.2 9.2 0 00-2.37-.2 3.641 3.641 0 012.667.041l.723-.324s-1.089-.214-1.408-.248-.335-.122-.335-.122a3.765 3.765 0 012.044.23 9.268 9.268 0 001.516-.669z" fill="#e5e6e8"/><path data-name="Path 6290" d="M123.647 51.004s2.01-8.519-4.2-8.548a1.492 1.492 0 00-1.681.5s.443.094.142.935a4.083 4.083 0 00-.207.919 1.973 1.973 0 00.273 1.224s.581 2.6 4.364 4.221c0 0 .744.845.969.854l-.368-1.559a2.639 2.639 0 01-1.938-.23s1.89.278 1.892 0c0-.057-.23-.818-.23-.818a4.36 4.36 0 01-3.19-.338s2.207.634 3.105.048l-.413-1.13a4.584 4.584 0 01-3.482-.271s2.331.583 3.374.032l-.563-1.052s-2.021.616-3.2-.177c0 0 2.756.4 3.055-.055a5.7 5.7 0 00-.848-1.109s-1.461.409-2.1-.113c0 0 1.872.071 1.916-.126a6.191 6.191 0 00-1.89-1.247 4.5 4.5 0 012.042 1.07 2.478 2.478 0 00-.427-1.348s.836.276.689 1.608a5.718 5.718 0 01.829 1.015 5.4 5.4 0 00.12-2.136 2.387 2.387 0 01.039 2.409l.588 1.045a7.622 7.622 0 00.4-2.448 3.011 3.011 0 01-.271 2.724l.425 1.1a9.2 9.2 0 00.6-2.3 3.631 3.631 0 01-.5 2.621l.2.767s.4-1.036.482-1.344.177-.31.177-.31a3.763 3.763 0 01-.572 1.975 9.123 9.123 0 00.399 1.592z" fill="#e5e6e8"/><path data-name="Path 6291" d="M104.534 53.907s-7.01-5.243-9.515.436a1.5 1.5 0 00-.216 1.741s.262-.37.919.243a4.022 4.022 0 00.767.56 1.971 1.971 0 001.233.23s2.609.5 5.613-2.324c0 0 1.073-.344 1.174-.547l-1.582-.278a2.654 2.654 0 01-.981 1.686s1.008-1.621.746-1.739c-.053-.025-.843-.115-.843-.115a4.358 4.358 0 01-1.58 2.79s1.463-1.771 1.282-2.827l-1.2-.064a4.581 4.581 0 01-1.638 3.085s1.463-1.9 1.378-3.08l-1.19.1s-.241 2.1-1.438 2.859c0 0 1.468-2.37 1.167-2.82a5.772 5.772 0 00-1.355.333s-.209 1.5-.944 1.883c0 0 .815-1.688.65-1.805a6.174 6.174 0 00-1.9 1.233 4.485 4.485 0 011.8-1.442 2.474 2.474 0 00-1.406-.147s.583-.657 1.736.011a5.8 5.8 0 011.263-.356 5.374 5.374 0 00-1.911-.962 2.391 2.391 0 012.226.919l1.192-.122a7.867 7.867 0 00-2.085-1.341s1.109-.14 2.389 1.334l1.176.053a9.166 9.166 0 00-1.865-1.475 3.632 3.632 0 012.2 1.5l.783.126s-.792-.776-1.04-.978-.214-.287-.214-.287a3.773 3.773 0 011.582 1.314 9.286 9.286 0 001.627.273z" fill="#e5e6e8"/><path data-name="Path 6292" d="M127.875 5.191s-7.01-5.246-9.515.436a1.5 1.5 0 00-.216 1.741s.262-.37.919.243a4.085 4.085 0 00.769.558 1.968 1.968 0 001.233.23s2.609.5 5.613-2.327c0 0 1.073-.342 1.171-.547l-1.582-.273a2.642 2.642 0 01-.981 1.686s1.011-1.621.749-1.739c-.053-.025-.843-.115-.843-.115a4.377 4.377 0 01-1.589 2.791s1.461-1.771 1.282-2.827l-1.2-.064a4.585 4.585 0 01-1.638 3.082s1.463-1.9 1.378-3.08l-1.187.1s-.243 2.1-1.44 2.862c0 0 1.47-2.37 1.169-2.82a5.774 5.774 0 00-1.355.333s-.209 1.5-.944 1.883c0 0 .815-1.688.65-1.808a6.2 6.2 0 00-1.9 1.236 4.465 4.465 0 011.8-1.442 2.457 2.457 0 00-1.408-.147s.586-.657 1.739.011a5.672 5.672 0 011.263-.356 5.4 5.4 0 00-1.911-.965 2.4 2.4 0 012.223.919l1.192-.122a7.875 7.875 0 00-2.085-1.344s1.109-.138 2.391 1.337l1.176.051a9.074 9.074 0 00-1.867-1.472 3.633 3.633 0 012.2 1.5l.781.126s-.795-.767-1.043-.965-.214-.285-.214-.285a3.767 3.767 0 011.582 1.314 9.916 9.916 0 001.638.259z" fill="#e5e6e8"/><path data-name="Path 6293" d="M154.656 11.835s-2.8-8.293-8.087-5.034a1.51 1.51 0 00-1.164 1.315s.425-.156.613.717a4.136 4.136 0 00.315.9 1.989 1.989 0 00.882.893s1.865 1.895 5.944 1.268c0 0 1.077.326 1.275.214l-1.148-1.128a2.642 2.642 0 01-1.764.831s1.752-.763 1.608-1.008c-.03-.048-.629-.57-.629-.57a4.365 4.365 0 01-2.885 1.4s2.207-.629 2.657-1.608l-.951-.733a4.576 4.576 0 01-3.1 1.608s2.3-.737 2.878-1.757l-1.035-.599s-1.378 1.592-2.807 1.541c0 0 2.554-1.118 2.561-1.661a5.742 5.742 0 00-1.3-.494s-1.024 1.118-1.837 1.017c0 0 1.626-.93 1.557-1.121a6.162 6.162 0 00-2.262-.057 4.477 4.477 0 012.3-.172 2.478 2.478 0 00-1.077-.919s.854-.209 1.426.994a5.783 5.783 0 011.24.423 5.4 5.4 0 00-1.027-1.876 2.392 2.392 0 011.307 2.026l1.052.574a7.753 7.753 0 00-.958-2.3s.994.514 1.21 2.455l.942.71a9.13 9.13 0 00-.7-2.274 3.636 3.636 0 01.965 2.487l.572.547s-.211-1.089-.3-1.4-.016-.328-.016-.328a3.787 3.787 0 01.558 1.98 9.152 9.152 0 001.185 1.139z" fill="#e5e6e8"/><path data-name="Path 6294" d="M136.369 12.244s-8.7-.969-7.986 5.207a1.491 1.491 0 00.689 1.608s.039-.459.919-.253a4.226 4.226 0 00.946.094 1.975 1.975 0 001.183-.42s2.506-.889 3.675-4.851c0 0 .749-.838.733-1.066l-1.5.556a2.561 2.561 0 010 1.95s.048-1.909-.23-1.879c-.057 0-.783.331-.783.331a4.38 4.38 0 01.051 3.215s.363-2.269-.328-3.087l-1.068.551a4.565 4.565 0 01.149 3.489s.3-2.384-.374-3.351l-.976.689s.854 1.932.209 3.2c0 0 .067-2.788-.423-3.025a5.977 5.977 0 00-1 .974s.581 1.4.142 2.1c0 0-.154-1.867-.356-1.886a6.176 6.176 0 00-1.01 2.026 4.471 4.471 0 01.818-2.154 2.472 2.472 0 00-1.286.586s.17-.861 1.5-.87c0 0 .723-.9.919-.946a5.4 5.4 0 00-2.136.138 2.383 2.383 0 012.386-.328l.967-.71a7.448 7.448 0 00-2.487-.124 2.991 2.991 0 012.738-.057l1.04-.553a9.145 9.145 0 00-2.356-.324 3.607 3.607 0 012.66.177l.74-.287s-1.077-.269-1.394-.319-.328-.138-.328-.138a3.778 3.778 0 012.03.331 9.394 9.394 0 001.527-.594z" fill="#e5e6e8"/><path data-name="Path 6295" d="M212.528 79.807s-8.7-.969-7.981 5.2a1.491 1.491 0 00.689 1.608s.039-.459.919-.255a3.971 3.971 0 00.946.094 1.959 1.959 0 001.183-.42s2.506-.889 3.663-4.848c0 0 .749-.841.733-1.066l-1.5.554a2.568 2.568 0 010 1.952s.048-1.911-.23-1.879c-.057 0-.783.328-.783.328a4.38 4.38 0 01.051 3.215s.363-2.267-.328-3.087l-1.068.553a4.572 4.572 0 01.151 3.489s.3-2.384-.377-3.353l-.976.689s.854 1.932.209 3.195c0 0 .067-2.788-.423-3.022a6.062 6.062 0 00-1 .974s.583 1.4.142 2.1c0 0-.154-1.867-.356-1.886a6.175 6.175 0 00-1.011 2.026 4.472 4.472 0 01.818-2.154 2.45 2.45 0 00-1.286.586s.17-.864 1.5-.873c0 0 .726-.9.919-.944a5.382 5.382 0 00-2.136.135 2.389 2.389 0 012.389-.326l.964-.71a7.676 7.676 0 00-2.478-.1 2.994 2.994 0 012.738-.06l1.041-.551a9.146 9.146 0 00-2.356-.324 3.607 3.607 0 012.66.177l.74-.289s-1.077-.269-1.394-.317-.328-.138-.328-.138a3.764 3.764 0 012.03.328 8.994 8.994 0 001.526-.601z" fill="#e5e6e8"/><path data-name="Path 6296" d="M225.83 87.938s-8.7-.967-7.981 5.2a1.5 1.5 0 00.689 1.608s.039-.459.919-.253a4.05 4.05 0 00.944.092 1.985 1.985 0 001.178-.418s2.5-.889 3.661-4.851c0 0 .751-.838.733-1.066l-1.5.553a2.568 2.568 0 010 1.952s.048-1.909-.23-1.879c-.057 0-.783.328-.783.328a4.381 4.381 0 01.051 3.215s.363-2.267-.328-3.085l-1.068.551a4.573 4.573 0 01.152 3.489s.3-2.384-.377-3.351l-.976.689s.854 1.932.211 3.2c0 0 .064-2.79-.425-3.025a6.062 6.062 0 00-1 .974s.583 1.4.142 2.1c0 0-.154-1.867-.356-1.886a6.142 6.142 0 00-1.008 2.026 4.482 4.482 0 01.815-2.154 2.471 2.471 0 00-1.286.586s.172-.864 1.5-.87c0 0 .724-.9.919-.946a5.4 5.4 0 00-2.136.138 2.386 2.386 0 012.389-.328l.965-.71a7.675 7.675 0 00-2.478-.1 2.991 2.991 0 012.738-.057l1.04-.553a9.145 9.145 0 00-2.356-.324 3.607 3.607 0 012.66.177l.74-.287s-1.077-.269-1.392-.319-.331-.138-.331-.138a3.778 3.778 0 012.03.331 9.089 9.089 0 001.535-.609z" fill="#e5e6e8"/><path data-name="Path 6297" d="M196.3 19.488s-7.01-5.243-9.515.436a1.5 1.5 0 00-.216 1.741s.262-.37.919.243a4.02 4.02 0 00.767.56 1.973 1.973 0 001.233.23s2.609.5 5.615-2.324c0 0 1.07-.345 1.171-.547l-1.578-.285a2.653 2.653 0 01-.981 1.686s1.008-1.621.746-1.739c-.053-.025-.841-.115-.841-.115a4.365 4.365 0 01-1.582 2.791s1.463-1.771 1.281-2.827l-1.2-.064a4.581 4.581 0 01-1.638 3.085s1.465-1.9 1.378-3.08l-1.19.1s-.23 2.1-1.438 2.859c0 0 1.47-2.37 1.167-2.82a5.774 5.774 0 00-1.355.333s-.207 1.5-.942 1.883c0 0 .813-1.688.648-1.805a6.174 6.174 0 00-1.9 1.233 4.485 4.485 0 011.8-1.442 2.474 2.474 0 00-1.406-.147s.586-.657 1.739.011a5.773 5.773 0 011.261-.356 5.374 5.374 0 00-1.911-.962 2.391 2.391 0 012.225.919l1.192-.122a7.825 7.825 0 00-2.085-1.345s1.109-.14 2.389 1.334l1.178.053a9.207 9.207 0 00-1.867-1.475 3.626 3.626 0 012.2 1.5l.783.126s-.792-.776-1.041-.978-.211-.269-.211-.269a3.776 3.776 0 011.58 1.314 9.222 9.222 0 001.625.265z" fill="#e5e6e8"/><path data-name="Path 6298" d="M201.716 57.343s-2.416-8.413-7.85-5.393a1.492 1.492 0 00-1.224 1.256s.432-.136.581.744a4.072 4.072 0 00.276.919 1.973 1.973 0 00.841.937s1.778 1.975 5.88 1.534c0 0 1.061.372 1.263.271l-1.086-1.181a2.641 2.641 0 01-1.8.753s1.782-.689 1.645-.935c-.028-.05-.6-.6-.6-.6a4.351 4.351 0 01-2.944 1.27s2.235-.528 2.726-1.479l-.919-.776a4.589 4.589 0 01-3.167 1.47s2.315-.636 2.954-1.626l-1.006-.641s-1.458 1.527-2.873 1.412c0 0 2.6-1 2.634-1.543a5.734 5.734 0 00-1.284-.551s-1.073 1.07-1.888.932c0 0 1.667-.857 1.608-1.05a6.2 6.2 0 00-2.258-.161 4.481 4.481 0 012.3-.067 2.465 2.465 0 00-1.034-.965s.864-.172 1.378 1.056a5.73 5.73 0 011.22.478 5.371 5.371 0 00-.942-1.92 2.386 2.386 0 011.215 2.081l1.024.622a7.637 7.637 0 00-.854-2.329 3.016 3.016 0 011.1 2.506l.919.751a9.107 9.107 0 00-.6-2.3 3.629 3.629 0 01.852 2.526l.547.574s-.161-1.1-.23-1.41 0-.356 0-.356a3.764 3.764 0 01.471 2 9.111 9.111 0 001.125 1.191z" fill="#e5e6e8"/><path data-name="Path 6299" d="M147.876 76.3s-4.692-7.391-9.049-2.967a1.486 1.486 0 00-.822 1.55s.379-.253.769.551a3.929 3.929 0 00.519.795 1.962 1.962 0 001.068.661s2.262 1.4 6.075-.184c0 0 1.123.06 1.288-.094l-1.378-.827a2.64 2.64 0 01-1.516 1.229s1.52-1.148 1.316-1.36c-.039-.041-.746-.4-.746-.4a4.364 4.364 0 01-2.469 2.046s2-1.137 2.2-2.189l-1.1-.485a4.574 4.574 0 01-2.625 2.3s2.044-1.261 2.377-2.391l-1.148-.331s-.969 1.876-2.359 2.164c0 0 2.214-1.695 2.092-2.223a5.7 5.7 0 00-1.378-.168s-.728 1.33-1.55 1.426c0 0 1.36-1.291 1.247-1.461a6.189 6.189 0 00-2.212.482 4.469 4.469 0 012.191-.712 2.465 2.465 0 00-1.261-.636s.779-.406 1.608.627a5.673 5.673 0 011.307.115 5.286 5.286 0 00-1.445-1.578s1.079.092 1.75 1.656l1.16.308a7.679 7.679 0 00-1.474-1.994s1.086.262 1.759 2.1l1.084.459a9.151 9.151 0 00-1.224-2.039 3.619 3.619 0 011.527 2.184l.689.4s-.459-1.008-.623-1.286-.1-.342-.1-.342a3.766 3.766 0 011.013 1.789 9.34 9.34 0 001.44.825z" fill="#e5e6e8"/><path data-name="Path 6300" d="M178.714 38.535s-4.463-7.531-8.957-3.245a1.494 1.494 0 00-.868 1.525s.384-.243.751.572a3.971 3.971 0 00.494.813 1.951 1.951 0 001.047.689s2.216 1.465 6.077 0c0 0 1.121.094 1.291-.055l-1.348-.868a2.641 2.641 0 01-1.553 1.18s1.555-1.109 1.36-1.318c-.041-.044-.735-.429-.735-.429a4.366 4.366 0 01-2.526 1.971s2.03-1.075 2.267-2.118l-1.084-.51a4.581 4.581 0 01-2.7 2.219s2.083-1.2 2.451-2.315l-1.135-.367s-1.029 1.837-2.425 2.09c0 0 2.265-1.626 2.159-2.157a5.673 5.673 0 00-1.378-.211s-.769 1.307-1.594 1.378c0 0 1.4-1.245 1.293-1.419a6.182 6.182 0 00-2.225.413 4.483 4.483 0 012.212-.643 2.469 2.469 0 00-1.243-.675s.792-.384 1.608.675a5.82 5.82 0 011.3.156 5.494 5.494 0 00-1.394-1.621s1.075.124 1.7 1.709l1.148.344a7.635 7.635 0 00-1.413-2.039s1.08.3 1.7 2.15l1.068.5a9.226 9.226 0 00-1.148-2.067 3.633 3.633 0 011.461 2.23l.673.418s-.432-1.022-.583-1.3-.087-.345-.087-.345a3.774 3.774 0 01.958 1.819 8.893 8.893 0 001.378.851z" fill="#ff505c"/><path data-name="Path 6301" d="M150.481 54.373s.23-8.75-5.85-7.517a1.5 1.5 0 00-1.548.829s.459 0 .331.884a4.032 4.032 0 00-.014.951 1.964 1.964 0 00.517 1.148s1.1 2.421 5.14 3.243c0 0 .9.677 1.123.641l-.689-1.452a2.651 2.651 0 01-1.943.172s1.906-.113 1.853-.393c0-.057-.4-.756-.4-.756a4.347 4.347 0 01-3.19.319s2.3.172 3.048-.583l-.641-1.017a4.588 4.588 0 01-3.464.441s2.4.1 3.31-.655l-.765-.919s-1.853 1.015-3.167.478c0 0 2.784-.168 2.986-.675a5.958 5.958 0 00-1.056-.919s-1.346.689-2.081.317c0 0 1.837-.308 1.849-.512a6.163 6.163 0 00-2.1-.836 4.471 4.471 0 012.216.634 2.469 2.469 0 00-.689-1.233s.875.1.995 1.424a5.709 5.709 0 011.02.827 5.371 5.371 0 00-.317-2.115 2.383 2.383 0 01.528 2.35l.788.9a7.691 7.691 0 00-.108-2.478 3.02 3.02 0 01.289 2.722l.636.99a9.159 9.159 0 00.126-2.375 3.645 3.645 0 01.046 2.666l.349.712s.177-1.1.2-1.415.11-.34.11-.34a3.772 3.772 0 01-.158 2.051 8.754 8.754 0 00.72 1.491z" fill="#ff505c"/><ellipse data-name="Ellipse 38783" cx="6.185" cy="1.045" rx="6.185" ry="1.045" transform="translate(154.346 163.472)" fill="#e5e6e8"/><ellipse data-name="Ellipse 38784" cx="6.185" cy="1.045" rx="6.185" ry="1.045" transform="translate(131.799 179.338)" fill="#e5e6e8"/><ellipse data-name="Ellipse 38785" cx="6.185" cy="1.045" rx="6.185" ry="1.045" transform="translate(15.203 171.21)" fill="#e5e6e8"/><ellipse data-name="Ellipse 38786" cx="6.185" cy="1.045" rx="6.185" ry="1.045" transform="translate(178.712 178.293)" fill="#e5e6e8"/><ellipse data-name="Ellipse 38787" cx="9.235" cy="1.562" rx="9.235" ry="1.562" transform="translate(182.102 164.517)" fill="#ff505c"/><path data-name="Path 6302" d="M195.165 163.522a2.668 2.668 0 00.88-1.328 1.18 1.18 0 00-.613-1.353 1.734 1.734 0 00-1.628.569 2.182 2.182 0 01-1.58.765 2.412 2.412 0 00.744-2.253.944.944 0 00-.207-.459c-.315-.335-.882-.191-1.259.073-1.194.841-1.527 2.462-1.534 3.923a7.371 7.371 0 01-.021-1.608 1.65 1.65 0 00-.609-1.429 1.817 1.817 0 00-.919-.23 1.919 1.919 0 00-1.5.427 1.48 1.48 0 00.057 1.837 5.939 5.939 0 001.555 1.245 3.477 3.477 0 011.112 1.059 1.09 1.09 0 01.08.188h3.367a9.285 9.285 0 002.076-1.429z" fill="#ff505c"/><path data-name="Path 6303" d="M17.236 167.397s3.525-.108 4.593-.866 5.427-1.661 5.691-.446 5.3 6.038 1.318 6.07-9.253-.62-10.315-1.268-1.287-3.49-1.287-3.49z" fill="#b7bdc1"/><path data-name="Path 6304" d="M28.906 171.734c-3.983.032-9.253-.62-10.315-1.268-.808-.491-1.13-2.258-1.238-3.073h-.117s.23 2.846 1.284 3.491 6.332 1.3 10.315 1.268c1.148 0 1.546-.418 1.525-1.024-.161.369-.6.599-1.454.606z" fill="#9398a5"/></g></svg>