<svg xmlns="http://www.w3.org/2000/svg" width="76.683" height="61.595" viewBox="0 0 76.683 61.595"><defs><linearGradient id="a" x1=".5" y1=".28" x2=".5" y2="1" gradientUnits="objectBoundingBox"><stop offset="0" stop-color="#99acc2" stop-opacity="0"/><stop offset="1" stop-color="#fff"/></linearGradient><filter id="b" x="26.683" y="7.595" width="49" height="30" filterUnits="userSpaceOnUse"><feOffset dy="3"/><feGaussianBlur stdDeviation="3" result="blur"/><feFlood flood-opacity=".161"/><feComposite operator="in" in2="blur"/><feComposite in="SourceGraphic"/></filter></defs><g data-name="Group 5400" transform="translate(-426.317 -411.405)"><g data-name="Group 5406"><g data-name="Group 5404"><g data-name="Group 5403"><g data-name="Group 5400" transform="translate(426.316 411.405)"><path data-name="Path 11584" d="M46.813 60.65H28.151l.633-8.224h17.4z" fill="#99acc2"/><path data-name="Path 11585" d="M73.225 0H1.898a1.9 1.9 0 00-1.9 1.9v43.49H75.12V1.898a1.9 1.9 0 00-1.9-1.9z" fill="#99acc2"/><path data-name="Path 11586" d="M0 44.831v7.117a1.9 1.9 0 001.9 1.9h71.329a1.9 1.9 0 001.9-1.9v-7.117z" fill="#99acc2"/><rect data-name="Rectangle 4772" width="67.689" height="37.957" rx="5" transform="translate(3.796 3.953)" fill="#e6e6e6"/><circle data-name="Ellipse 38831" cx="1.898" cy="1.898" r="1.898" transform="translate(35.743 47.362)" fill="#fff"/><path data-name="Rectangle 4773" d="M7.796 3.717h59.689a4 4 0 014 4V8.73H3.796V7.717a4 4 0 014-4z" fill="#253342"/><path data-name="Path 11592" d="M60.829 5.951a.384.384 0 000 .747h7.8a.384.384 0 000-.747z" fill="#fff"/><circle data-name="Ellipse 38832" cx="1.16" cy="1.16" r="1.16" transform="translate(56.865 5.147)" fill="#fff"/><path data-name="Line 1195" fill="none" stroke="#e5e6e8" stroke-width=".5" opacity=".52" d="M54.184 4.554v2.792"/><text transform="translate(42.72 7.306)" fill="#fff" font-size="3" font-family="FontAwesome5Pro-Light, 'Font Awesome \35 Pro'" font-weight="300"><tspan x="0" y="0">cog</tspan></text><text transform="translate(37.306 7.324)" fill="#fff" font-size="3" font-family="FontAwesome5Pro-Light, 'Font Awesome \35 Pro'" font-weight="300"><tspan x="0" y="0">search</tspan></text><g data-name="Group 5399"><text transform="translate(48.133 7.307)" fill="#fff" font-size="3" font-family="FontAwesome5Pro-Solid, 'Font Awesome \35 Pro'"><tspan x="0" y="0">bell</tspan></text><g data-name="Ellipse 38833" transform="translate(49.633 4.76)" fill="red" stroke="#253342" stroke-width=".1"><circle cx=".773" cy=".773" r=".773" stroke="none"/><circle cx=".773" cy=".773" r=".723" fill="none"/></g></g><path data-name="Path 11600" d="M467.083 561.2h-18.662l.633-8.224h17.4z" transform="translate(-420.27 -500.551)" fill="url(#a)"/><path data-name="Rectangle 4771" fill="#99acc2" d="M27.202 59.697h20.876v1.898H27.202z"/></g></g></g><path data-name="Path 11601" d="M479.489 465.177l14.777-53.678h5.65s3.478-.218 2.825 3.912 0 44.115 0 44.115 1.521 5.65-2.825 5.65z" fill="#fff" opacity=".24"/></g><g transform="translate(426.32 411.4)" filter="url(#b)"><path data-name="Rectangle 4774" fill="#fff" d="M35.68 13.6h31v12h-31z"/></g><g data-name="Group 5407" fill="none" stroke="#cbd0d9"><g data-name="Rectangle 4775" transform="translate(472 429)"><path d="M0 0h18v1H0z" stroke="none"/><rect x=".5" y=".5" width="17"/></g><g data-name="Rectangle 4776" transform="translate(472 431)"><path d="M0 0h18v1H0z" stroke="none"/><rect x=".5" y=".5" width="17"/></g><g data-name="Rectangle 4777" transform="translate(472 433)"><path d="M0 0h18v1H0z" stroke="none"/><rect x=".5" y=".5" width="17"/></g></g><circle data-name="Ellipse 38836" cx="3.5" cy="3.5" r="3.5" transform="translate(464 428)" fill="#ffa97f"/></g></svg>