<svg xmlns="http://www.w3.org/2000/svg" width="16.75" height="16.75" viewBox="0 0 16.75 16.75"><g data-name="Group 410"><g data-name="Group 409" fill="#9330c4" stroke="#9330c4" stroke-width=".75"><path data-name="Path 432" d="M8.375.375a8 8 0 108 8 8.009 8.009 0 00-8-8zm0 15.3a7.3 7.3 0 117.3-7.3 7.312 7.312 0 01-7.3 7.3z"/><path data-name="Path 433" d="M6.693 6.992a1.085 1.085 0 10-1.085 1.085 1.086 1.086 0 001.085-1.085zm-1.085.362a.362.362 0 11.362-.362.362.362 0 01-.361.361z"/><path data-name="Path 434" d="M11.142 5.907a1.085 1.085 0 101.085 1.085 1.086 1.086 0 00-1.085-1.085zm0 1.446a.362.362 0 11.362-.362.362.362 0 01-.362.362z"/><path data-name="Path 435" d="M8.375 8.579a2.533 2.533 0 00-2.531 2.531v1.446a1.086 1.086 0 001.085 1.085h2.892a1.086 1.086 0 001.085-1.085V11.11a2.533 2.533 0 00-2.531-2.531zm1.808 3.977a.362.362 0 01-.362.362H6.929a.362.362 0 01-.362-.362V11.11a1.808 1.808 0 113.615 0z"/></g></g></svg>