<svg xmlns="http://www.w3.org/2000/svg" width="120.553" height="25.333" viewBox="0 0 120.553 25.333"><path d="M35.437 3.964A4.533 4.533 0 0032.248.775C29.416 0 18.091 0 18.091 0S6.765 0 3.934.745A4.626 4.626 0 00.745 3.964C0 6.8 0 12.667 0 12.667s0 5.9.745 8.7a4.533 4.533 0 003.189 3.189c2.861.775 14.157.775 14.157.775s11.325 0 14.157-.745a4.533 4.533 0 003.189-3.186c.745-2.831.745-8.7.745-8.7s.03-5.9-.745-8.733z" fill="red"/><path d="M14.485 7.242v10.849l9.418-5.424z" fill="#fff"/><g fill="#282828"><path d="M59.544 23.069a3.856 3.856 0 01-1.52-2.265 14.934 14.934 0 01-.447-4.053v-2.296a14.021 14.021 0 01.507-4.113 4.252 4.252 0 011.609-2.265 5.259 5.259 0 012.891-.715 5.047 5.047 0 012.831.715 4.135 4.135 0 011.55 2.265 13.742 13.742 0 01.507 4.113v2.295a13.925 13.925 0 01-.477 4.083 4.135 4.135 0 01-1.55 2.265 5.229 5.229 0 01-2.921.715 5.631 5.631 0 01-2.98-.745zm4.024-2.5a7.439 7.439 0 00.3-2.533v-4.952a7.47 7.47 0 00-.3-2.5 1.07 1.07 0 00-2.056 0 7.47 7.47 0 00-.3 2.5v4.948a7.44 7.44 0 00.3 2.533 1.047 1.047 0 001.043.775 1.028 1.028 0 001.013-.778zm50.994-3.789v.8a21.583 21.583 0 00.089 2.295 1.907 1.907 0 00.387 1.1 1.046 1.046 0 00.894.358 1.118 1.118 0 001.1-.626 5.473 5.473 0 00.328-2.086l3.07.179a3.074 3.074 0 01.03.566 4.172 4.172 0 01-1.192 3.278 4.943 4.943 0 01-3.4 1.073 4.062 4.062 0 01-3.7-1.669 9.589 9.589 0 01-1.073-5.126v-2.765a9.5 9.5 0 011.1-5.216 4.19 4.19 0 013.755-1.639 5.026 5.026 0 012.831.685 3.646 3.646 0 011.371 2.086 15.26 15.26 0 01.387 3.934v2.712h-5.991zm.443-6.678a2.276 2.276 0 00-.358 1.1 21.843 21.843 0 00-.089 2.325v1.133h2.623v-1.129a22.637 22.637 0 00-.089-2.325 2.041 2.041 0 00-.387-1.1 1.076 1.076 0 00-.835-.328.9.9 0 00-.865.324zm-64.164 6.38L46.788 1.789h3.547l1.431 6.646q.536 2.459.8 4.2h.089c.119-.835.387-2.205.8-4.173l1.499-6.673h3.547l-4.113 14.693v7.034h-3.517v-7.034zM79.006 7.66v15.885h-2.8l-.3-1.937h-.086a3.668 3.668 0 01-3.427 2.205 2.711 2.711 0 01-2.325-1.043 5.5 5.5 0 01-.745-3.249V7.66h3.576v11.653a3.633 3.633 0 00.238 1.52.8.8 0 00.775.447 1.529 1.529 0 00.894-.3 1.452 1.452 0 00.626-.715V7.66zm18.329 0v15.885h-2.8l-.3-1.937h-.086a3.668 3.668 0 01-3.427 2.205 2.711 2.711 0 01-2.325-1.043 5.5 5.5 0 01-.745-3.249V7.66h3.576v11.653a3.633 3.633 0 00.238 1.52.8.8 0 00.775.447 1.529 1.529 0 00.894-.3 1.452 1.452 0 00.626-.715V7.66z"/><path d="M88.722 4.68h-3.547v18.836h-3.487V4.68h-3.546V1.789h10.58zm20.445 5.513a4.021 4.021 0 00-1.043-2.176 2.846 2.846 0 00-2-.685 3.213 3.213 0 00-1.848.566 3.645 3.645 0 00-1.311 1.46h-.03V.984h-3.454v22.532h2.951l.358-1.49h.089a3.045 3.045 0 001.252 1.282 3.872 3.872 0 001.848.477 2.793 2.793 0 002.653-1.669 12.036 12.036 0 00.864-5.216v-2.5a23.887 23.887 0 00-.328-4.2zm-3.278 6.467a20.626 20.626 0 01-.149 2.712 3.032 3.032 0 01-.477 1.4 1.161 1.161 0 01-.894.417 1.476 1.476 0 01-.8-.209 1.721 1.721 0 01-.6-.626v-9a2.438 2.438 0 01.626-1.073 1.446 1.446 0 01.954-.417.966.966 0 01.835.417 3.408 3.408 0 01.417 1.431 24.031 24.031 0 01.119 2.861v2.086z"/></g></svg>