<svg xmlns="http://www.w3.org/2000/svg" width="162.867" height="30" viewBox="0 0 162.867 30"><g data-name="Group 6896"><g data-name="Group 6868"><path data-name="Path 13091" d="M13.284 19.757H3.441a3.592 3.592 0 003.826 2.792 8.01 8.01 0 004.233-1.324l1.348 2.383a9.926 9.926 0 01-5.727 1.8C2.214 25.412 0 22.065 0 18.552a6.6 6.6 0 016.834-6.887 6.22 6.22 0 016.566 6.6 9.855 9.855 0 01-.116 1.492zM3.441 17.23h6.666a3.173 3.173 0 00-3.273-2.743 3.36 3.36 0 00-3.393 2.743zm10.854-5.222h3.321v1.829a4.592 4.592 0 014.115-2.19c2.647 0 5.126 1.757 5.126 5.463v8.014h-3.394v-7.1c0-2.118-1.131-3.249-2.767-3.249a3.023 3.023 0 00-3.008 3.321v7.027h-3.393zm23.367 12.345a7.269 7.269 0 01-3.874 1.083c-3.008 0-4.573-1.781-4.573-5.174v-5.413h-2.143v-2.84h2.168V7.365h3.37v4.644h4.331v2.84h-4.333v5.2c0 1.516.577 2.31 1.851 2.31a4.432 4.432 0 002.19-.674z" fill="#eb0045"/><path data-name="Path 13092" d="M50.248 19.757h-9.843a3.592 3.592 0 003.826 2.792 8.008 8.008 0 004.235-1.324l1.348 2.383a9.925 9.925 0 01-5.728 1.8c-4.909 0-7.123-3.345-7.123-6.86a6.6 6.6 0 016.835-6.883 6.22 6.22 0 016.57 6.594 9.855 9.855 0 01-.119 1.5zm-9.843-2.527h6.666a3.173 3.173 0 00-3.273-2.743 3.36 3.36 0 00-3.393 2.743zm32.256 1.324a6.692 6.692 0 017.051-6.883 6.544 6.544 0 016.117 3.658l-2.719 1.492a3.907 3.907 0 00-3.345-2 3.743 3.743 0 10-.073 7.485 3.876 3.876 0 003.337-1.971l2.743 1.612a6.85 6.85 0 01-6.161 3.465 6.635 6.635 0 01-6.949-6.858zm23.752 5.8a7.27 7.27 0 01-3.874 1.083c-3.008 0-4.573-1.781-4.573-5.174v-5.414h-2.137v-2.84h2.166V7.365h3.369v4.644h4.332v2.84h-4.331v5.2c0 1.516.577 2.31 1.853 2.31a4.43 4.43 0 002.19-.674zM59.374 12.098c0 .989-.013 1.906.007 2.822.007.306-.2.34-.391.432a5.907 5.907 0 00-3.475 4.125 8.335 8.335 0 00-.167 1.664c-.024 1.318-.008 2.637-.008 3.983h-3.6c-.009-.141-.024-.275-.025-.41 0-1.136.046-2.275-.015-3.408a6.158 6.158 0 01.675-3.053 11.08 11.08 0 016.354-5.962c.188-.068.383-.116.643-.193zm-7.606 4.844c0-2.026-.027-3.244-.027-5.321h3.547a1.225 1.225 0 01-.4 1.3 8.652 8.652 0 00-2.874 3.585c-.061.151-.125.3-.187.45zm19.633-.607a4.652 4.652 0 00-2.953-4.531 10.221 10.221 0 00-7.344.04c-.094.032-.226.151-.227.232-.016.909-.01 1.819-.01 2.77.321-.116.578-.223.844-.3a6.9 6.9 0 014.708.118 2.262 2.262 0 011.473 2.746c-.653-.128-1.3-.306-1.962-.369a11.165 11.165 0 00-2.049-.008c-2.162.2-4.1 1.229-4.181 3.942a3.828 3.828 0 001.968 3.879 5.519 5.519 0 005.761-.589c.134-.119.276-.228.5-.412v1.283h3.453a.889.889 0 00.036-.165c0-2.88.064-5.762-.017-8.64zm-5.272 6.417c-2.25.516-3.576-.036-3.54-1.659s1.549-2.1 3.024-1.954a18.568 18.568 0 012.1.3s.664 2.8-1.585 3.318zM97.474 8.078v3.641h.679V8.078h1.254v-.65h-3.188v.65zm2.538 3.641h.664V8.972l1.4 2.044h.2l1.4-2.044v2.747h.674V7.428h-.378l-1.79 2.631-1.8-2.631h-.366z" fill="#eb0045"/><path data-name="Path 13094" d="M100.2 25.158a2.033 2.033 0 000-4.065 2.033 2.033 0 100 4.065z" fill="#eb0045"/><text transform="translate(105.867 24)" fill="#9398a5" font-size="22" font-family="SegoeUI-Light, Segoe UI" font-weight="300" letter-spacing="-.02em"><tspan x="0" y="0">access</tspan></text></g></g></svg>