<svg xmlns="http://www.w3.org/2000/svg" width="135.779" height="18.75" viewBox="0 0 135.779 18.75"><g data-name="Group 11"><path data-name="Path 34" d="M27.731 8.785L22.57 1.044A2.618 2.618 0 0020.62 0H7.5a2.618 2.618 0 00-1.95 1.044L.394 8.785a2.751 2.751 0 00-.394 1.3v6.322a2.344 2.344 0 002.344 2.343h23.437a2.344 2.344 0 002.344-2.344v-6.321a2.751 2.751 0 00-.394-1.3zM7.922 3.125H20.2l4.167 6.25h-6.01L16.8 12.5h-5.472L9.766 9.375h-6.01z" fill="#2f9df2"/><path data-name="Path 33" d="M46.3 12.82h-5.14l-.976 2.93h-3.116l5.293-14.219h2.715L50.4 15.75h-3.117zm-4.349-2.37h3.555l-1.787-5.325zm12.569 5.3h-2.832v-15h2.832zm5.3 0h-2.83v-15h2.832zm10.608 0H67.5V1.531h2.93zm5.127-10.566l.088 1.221a3.689 3.689 0 013.037-1.416 3.066 3.066 0 012.5.986 4.6 4.6 0 01.84 2.949v6.826H79.2V8.992a1.831 1.831 0 00-.391-1.3 1.749 1.749 0 00-1.3-.405 1.942 1.942 0 00-1.787 1.016v7.447H72.9V5.184zm18.125 5.38a6.4 6.4 0 01-1.08 3.96 3.591 3.591 0 01-3.032 1.426 3.3 3.3 0 01-2.744-1.318L86.7 15.75h-2.542v-15h2.822v5.381a3.214 3.214 0 012.568-1.143 3.62 3.62 0 013.032 1.421 6.408 6.408 0 011.1 4zm-2.822-.205a4.2 4.2 0 00-.508-2.339 1.717 1.717 0 00-1.514-.737 1.862 1.862 0 00-1.855 1.1v4.17a1.887 1.887 0 001.874 1.117 1.742 1.742 0 001.8-1.348 6.952 6.952 0 00.202-1.963zm4.121.01a6.267 6.267 0 01.605-2.8 4.432 4.432 0 011.743-1.9 5.086 5.086 0 012.642-.674 4.812 4.812 0 013.491 1.302 5.252 5.252 0 011.509 3.553l.02.723a5.523 5.523 0 01-1.357 3.9 4.718 4.718 0 01-3.644 1.477 4.742 4.742 0 01-3.647-1.47 5.62 5.62 0 01-1.362-3.984zm2.822.2a3.95 3.95 0 00.566 2.3 1.868 1.868 0 001.621.8 1.873 1.873 0 001.6-.787 4.322 4.322 0 00.576-2.518 3.91 3.91 0 00-.576-2.289 1.873 1.873 0 00-1.621-.812 1.842 1.842 0 00-1.6.807 4.395 4.395 0 00-.567 2.499zm12.744-2.231l1.777-3.154h3.018l-3.008 5.175 3.135 5.391h-3.028l-1.884-3.32-1.875 3.32h-3.037l3.135-5.391-3-5.176h3.027zm10.82 7.612a5.187 5.187 0 01-3.784-1.43 5.068 5.068 0 01-1.46-3.8v-.27a6.383 6.383 0 01.615-2.847 4.515 4.515 0 011.743-1.934 4.893 4.893 0 012.573-.679 4.385 4.385 0 013.413 1.367 5.555 5.555 0 011.245 3.877v1.152h-6.728a2.622 2.622 0 00.825 1.66 2.5 2.5 0 001.743.625 3.046 3.046 0 002.55-1.183l1.387 1.553a4.237 4.237 0 01-1.719 1.4 5.639 5.639 0 01-2.403.509zm-.322-8.682a1.764 1.764 0 00-1.362.569 2.946 2.946 0 00-.669 1.628h3.926v-.226a2.1 2.1 0 00-.508-1.457 1.819 1.819 0 00-1.387-.518zm11.992 5.562a.909.909 0 00-.513-.815 5.824 5.824 0 00-1.646-.532q-3.77-.791-3.77-3.2a2.9 2.9 0 011.167-2.349 4.708 4.708 0 013.052-.942 5.067 5.067 0 013.218.947 2.985 2.985 0 011.207 2.457h-2.822a1.366 1.366 0 00-.391-1 1.653 1.653 0 00-1.221-.4 1.689 1.689 0 00-1.1.322 1.017 1.017 0 00-.391.82.87.87 0 00.444.757 4.571 4.571 0 001.5.5 12.244 12.244 0 011.777.474 2.92 2.92 0 012.236 2.842 2.756 2.756 0 01-1.243 2.339 5.35 5.35 0 01-3.2.894 5.588 5.588 0 01-2.358-.474 3.957 3.957 0 01-1.616-1.3 3.018 3.018 0 01-.586-1.782h2.676a1.473 1.473 0 00.557 1.152 2.208 2.208 0 001.387.4 2.044 2.044 0 001.226-.308.957.957 0 00.41-.802z" fill="#282828"/></g></svg>