<svg xmlns="http://www.w3.org/2000/svg" width="16.75" height="16.75" viewBox="0 0 16.75 16.75"><g data-name="Group 408"><g data-name="Group 407" fill="#f36b7f" stroke="#f36b7f" stroke-width=".75"><path data-name="Path 426" d="M8.375.375a8 8 0 108 8 8.009 8.009 0 00-8-8zm0 15.3a7.3 7.3 0 117.3-7.3 7.312 7.312 0 01-7.3 7.3z"/><path data-name="Path 427" d="M6.66 7.681a1.061 1.061 0 10-1.061 1.061A1.062 1.062 0 006.66 7.681zm-1.415 0a.354.354 0 11.354.354.354.354 0 01-.354-.354z"/><path data-name="Path 428" d="M11.151 6.62a1.061 1.061 0 101.061 1.061 1.062 1.062 0 00-1.061-1.061zm0 1.415a.354.354 0 11.354-.354.354.354 0 01-.354.354z"/><path data-name="Path 429" d="M9.75 5.262a.355.355 0 00.158-.037l1.415-.707a.354.354 0 10-.317-.633l-1.415.707a.354.354 0 00.159.67z"/><path data-name="Path 430" d="M5.427 4.518l1.415.707a.354.354 0 00.317-.633l-1.415-.707a.354.354 0 00-.317.633z"/><path data-name="Path 431" d="M8.375 10.09a4.627 4.627 0 00-3.446 1.532.354.354 0 10.527.472 3.934 3.934 0 015.839 0 .354.354 0 10.527-.472 4.627 4.627 0 00-3.447-1.532z"/></g></g></svg>