<svg xmlns="http://www.w3.org/2000/svg" width="76.683" height="61.595" viewBox="0 0 76.683 61.595"><defs><linearGradient id="a" x1=".5" y1=".28" x2=".5" y2="1" gradientUnits="objectBoundingBox"><stop offset="0" stop-color="#99acc2" stop-opacity="0"/><stop offset="1" stop-color="#fff"/></linearGradient><filter id="b" x="12.683" y="2" width="63" height="30" filterUnits="userSpaceOnUse"><feOffset dy="3"/><feGaussianBlur stdDeviation="3" result="blur"/><feFlood flood-opacity=".161"/><feComposite operator="in" in2="blur"/><feComposite in="SourceGraphic"/></filter></defs><g data-name="Group 5401"><g data-name="Group 5406"><g data-name="Group 5404"><g data-name="Group 5403"><g data-name="Group 5400" transform="translate(0 .001)"><path data-name="Path 11584" d="M46.813 60.65H28.151l.633-8.224h17.4z" fill="#99acc2"/><path data-name="Path 11585" d="M73.225 0H1.898a1.9 1.9 0 00-1.9 1.9v43.49H75.12V1.898a1.9 1.9 0 00-1.9-1.9z" fill="#99acc2"/><path data-name="Path 11586" d="M0 44.831v7.117a1.9 1.9 0 001.9 1.9h71.329a1.9 1.9 0 001.9-1.9v-7.117z" fill="#99acc2"/><rect data-name="Rectangle 4772" width="67.689" height="37.957" rx="5" transform="translate(3.796 3.953)" fill="#17bdce"/><circle data-name="Ellipse 38831" cx="1.898" cy="1.898" r="1.898" transform="translate(35.743 47.362)" fill="#fff"/><path data-name="Path 11600" d="M467.083 561.2h-18.662l.633-8.224h17.4z" transform="translate(-420.27 -500.551)" fill="url(#a)"/><path data-name="Rectangle 4771" fill="#99acc2" d="M27.202 59.697h20.876v1.898H27.202z"/></g></g></g><path data-name="Path 11601" d="M53.173 53.773L67.95.095h5.65s3.478-.218 2.825 3.912 0 44.115 0 44.115 1.521 5.65-2.825 5.65z" fill="#fff" opacity=".24"/></g><g filter="url(#b)"><path data-name="Rectangle 4774" fill="#fff" d="M21.68 8h45v12h-45z"/></g><g data-name="Group 5407"><g data-name="Rectangle 4775" transform="translate(33.184 11)" fill="#80899a" stroke="#80899a"><path d="M0 0h21.149v1H0z" stroke="none"/><rect x=".5" y=".5" width="20.149" fill="none"/></g><g data-name="Rectangle 4776" transform="translate(33.184 14)" fill="none" stroke="#cbd0d9"><path d="M0 0h21.149v1H0z" stroke="none"/><rect x=".5" y=".5" width="20.149"/></g><g data-name="Rectangle 4777" transform="translate(33.184 17)" fill="none" stroke="#cbd0d9"><path d="M0 0h21.149v1H0z" stroke="none"/><rect x=".5" y=".5" width="20.149"/></g></g><path data-name="Rectangle 4778" fill="#ffa97f" d="M56 10h8v8h-8z"/><text transform="translate(24 17)" fill="#80899a" font-size="7" font-family="FontAwesome5Pro-Regular, 'Font Awesome \35 Pro'"><tspan x="0" y="0">globe-europe</tspan></text><text transform="translate(58 16)" fill="#fff" font-size="5" font-family="FontAwesome5Brands-Regular, 'Font Awesome \35 Brands'"><tspan x="0" y="0">hubspot</tspan></text></g></svg>