<svg xmlns="http://www.w3.org/2000/svg" xmlns:xlink="http://www.w3.org/1999/xlink" width="220.925" height="143" viewBox="0 0 220.925 143"><defs><linearGradient id="a" x1=".073" y1="1" x2=".073" gradientUnits="objectBoundingBox"><stop offset="0" stop-color="gray" stop-opacity=".251"/><stop offset=".54" stop-color="gray" stop-opacity=".122"/><stop offset="1" stop-color="gray" stop-opacity=".102"/></linearGradient><linearGradient id="b" x1=".5" y1="1" x2=".5" y2="0" xlink:href="#a"/><linearGradient id="c" x1=".497" y1="1" x2=".497" y2="-.002" xlink:href="#a"/></defs><g data-name="Group 5520" transform="translate(-965.51 -70)"><path data-name="Path 11664" d="M1175.931 141.933c-6.194 7.875-3.787 19.378.148 28.593 1.319 3.086 2.808 6.348 2.259 9.656-.679 4.044-4.289 7-8.08 8.57a24.05 24.05 0 01-21.529-1.774c-5.486-3.414-9.416-8.965-15-12.222-9.34-5.452-21.227-3.393-31.368.363-7.175 2.656-15.019 6.112-22.148 3.336-5.016-1.954-8.483-6.71-10.374-11.751-.912-2.432-1.574-5.068-3.317-7a12.451 12.451 0 00-3.772-2.648c-12.643-6.268-28.609-2.912-40.888-9.863-8.292-4.691-13.6-13.551-15.952-22.787s-2.085-18.919-1.48-28.43c.424-6.76 1.185-13.975 5.5-19.192 4.569-5.518 12.41-7.571 19.5-6.522s13.511 4.788 19.163 9.19c7.062 5.5 13.614 12.356 22.285 14.594 5.907 1.518 12.118.695 18.209.4 10.183-.481 20.369.589 30.5 1.758 9.694 1.121 19.458 2.354 28.694 5.507 6.534 2.224 11.77 6.275 17.941 9.1 4.022 1.845 8.409 2.354 12.219 4.7 4.691 2.894 8.992 7.929 7.79 13.82-1.144 5.612-7.01 8.422-10.3 12.602z" fill="#3cc480" opacity=".1"/><path data-name="Path 11665" d="M1153.464 176.36s.573-16.984 9.762-26.581a25.745 25.745 0 007.061-14.677 43.306 43.306 0 00.215-7.917" fill="none" stroke="#535461" stroke-miterlimit="10" stroke-width="2"/><path data-name="Path 11666" d="M1176.256 121.107c-.629 1.9-5.886 6.254-5.886 6.254s-1.611-6.638-.982-8.534a3.618 3.618 0 116.868 2.278z" fill="#3cc480"/><path data-name="Path 11667" d="M1178.442 133.493c-1.564 1.251-8.339 2.053-8.339 2.053s2.259-6.447 3.822-7.7a3.617 3.617 0 014.517 5.643z" fill="#3cc480"/><path data-name="Path 11668" d="M1172.248 151.358c-1.977.292-8.237-2.432-8.237-2.432s5.2-4.427 7.179-4.719a3.618 3.618 0 111.058 7.158z" fill="#3cc480"/><path data-name="Path 11669" d="M1164.513 163.824c-1.9.622-8.53-1.011-8.53-1.011s4.38-5.242 6.279-5.863a3.618 3.618 0 112.259 6.875z" fill="#3cc480"/><path data-name="Path 11670" d="M1162.775 133.522c.923 1.772 6.805 5.243 6.805 5.243s.535-6.809-.387-8.582a3.617 3.617 0 10-6.418 3.339z" fill="#3cc480"/><path data-name="Path 11671" d="M1153.913 148.213c1.411 1.416 8.061 2.966 8.061 2.966s-1.527-6.657-2.936-8.073a3.617 3.617 0 00-5.125 5.106z" fill="#3cc480"/><path data-name="Path 11672" d="M1147.26 163.679c1.15 1.633 7.444 4.286 7.444 4.286s-.379-6.819-1.531-8.454a3.617 3.617 0 10-5.907 4.17z" fill="#3cc480"/><path data-name="Path 11673" d="M1072.714 164.827s2.759-.935 4.086 1.5a4.434 4.434 0 01-.059 4.269 6.266 6.266 0 01-6.081 3.44c-2.887-.155-3.839-2.358-4.1-4.408a4.527 4.527 0 016.013-4.847z" fill="#3cc480"/><path data-name="Path 11674" d="M1076.157 170.811a4.434 4.434 0 00.059-4.269c-1.327-2.432-4.086-1.5-4.086-1.5l-.141-.05a4.488 4.488 0 00-3.242.073 4.489 4.489 0 013.822-.365l.141.05s2.759-.935 4.086 1.5a4.434 4.434 0 01-.059 4.269 6.6 6.6 0 01-3.127 2.953 6.836 6.836 0 002.547-2.661z" fill="#fff" opacity=".1"/><path data-name="Path 11675" d="M1074.139 165.997s-1.023.8-3.506 0" opacity=".2"/><path data-name="Path 11676" d="M1074.362 160.152s-1.753 4.748-1.607 5.99l-1.39-.146s2.338-4.17 1.753-5.844z" fill="#3cc480"/><path data-name="Path 11677" d="M1074.362 160.152s-1.753 4.748-1.607 5.99l-1.39-.146s2.338-4.17 1.753-5.844z" opacity=".2"/><path data-name="Path 11678" d="M1067.201 160.55s2.759-1.411 4-.245 1.425 4.145 1.425 4.145-4.506.618-5.425-3.9z" fill="#3cc480"/><path data-name="Path 11679" d="M1067.201 160.55s2.759-1.411 4-.245 1.425 4.145 1.425 4.145-4.506.618-5.425-3.9z" fill="#fff" opacity=".1"/><path data-name="Path 11680" d="M1072.621 164.45s-.724-3.459-5.419-3.9" fill="none" stroke="#3cc480" stroke-miterlimit="10"/><path data-name="Path 11681" d="M1151.925 143.75s-.563-9.184 3.9-14.826a13.94 13.94 0 003.053-8.273 23.452 23.452 0 00-.292-4.279" fill="none" stroke="#535461" stroke-miterlimit="10" stroke-width="2"/><path data-name="Path 11682" d="M1161.37 112.8c-.241 1.055-2.851 3.674-2.851 3.674s-1.216-3.5-.968-4.548a1.96 1.96 0 013.822.869z" fill="#3cc480"/><path data-name="Path 11683" d="M1163.187 119.363c-.777.754-4.39 1.536-4.39 1.536s.884-3.591 1.661-4.343a1.958 1.958 0 112.729 2.809z" fill="#3cc480"/><path data-name="Path 11684" d="M1160.765 129.314c-1.042.259-4.564-.891-4.564-.891s2.576-2.653 3.626-2.912a1.958 1.958 0 11.938 3.8z" fill="#3cc480"/><path data-name="Path 11685" d="M1157.235 136.426c-.992.433-4.649-.108-4.649-.108s2.085-3.051 3.082-3.475a1.958 1.958 0 111.564 3.59z" fill="#3cc480"/><path data-name="Path 11686" d="M1154.743 120.185c.587.909 3.937 2.476 3.937 2.476s-.061-3.7-.65-4.606a1.958 1.958 0 00-3.287 2.13z" fill="#3cc480"/><path data-name="Path 11687" d="M1150.721 128.556c.832.695 4.5 1.185 4.5 1.185s-1.164-3.509-2-4.2a1.959 1.959 0 10-2.5 3.016z" fill="#3cc480"/><path data-name="Path 11688" d="M1147.93 137.235c.7.822 4.232 1.928 4.232 1.928s-.554-3.648-1.26-4.477a1.959 1.959 0 00-2.974 2.55z" fill="#3cc480"/><path data-name="Path 11689" d="M1161.37 112.8c-.241 1.055-2.851 3.674-2.851 3.674s-1.216-3.5-.968-4.548a1.96 1.96 0 013.822.869z" fill="#fff" opacity=".5"/><path data-name="Path 11690" d="M1163.187 119.363c-.777.754-4.39 1.536-4.39 1.536s.884-3.591 1.661-4.343a1.958 1.958 0 112.729 2.809z" fill="#fff" opacity=".5"/><path data-name="Path 11691" d="M1160.765 129.314c-1.042.259-4.564-.891-4.564-.891s2.576-2.653 3.626-2.912a1.958 1.958 0 11.938 3.8z" fill="#fff" opacity=".5"/><path data-name="Path 11692" d="M1157.235 136.426c-.992.433-4.649-.108-4.649-.108s2.085-3.051 3.082-3.475a1.958 1.958 0 111.564 3.59z" fill="#fff" opacity=".5"/><path data-name="Path 11693" d="M1154.743 120.185c.587.909 3.937 2.476 3.937 2.476s-.061-3.7-.65-4.606a1.958 1.958 0 00-3.287 2.13z" fill="#fff" opacity=".5"/><path data-name="Path 11694" d="M1150.721 128.556c.832.695 4.5 1.185 4.5 1.185s-1.164-3.509-2-4.2a1.959 1.959 0 10-2.5 3.016z" fill="#fff" opacity=".5"/><path data-name="Path 11695" d="M1147.93 137.235c.7.822 4.232 1.928 4.232 1.928s-.554-3.648-1.26-4.477a1.959 1.959 0 00-2.974 2.55z" fill="#fff" opacity=".5"/><path data-name="Path 11761" d="M1118.264 190.688h13.819v-7.785h-13.819zm13.235-.584h-12.648v-6.617h12.648z" fill="#3cc480" opacity=".2"/><path data-name="Path 11762" d="M264.869 299.549a3.234 3.234 0 01-2.731.4 4.239 4.239 0 01-.711-.314c-8.86.188-17.066.1-17.384-.853-.521-1.581 2.78-9.368 4.446-13.131a4.218 4.218 0 01-1.216-1.27c-2.314 2.646-6.619 6.06-9.178 6.23 0 0-3.735 8.873-7.938 7.47s-4.67-8.872-2.568-9.805L241.6 279.4v-14.719a5.514 5.514 0 01-.585-2.728c0-.174-.009-.347 0-.521l.467-4.2s.024-.139.089-.391c1.042-4.05 3.365-6.776 6.64-7.18a2.392 2.392 0 01-.285-.943 15.971 15.971 0 00.075-2.352c-.215-.893-1.042-1.47-1.722-2.085a24.155 24.155 0 01-5.158-10.132 5.4 5.4 0 011.868-5.017c1.181-.853 2.844-1.077 3.694-2.259a9.479 9.479 0 00.8-1.784 7.041 7.041 0 014.154-3.581c6.206-2.234 13.819.33 17.778 5.483a31.047 31.047 0 013.148 5.516l3.336 6.9c.575 1.187 1.131 2.669.363 3.74-.375.521-1.018.844-1.279 1.433-.347.782.087 1.805-.424 2.493a3.227 3.227 0 01-1.188.754 4.653 4.653 0 00-1.437 1.273l7.325 5.676a4.932 4.932 0 011.887 3.407l.724 7.22a8.783 8.783 0 01.327 2.521 4.3 4.3 0 01-.443 2.258l-.16-.038c-.174 5.064-.476 12.351-.775 13.7a10.381 10.381 0 01-2.747 3.661l.521 1.477h-.174l.174.464h-.347a24.015 24.015 0 005.481 9.335s-9.271.494-18.858.768zm8.711-24.6v-5.676c-.855.132-1.485.427-1.687.966zm-2.474-24.7l-.028.042h.01z" transform="translate(876.41 -120.533)" fill="url(#a)"/><path data-name="Path 11763" d="M1126.441 142.605s-.443 15.744-.888 17.74-6.876 7.99-10.2 8.212c0 0-3.548 8.426-7.54 7.1s-4.435-8.426-2.432-9.314l13.3-8.426v-16.856z" fill="#fdb797"/><path data-name="Path 11764" d="M1126.107 161.904s-5.766 12.418-5.1 14.42 37.7 0 37.7 0-6.875-6.875-5.544-14.42z" fill="#565171"/><path data-name="Path 11765" d="M1130.542 125.094s.888 8.648-.665 10.645 6.209 3.1 6.868 3.1a73.182 73.182 0 009.092-3.1c1.331-.672 2.432-5.544 2.432-5.544s-6.652 1.331-8.648-6.428z" fill="#fdb797"/><path data-name="Path 11766" d="M1128.219 102.911a6.682 6.682 0 00-3.946 3.4 9.085 9.085 0 01-.761 1.7c-.806 1.126-2.385 1.338-3.508 2.149a5.152 5.152 0 00-1.774 4.765 15.178 15.178 0 001.809 4.984 15.458 15.458 0 003.084 4.639c.643.589 1.432 1.136 1.637 1.984a15.573 15.573 0 01-.069 2.234c.16 1.843 2.363 2.7 4.2 2.907a2.716 2.716 0 002.278-.481 3.962 3.962 0 00.617-1.067 5.113 5.113 0 019.119-.094c.431.83.683 1.836 1.468 2.344 1.2.777 2.809-.135 3.694-1.258s1.529-2.533 2.792-3.205a2.917 2.917 0 001.128-.716c.485-.653.073-1.624.4-2.368.248-.559.858-.869 1.216-1.362.73-1.018.2-2.432-.347-3.553l-3.169-6.55a28.891 28.891 0 00-2.99-5.24c-3.753-4.899-10.983-7.335-16.878-5.212z" fill="#8f5a6a"/><path data-name="Path 11767" d="M1136.309 137.291s8.648 0 10.865-7.983l7.279 5.641a4.691 4.691 0 011.791 3.237l.695 6.868s.777 2.55-.111 4.1c0 0-9.208-2.328-9.425.332l6.425 17.962s-9.979.222-12.639-1.551c0 0-10.865 2.217-13.527-.222s-5.322-2.217-3.1-7.761a10.975 10.975 0 01-2.432-10.645c2-6.209.111.111.111.111s-4.324-2.107-4.1-6.1l.443-4s.024-.132.085-.37c1.352-5.261 4.984-8.165 10.09-6.313a4.682 4.682 0 003.018-.078s-1.676 7.222 4.532 6.772z" opacity=".1"/><path data-name="Path 11768" d="M1136.309 136.848s8.648 0 10.865-7.983l7.279 5.641a4.691 4.691 0 011.791 3.235l.695 6.868s.777 2.55-.111 4.1c0 0-9.208-2.328-9.425.332l6.428 17.962s-9.979.222-12.639-1.551c0 0-10.865 2.217-13.527-.222s-5.322-2.217-3.1-7.761a10.975 10.975 0 01-2.432-10.645c2-6.209.111.111.111.111s-4.324-2.107-4.1-6.1l.443-4s.024-.132.085-.37c1.352-5.261 4.984-8.165 10.09-6.313a4.682 4.682 0 003.018-.078s-1.678 7.217 4.529 6.774z" fill="#b45181"/><path data-name="Path 11769" d="M1156.819 144.387s-.443 15.744-.888 17.74-6.875 7.983-10.2 8.205c0 0-3.548 8.426-7.54 7.1s-4.435-8.426-2.432-9.314l13.3-8.426v-16.856z" fill="#fdb797"/><path data-name="Path 11770" d="M1147.287 144.94s5.1 3.461 9.535 3.172c0 0 .443-5.943-.888-6.275s-7.096 0-8.647 3.103z" opacity=".1"/><path data-name="Path 11771" d="M1147.287 144.721s5.1 3.461 9.535 3.171c0 0 .443-5.943-.888-6.275s-7.096-.001-8.647 3.104z" fill="#b45181"/><path data-name="Path 11772" d="M1140.077 124.207l-9.091 1.331s.205 2 .245 4.3a10.205 10.205 0 0010.7-1.737 10.056 10.056 0 01-1.854-3.894z" opacity=".1"/><circle data-name="Ellipse 38845" cx="10.2" cy="10.2" transform="translate(1124.557 109.795)" fill="#fdb797" r="10.2"/><path data-name="Path 11773" d="M1137.441 118.035a3.166 3.166 0 01-1.364.195q-2.707-.017-5.408-.2a6.63 6.63 0 01-3.874-1.126 4.424 4.424 0 01-.91-5.071 9.006 9.006 0 013.8-3.888 11.344 11.344 0 012.87-1.3 9.587 9.587 0 018.48 2.128 15.005 15.005 0 014.587 7.684c.271 1.013.618 2.219 1.621 2.526a2.735 2.735 0 01-3.466.73c-1.723-.82-2.606-3.958-4.154-4.451-1.723-.546-.719 2.103-2.182 2.773z" opacity=".1"/><path data-name="Path 11774" d="M1137.439 117.811a3.166 3.166 0 01-1.364.195q-2.707-.017-5.408-.2a6.631 6.631 0 01-3.874-1.126 4.424 4.424 0 01-.91-5.071 9.006 9.006 0 013.8-3.888 11.344 11.344 0 012.865-1.293 9.587 9.587 0 018.48 2.128 15.005 15.005 0 014.587 7.684c.271 1.013.619 2.219 1.621 2.526a2.735 2.735 0 01-3.466.73c-1.723-.82-2.606-3.958-4.154-4.451-1.718-.551-.714 2.095-2.177 2.766z" fill="#8f5a6a"/><path data-name="Path 11775" d="M1124.445 157.359a39.281 39.281 0 0110.2-1.331" opacity=".1"/><path data-name="Path 11776" d="M1147.286 145.385s-3.327 2.432-2.432 3.77" opacity=".1"/><g data-name="Group 5503"><path data-name="Path 11777" d="M127.88 578.64h108.879v9.519h-6.338v29.953h-96.429v-29.953h-6.112z" transform="translate(927.458 -408.113)" fill="url(#b)" opacity=".7"/></g><path data-name="Rectangle 4821" fill="#e0e0e0" d="M1062.434 176.072h94.464V210h-94.464z"/><path data-name="Rectangle 4822" opacity=".1" d="M1062.434 177.846h94.464v5.321h-94.464z"/><path data-name="Rectangle 4823" fill="#e0e0e0" d="M1056.447 172.301h106.662v9.091h-106.662z"/><rect data-name="Rectangle 4824" width="20.402" height="2.882" rx="1.441" transform="translate(1122.553 170.064)" fill="#535461"/><g data-name="Group 5504"><rect data-name="Rectangle 4825" width="50.704" height="35.059" rx="17.53" transform="translate(1079.834 137.924)" fill="url(#b)" opacity=".7"/></g><rect data-name="Rectangle 4826" width="48.032" height="34.411" rx="3" transform="translate(1081.6 138.572)" fill="#3e3f49"/><rect data-name="Rectangle 4827" width="48.032" height="34.411" rx="3" transform="translate(1081.51 138)" fill="#535461" opacity=".5"/><circle data-name="Ellipse 38846" cx="2.551" cy="2.551" transform="translate(1102.51 153)" fill="#e0e0e0" r="2.551"/><g data-name="Group 5505" transform="translate(965.51 92.445)"><path data-name="Path 11792" d="M10.669 18.619H44.79a1.551 1.551 0 100-3.1H10.669a1.551 1.551 0 100 3.1z" fill="#ccc"/><path data-name="Path 11793" d="M32.964 12.029h11.831a1.551 1.551 0 000-3.1H32.964a1.551 1.551 0 000 3.1z" fill="#ccc"/><circle data-name="Ellipse 38854" cx="6.592" cy="6.592" transform="translate(53.653 7.326)" fill="#3cc480" r="6.592"/><path data-name="Path 11794" d="M7.249 3.837h61.457a3.3 3.3 0 013.3 3.3v13.571a3.3 3.3 0 01-3.3 3.3H7.249a3.3 3.3 0 01-3.3-3.3V7.133a3.3 3.3 0 013.3-3.296zM4.341 20.704a2.911 2.911 0 002.908 2.908h61.457a2.912 2.912 0 002.908-2.908V7.133a2.912 2.912 0 00-2.908-2.908H7.249a2.911 2.911 0 00-2.908 2.908z" fill="#3f3d56"/><circle data-name="Ellipse 38855" cx="4.5" cy="4.5" fill="#3cc480" r="4.5"/><path data-name="Path 11795" d="M4.479 7.312a.193.193 0 00.057-.137V2.24a.194.194 0 00-.388 0v4.935a.194.194 0 00.331.137z" fill="#fff"/><path data-name="Path 11796" d="M6.942 4.846a.194.194 0 00-.137-.331H1.87a.194.194 0 000 .388h4.935a.193.193 0 00.137-.057z" fill="#fff"/></g><g data-name="Group 5506" transform="translate(1019.029 122.479)"><path data-name="Path 11792" d="M8.002 13.964h25.591a1.163 1.163 0 000-2.326H8.002a1.163 1.163 0 000 2.326z" fill="#ccc"/><path data-name="Path 11793" d="M24.724 9.02h8.87a1.163 1.163 0 100-2.326h-8.87a1.163 1.163 0 100 2.326z" fill="#ccc"/><circle data-name="Ellipse 38854" cx="4.944" cy="4.944" transform="translate(40.24 5.494)" fill="#3cc480" r="4.944"/><path data-name="Path 11794" d="M5.437 2.878H51.53a2.475 2.475 0 012.472 2.472v10.178A2.475 2.475 0 0151.53 18H5.437a2.475 2.475 0 01-2.472-2.472V5.35a2.475 2.475 0 012.472-2.472zm-2.181 12.65a2.184 2.184 0 002.181 2.181H51.53a2.184 2.184 0 002.181-2.181V5.35a2.184 2.184 0 00-2.181-2.181H5.437A2.184 2.184 0 003.256 5.35z" fill="#3f3d56"/><circle data-name="Ellipse 38855" cx="3.5" cy="3.5" fill="#3cc480" r="3.5"/><path data-name="Path 11795" d="M3.359 5.485a.145.145 0 00.042-.1v-3.7a.145.145 0 00-.291 0v3.7a.145.145 0 00.248.1z" fill="#fff"/><path data-name="Path 11796" d="M5.209 3.63a.145.145 0 00-.1-.248h-3.7a.145.145 0 000 .291h3.7a.145.145 0 00.1-.043z" fill="#fff"/></g><g data-name="Group 5507" transform="translate(989.361 146.512)"><path data-name="Path 11792" d="M8.002 13.964h25.591a1.163 1.163 0 000-2.326H8.002a1.163 1.163 0 000 2.326z" fill="#ccc"/><path data-name="Path 11793" d="M24.724 9.02h8.87a1.163 1.163 0 100-2.326h-8.87a1.163 1.163 0 100 2.326z" fill="#ccc"/><circle data-name="Ellipse 38854" cx="4.944" cy="4.944" transform="translate(40.24 5.494)" fill="#3cc480" r="4.944"/><path data-name="Path 11794" d="M5.437 2.878H51.53a2.475 2.475 0 012.472 2.472v10.178A2.475 2.475 0 0151.53 18H5.437a2.475 2.475 0 01-2.472-2.472V5.35a2.475 2.475 0 012.472-2.472zm-2.181 12.65a2.184 2.184 0 002.181 2.181H51.53a2.184 2.184 0 002.181-2.181V5.35a2.184 2.184 0 00-2.181-2.181H5.437A2.184 2.184 0 003.256 5.35z" fill="#3f3d56"/><circle data-name="Ellipse 38855" cx="3.5" cy="3.5" fill="#3cc480" r="3.5"/><path data-name="Path 11795" d="M3.359 5.485a.145.145 0 00.042-.1v-3.7a.145.145 0 00-.291 0v3.7a.145.145 0 00.248.1z" fill="#fff"/><path data-name="Path 11796" d="M5.209 3.63a.145.145 0 00-.1-.248h-3.7a.145.145 0 000 .291h3.7a.145.145 0 00.1-.043z" fill="#fff"/></g><g data-name="Group 5510" transform="translate(1045.121 75.867)"><path data-name="Path 11696" d="M568.885 20.39v43.86H504.5V20.39z" transform="translate(-504.5 -20.39)" fill="url(#b)"/><path data-name="Rectangle 4810" fill="#fff" d="M.683 1.99h62.748v41.076H.683z"/><path data-name="Rectangle 4811" fill="#eee" d="M.683.036h62.748v3.022H.683z"/><circle data-name="Ellipse 38838" cx=".733" cy=".733" transform="translate(60.309 .769)" fill="#ff5252" r=".733"/><circle data-name="Ellipse 38839" cx=".733" cy=".733" transform="translate(58.294 .769)" fill="#ff0" r=".733"/><circle data-name="Ellipse 38840" cx=".733" cy=".733" transform="translate(56.28 .769)" fill="#69f0ae" r=".733"/><path data-name="Rectangle 4812" fill="#3cc480" opacity=".5" d="M37.642 7.899h23.382v.974H37.642z"/><path data-name="Rectangle 4813" fill="#3cc480" opacity=".5" d="M37.642 9.847h23.382v.974H37.642z"/><path data-name="Rectangle 4814" fill="#3cc480" opacity=".5" d="M37.642 11.796h23.382v.974H37.642z"/><path data-name="Rectangle 4815" fill="#3cc480" opacity=".5" d="M37.645 13.744h15.322v.974H37.645z"/><path data-name="Rectangle 4816" fill="#3cc480" opacity=".5" d="M48.713 15.693h12.312v.974H48.713z"/><path data-name="Rectangle 4817" fill="#3cc480" opacity=".5" d="M44.906 17.643h9.477v.974h-9.477z"/><path data-name="Rectangle 4818" fill="#3cc480" opacity=".5" d="M6.997 14.72h27.546v15.854H6.997z"/><path data-name="Rectangle 4819" fill="#eee" d="M3.72 16.224h27.546v15.854H3.72z"/><path data-name="Path 11697" d="M15.855 32.075h15.411v-2.9c-3.765-1.76-9.558-2.746-15.411 2.9z" fill="#3cc480"/><g data-name="Group 5501"><path data-name="Path 11698" d="M3.897 31.663v.411h19.22v-.088s-9.457-9.204-19.22-.323z" opacity=".1"/></g><path data-name="Path 11699" d="M3.721 31.663v.411h19.22v-.088s-9.458-9.204-19.22-.323z" fill="#3cc480"/><circle data-name="Ellipse 38841" cx="1.417" cy="1.417" transform="translate(26.659 17.643)" fill="#3cc480" r="1.417"/><path data-name="Path 11700" d="M16.013 17.985c.162 0 .343 0 .465.01a.566.566 0 01.162.033l.834.3c-.673.017-1.376.012-2.065 0l-3.869-.029c-.394 0-.81-.006-1.139-.031-.221-.015-.383-.04-.585-.057-.732-.065-1.8-.052-2.754-.05a15.051 15.051 0 01-2.441-.117h2.047c.221 0 .453 0 .648-.011.228-.013.367-.038.567-.056.331-.028.788-.032 1.214-.033 2.335-.002 4.635.054 6.916.041z" fill="#f4f4f4"/><path data-name="Path 11701" d="M13.717 19.706h.1a.128.128 0 01.034.008l.181.065h-.448l-.838-.006c-.085 0-.175 0-.246-.006l-.127-.013c-.158-.014-.39-.011-.6-.01a3.253 3.253 0 01-.529-.025h.584c.042 0 .079-.009.128-.011.071 0 .171-.006.263-.008.506-.004 1.004.006 1.498.006z" fill="#f4f4f4"/><path data-name="Path 11702" d="M19.651 22.184h.1a.128.128 0 01.034.008l.181.065h-.448l-.838-.006c-.085 0-.175 0-.246-.006l-.128-.013c-.158-.014-.39-.011-.6-.01a3.253 3.253 0 01-.529-.026h.584c.042 0 .079-.009.128-.011.071 0 .171-.006.263-.008.505-.002 1.005.01 1.499.007z" fill="#f4f4f4"/><path data-name="Path 11703" d="M22.982 31.293h.661s.208-7.284-.666-9.532h-.167s.59 8.243.172 9.532z" fill="#3cc480"/><path data-name="Path 11704" d="M23.441 21.387a4.584 4.584 0 01.291 2.168s-.375-1.373-.812-1.581-.893 1.581-.893 1.581a3.432 3.432 0 01.208-2.04 3.619 3.619 0 00-1.373 1.456s-.083-.625 1-1.913a4.306 4.306 0 00-1.581.833s-.208-.458 1.083-1.208c0 0-.167-.541-1.166-.291 0 0 0-.708 1.581-.583 0 0 0-.458-1.041-.375 0 0 0-.583 1.208-.375a1.943 1.943 0 00-.416-.458.837.837 0 01.583.167 1.126 1.126 0 01.583-1.041l.083 1.041s.7-.825.541-.666a1.826 1.826 0 00-.128.791 1.3 1.3 0 011.581.042s-1.083.083-1.248.458a3.143 3.143 0 011.123-.042s-.708.255-.666.416c0 0 1.248 0 1.415.458a6.325 6.325 0 00-1.373.291 8.811 8.811 0 011.581 1.373 11.949 11.949 0 00-1.785-.916c-.245 0 1.123 1.333 1.041 1.665-.006 0-1.129-1.335-1.42-1.251z" fill="#3cc480"/><path data-name="Path 11705" d="M14.769 31.021h-.51s-.159-5.565.51-7.282h.127s-.445 6.295-.127 7.282z" fill="#3cc480"/><path data-name="Path 11706" d="M14.419 23.452a3.522 3.522 0 00-.223 1.658s.286-1.049.62-1.209.683 1.209.683 1.209a2.65 2.65 0 00-.159-1.558 2.765 2.765 0 011.049 1.113s.064-.477-.765-1.463a3.223 3.223 0 011.209.638s.159-.349-.826-.922c0 0 .128-.413.893-.223 0 0 0-.541-1.209-.445 0 0 0-.349.794-.286 0 0 0-.445-.922-.286a1.4 1.4 0 01.317-.349.638.638 0 00-.445.128.86.86 0 00-.445-.794l-.064.794s-.534-.63-.413-.51a1.4 1.4 0 01.1.6.992.992 0 00-1.209.032s.826.064.954.349a2.4 2.4 0 00-.858-.032s.541.191.51.318c0 0-.954 0-1.081.349a4.779 4.779 0 011.049.223s-1.148.826-1.209 1.049a9.033 9.033 0 011.367-.7c.19 0-.858 1.02-.794 1.275-.005-.004.854-1.022 1.077-.958z" fill="#3cc480"/><path data-name="Path 11707" d="M8.681 29.933h-.315a19.573 19.573 0 01.315-4.51h.079a32.46 32.46 0 00-.079 4.51z" fill="#3cc480"/><path data-name="Path 11708" d="M8.469 25.245a2.168 2.168 0 00-.138 1.02s.177-.65.383-.748.423.748.423.748a1.645 1.645 0 00-.1-.965 1.713 1.713 0 01.65.69s.04-.3-.473-.905a2 2 0 01.749.394s.1-.217-.51-.571c0 0 .079-.255.551-.138 0 0 0-.335-.748-.275 0 0 0-.217.492-.177 0 0 0-.275-.571-.177a.869.869 0 01.2-.217.4.4 0 00-.275.079.533.533 0 00-.275-.492l-.039.492s-.332-.39-.255-.315a.862.862 0 01.059.374.613.613 0 00-.748.019s.51.04.59.217a1.473 1.473 0 00-.532-.019s.335.119.315.2c0 0-.59 0-.669.217a2.993 2.993 0 01.65.138s-.709.51-.748.65a5.552 5.552 0 01.847-.434c.119 0-.532.63-.492.788-.01-.002.52-.632.664-.593z" fill="#3cc480"/><path data-name="Path 11709" d="M911.946 261.656l.066-.354a.193.193 0 01.06-.139l.307-.15a.347.347 0 00.055-.092v-.008a.185.185 0 01-.036-.073.114.114 0 010-.02.114.114 0 01-.128-.092v-.008a.113.113 0 00.1.085.314.314 0 01-.139-.255v-.013a.113.113 0 01-.052-.077v-.008a.113.113 0 00.055.071.311.311 0 01.019-.085h-.008a.113.113 0 01-.113-.114v-.008a.113.113 0 00.113.106h.014a.186.186 0 01-.128-.152v-.008a.113.113 0 00.023.061.114.114 0 11.226-.033l.02-.011a.113.113 0 00-.1-.083h.008a.113.113 0 01.11.077.314.314 0 01.4.113c.024.018.055.043.054.065a.216.216 0 01.027.033.435.435 0 01.036.236.255.255 0 00.082.217.108.108 0 01-.084 0 .317.317 0 01-.074-.043.165.165 0 01-.052-.05.253.253 0 01-.047.024c-.006.054-.008.115.015.134v-.01a.288.288 0 00.2.057.255.255 0 01.206.128l.1.409v.012a.031.031 0 01-.023.023l-.029.008a.621.621 0 000 .2 1.75 1.75 0 01.034.3c-.008.051-.02.314-.026.439a1.3 1.3 0 01.026.128l.143.856s.106.685.1.893l.019.12s.289.363.2.414-.216.074-.34-.12a.312.312 0 00-.079-.12.117.117 0 01-.04-.1l.009-.084h-.024a2.957 2.957 0 01-.128-.8 3.633 3.633 0 00-.465-1.089l-.019-.009-.043.91.043 1 .009.06s.289.363.2.414-.216.074-.34-.12a.311.311 0 00-.079-.12.117.117 0 01-.04-.1l.013-.128a2.6 2.6 0 01-.128-.939l-.088-.6a.634.634 0 01-.076-.353 3.258 3.258 0 01-.085-.719l-.018-.283h-.054l-.006-.008v-.006zm.247.575a.612.612 0 01.027-.059h.008v-.022a.258.258 0 01-.01-.029.111.111 0 01-.017-.061.58.58 0 00-.013.171zm.027-.242l.018-.19v-.015l-.024.241zm.84.026a.066.066 0 01.015.051.215.215 0 01-.008.057l.028.119v-.227a.5.5 0 01-.047-.077.128.128 0 00.005.077z" transform="translate(-891.745 -235.62)" fill="url(#c)"/><path data-name="Path 11710" d="M21.13 24.932a.419.419 0 01.034.227.241.241 0 00.079.209.1.1 0 01-.08 0 .305.305 0 01-.071-.042.157.157 0 01-.05-.048.189.189 0 01-.012-.1 1.017 1.017 0 00-.015-.172c0-.036-.039-.128 0-.15s.097.048.115.076z" fill="#72351c"/><path data-name="Path 11711" d="M21.715 28.697l.027.175s.279.351.2.4-.208.071-.328-.115a.3.3 0 00-.077-.115.113.113 0 01-.038-.1l.027-.27z" fill="#333"/><path data-name="Path 11712" d="M20.875 28.767l.027.175s.279.351.2.4-.208.071-.328-.115a.3.3 0 00-.076-.115.113.113 0 01-.038-.1l.027-.27z" fill="#333"/><path data-name="Path 11713" d="M21.311 26.649a.66.66 0 01.18.425l.138.824a7.275 7.275 0 01.094.893l-.232.079a2.846 2.846 0 01-.128-.765s-.279-.993-.474-1.063l-.041.877.043.99-.2.04a2.7 2.7 0 01-.138-.961l-.1-.708a1.048 1.048 0 01.046-.705z" fill="#4d8af0"/><g data-name="Group 5502" opacity=".1"><path data-name="Path 11714" d="M20.912 27.052v-.015c.2.07.474 1.063.474 1.063a2.794 2.794 0 00.12.757l-.025.009a2.849 2.849 0 01-.128-.765 3.463 3.463 0 00-.441-1.049z"/><path data-name="Path 11715" d="M20.494 26.569h.027a1.049 1.049 0 00-.045.7l.1.708a2.67 2.67 0 00.135.956h-.026a2.7 2.7 0 01-.138-.961l-.1-.708a1.049 1.049 0 01.047-.695z"/></g><path data-name="Path 11716" d="M21.49 26.004a.029.029 0 01-.023.029.459.459 0 00-.176.084c-.1.077.1-.153.1-.153l.068.015z" fill="#f55f44"/><path data-name="Path 11717" d="M21.49 26.004a.029.029 0 01-.023.029.459.459 0 00-.176.084c-.1.077.1-.153.1-.153l.068.015z" opacity=".1"/><path data-name="Path 11718" d="M20.53 26.209a.615.615 0 00-.277-.11.026.026 0 01-.026-.026.221.221 0 01.3.135z" fill="#f55f44"/><path data-name="Path 11719" d="M20.228 26.069a.221.221 0 01.3.135.522.522 0 00-.289-.11" opacity=".1"/><circle data-name="Ellipse 38842" cx=".302" cy=".302" transform="translate(20.498 24.7)" fill="#72351c" r=".302"/><path data-name="Path 11720" d="M21.009 25.213s-.043.177 0 .214.128.1.064.156-.3.14-.372.1-.164-.031-.144-.119.189-.07.193-.51z" fill="#fdb797"/><path data-name="Path 11721" d="M21.435 25.953a1.1 1.1 0 00.018.287 1.691 1.691 0 01.033.289c-.009.064-.028.486-.028.486s.033.37-.147.335.028-.421.028-.421l-.009-.51a.47.47 0 01-.092-.226c-.007-.112.197-.24.197-.24z" opacity=".1"/><path data-name="Path 11722" d="M21.44 25.953a1.108 1.108 0 00.018.287 1.679 1.679 0 01.033.289c-.009.064-.028.486-.028.486s.033.37-.147.335.028-.421.028-.421l-.009-.51a.47.47 0 01-.092-.226c-.008-.112.197-.24.197-.24z" fill="#fdb797"/><path data-name="Path 11723" d="M20.288 25.978l.024.394a3.141 3.141 0 00.083.692s-.018.383.162.383-.031-.425-.031-.425a1.738 1.738 0 01-.047-.569l.047-.473z" opacity=".1"/><path data-name="Path 11724" d="M20.286 25.978l.024.394a3.138 3.138 0 00.083.692s-.018.383.162.383-.031-.425-.031-.425a1.738 1.738 0 01-.047-.569l.047-.473z" fill="#fdb797"/><path data-name="Path 11725" d="M20.87 25.596s-.145.068-.226-.128l-.3.145a.185.185 0 00-.057.134l-.064.342a.218.218 0 01.284.128l-.018.193a.207.207 0 00.009.144.031.031 0 010 .026.094.094 0 00.086.128 1.8 1.8 0 01.238.018c.064.018.255-.037.32 0s.2-.028.2-.028l-.037-.156s.024-.077 0-.1a.665.665 0 01.015-.333s.11-.1.173-.085l-.092-.394a.24.24 0 00-.2-.128.278.278 0 01-.193-.055s.078.125-.138.149z" opacity=".1"/><path data-name="Path 11726" d="M20.855 25.59c-.039.01-.147.023-.21-.138l-.3.145a.185.185 0 00-.057.134l-.064.342a.218.218 0 01.284.128l-.018.193-.011.038a.108.108 0 00.015.1.035.035 0 010 .036.094.094 0 00.085.128 1.8 1.8 0 01.238.018c.064.018.255-.037.32 0s.2-.028.2-.028l-.037-.156s.024-.076 0-.1a.664.664 0 01.015-.333s.11-.1.173-.085l-.092-.394a.24.24 0 00-.2-.128.278.278 0 01-.193-.055s.071.128-.117.159z" opacity=".1"/><path data-name="Path 11727" d="M20.855 25.596c-.04.01-.147.023-.21-.138l-.3.145a.185.185 0 00-.057.134l-.064.342a.218.218 0 01.284.128l-.018.193a.207.207 0 00.009.144.031.031 0 010 .026.094.094 0 00.086.128 1.809 1.809 0 01.238.018c.064.018.255-.037.32 0s.2-.028.2-.028l-.037-.156s.024-.076 0-.1a.664.664 0 01.015-.333s.11-.1.173-.085l-.092-.394a.24.24 0 00-.2-.128.278.278 0 01-.193-.055s.071.127-.117.159z" fill="#f55f44"/><path data-name="Path 11728" d="M20.744 25.068l.255.162a.855.855 0 00-.015.084.256.256 0 01-.093.018.262.262 0 01-.168-.077 1.008 1.008 0 00.021-.187z" opacity=".1"/><circle data-name="Ellipse 38843" cx=".25" cy=".25" transform="translate(20.65 24.816)" fill="#fdb797" r=".25"/><circle data-name="Ellipse 38844" cx=".11" cy=".11" transform="translate(20.421 24.654)" fill="#72351c" r=".11"/><path data-name="Path 11729" d="M20.51 24.88a.11.11 0 00.11-.1v.008a.11.11 0 01-.219 0v-.008a.11.11 0 00.109.1z" fill="#72351c"/><path data-name="Path 11730" d="M20.568 24.989a.11.11 0 00.089-.12v.008a.11.11 0 01-.217.04v-.008a.11.11 0 00.128.08z" fill="#72351c"/><path data-name="Path 11731" d="M20.658 25.253a.11.11 0 00.089-.12v.008a.11.11 0 11-.217.039v-.007a.11.11 0 00.128.08z" fill="#72351c"/><path data-name="Path 11732" d="M20.51 24.822a.11.11 0 00.11-.1v.008a.11.11 0 11-.219 0v-.008a.11.11 0 00.109.1z" fill="#72351c"/><path data-name="Path 11733" d="M20.663 24.762a.11.11 0 00-.1-.108h.008a.11.11 0 010 .219h-.008a.11.11 0 00.1-.111z" fill="#72351c"/><path data-name="Path 11734" d="M20.552 25.799a.4.4 0 000 .164s.015.144-.009.168" opacity=".1"/><path data-name="Path 11735" d="M21.292 25.825a.393.393 0 000 .164s.015.144-.009.168" opacity=".1"/><path data-name="Path 11736" d="M21.301 26.421a.109.109 0 01-.073 0 .154.154 0 00-.088 0" opacity=".1"/><path data-name="Path 11737" d="M21.264 26.208a.638.638 0 01-.255-.04s-.311.076-.4.022" opacity=".1"/><rect data-name="Rectangle 4820" width=".193" height=".119" rx=".059" transform="translate(21.297 27.521)" fill="#fdb797"/><path data-name="Path 11738" d="M21.49 27.552h-.1l-.089.014h.032z" fill="#f0e4e4"/><path data-name="Path 11739" d="M20.796 27.057h-.1l-.089.009h.032z" fill="#f0e4e4"/><path data-name="Path 11740" d="M20.796 27.078h-.1l-.089.009h.032z" fill="#f0e4e4"/><path data-name="Path 11741" d="M20.796 27.101h-.1l-.089.009h.032z" fill="#f0e4e4"/><path data-name="Path 11742" d="M20.796 27.12h-.1l-.089.009h.032z" fill="#f0e4e4"/><path data-name="Path 11743" d="M21.49 27.635h-.1l-.089.01h.032z" fill="#f0e4e4"/><path data-name="Path 11744" d="M21.49 27.625h-.1l-.089.01h.032z" fill="#f0e4e4"/><path data-name="Path 11745" d="M21.49 27.612h-.1l-.089.01h.032z" fill="#f0e4e4"/><path data-name="Path 11746" d="M21.49 27.603h-.1l-.089.01h.032z" fill="#f0e4e4"/><path data-name="Path 11747" d="M21.49 27.537h-.1l-.089.014h.032z" fill="#f0e4e4"/><path data-name="Path 11748" d="M21.49 27.519h-.1l-.089.014h.032z" fill="#f0e4e4"/><path data-name="Path 11749" d="M20.858 24.906a.605.605 0 01-.034.275.329.329 0 00.015.263.087.087 0 01-.078-.019.3.3 0 01-.056-.066.177.177 0 01-.034-.069.274.274 0 01.018-.116 1.5 1.5 0 00.037-.207c0-.042 0-.164.047-.176s.074.079.085.115z" opacity=".1"/><path data-name="Path 11750" d="M20.852 24.903a.605.605 0 01-.034.275.329.329 0 00.014.265.087.087 0 01-.078-.019.3.3 0 01-.056-.066.177.177 0 01-.034-.069.274.274 0 01.018-.116 1.491 1.491 0 00.037-.207c0-.042 0-.164.047-.176s.073.077.086.113z" fill="#72351c"/><path data-name="Path 11751" d="M20.96 24.968c-.02.022-.026.055-.043.08a.157.157 0 01-.128.05.07.07 0 00-.036.008c-.019.013-.02.041-.033.06a.07.07 0 01-.1 0 .171.171 0 01-.031-.1.685.685 0 010-.128.2.2 0 01.056-.135.234.234 0 01.1-.042.29.29 0 01.152-.012.274.274 0 01.069.034l.089.06c.033.023.094.069.034.094-.049.005-.099-.004-.129.031z" opacity=".1"/><path data-name="Path 11752" d="M20.953 24.965c-.02.022-.026.055-.043.08a.157.157 0 01-.128.05.07.07 0 00-.036.008c-.019.013-.02.041-.033.06a.07.07 0 01-.1 0 .171.171 0 01-.04-.11.7.7 0 010-.128.2.2 0 01.056-.135.234.234 0 01.1-.042.291.291 0 01.152-.011.272.272 0 01.069.034l.089.06c.033.023.094.069.034.094a.215.215 0 00-.12.04z" fill="#72351c"/><path data-name="Path 11753" d="M20.791 27.057h-.1l-.089.009h.032z" fill="#f0e4e4"/><path data-name="Path 11754" d="M20.791 27.078h-.1l-.089.009h.032z" fill="#f0e4e4"/><path data-name="Path 11755" d="M20.791 27.101h-.1l-.089.009h.032z" fill="#f0e4e4"/><path data-name="Path 11756" d="M20.791 27.12h-.1l-.089.009h.032z" fill="#f0e4e4"/><path data-name="Path 11757" d="M20.839 28.298h-.1l-.089.009h.032z" fill="#f0e4e4"/><path data-name="Path 11758" d="M20.839 28.318h-.1l-.089.009h.032z" fill="#f0e4e4"/><path data-name="Path 11759" d="M20.839 28.339h-.1l-.089.009h.032z" fill="#f0e4e4"/><path data-name="Path 11760" d="M20.839 28.361h-.1l-.089.009h.032z" fill="#f0e4e4"/><g data-name="Group 5508" fill="#3cc480"><path data-name="Path 11797" d="M44.107 32.482a3.832 3.832 0 11-2.709 1.122 3.816 3.816 0 012.709-1.122zm2.5 1.334a3.537 3.537 0 101.033 2.5 3.529 3.529 0 00-1.033-2.5z"/><path data-name="Path 11798" d="M44.271 35.529v-.314a.164.164 0 01.172-.187h.439v-.672h-.6a.76.76 0 00-.823.819v.352h-.39v.783h.394v1.956h.783v-1.954h.579l.025-.308.047-.475z" fill-rule="evenodd"/></g><g data-name="Group 5509" fill="#3cc480"><path data-name="Path 11799" d="M54.396 31.512a4.63 4.63 0 11-3.274 1.356 4.612 4.612 0 013.274-1.356zm3.02 1.612a4.274 4.274 0 101.248 3.017 4.265 4.265 0 00-1.248-3.017z"/><path data-name="Path 11800" d="M56.119 34.682h-3.446a.332.332 0 00-.332.331v2.258a.332.332 0 00.332.331h3.446a.331.331 0 00.331-.331v-2.258a.332.332 0 00-.331-.331zm.219.224l-1.7 1.481a.381.381 0 01-.486 0l-1.7-1.484a.066.066 0 11.087-.1l1.7 1.484a.249.249 0 00.313 0l1.7-1.482a.066.066 0 01.087.1z"/></g></g><path data-name="Rectangle 4828" fill="#e0e0e0" d="M970 210h210v3H970z"/></g></svg>