<svg xmlns="http://www.w3.org/2000/svg" width="69" height="60.258" viewBox="0 0 69 60.258"><path data-name="Path 11602" d="M67.958 58.903l-.358.495a2.04 2.04 0 01-1.161.36H2.561a2.049 2.049 0 01-1.116-.33l-.33-.439.11-.061 32.338-17.925a1.942 1.942 0 011.875 0l32.407 17.839z" fill="#99acc2"/><path data-name="Path 11603" d="M66.439 21.212L38.413 5.027a7.76 7.76 0 00-7.755 0l-28.1 16.189a2.064 2.064 0 00-2.061 2.061v34.421a2.063 2.063 0 002.061 2.061h63.879a2.064 2.064 0 002.063-2.061V23.273a2.064 2.064 0 00-2.061-2.061zm1.818 36.485a1.823 1.823 0 01-1.818 1.818H2.561a1.821 1.821 0 01-1.818-1.818V23.273a1.82 1.82 0 011.818-1.818l28.1-16.189a7.76 7.76 0 017.755 0l28.026 16.186a1.82 1.82 0 011.818 1.818z" fill="#3f3d56" stroke="#80899a"/><path data-name="Path 11604" d="M34.537 40.689a1.862 1.862 0 01-.62-.1l-.037-.013-.007-.081-.069.032-.024.011-.024-.011c-.051-.022-.1-.048-.151-.075L11.288 27.907v-25.6A2.245 2.245 0 0113.53.061h41.939a2.245 2.245 0 012.242 2.242V27.94l-.031.017-22.212 12.49a1.91 1.91 0 01-.933.242z" fill="#e5e6e8"/><path data-name="Path 11605" d="M34.536 40.749a1.922 1.922 0 01-.64-.107l-.073-.026v-.035l-.041.018-.049-.021a1.89 1.89 0 01-.156-.078l-22.35-12.558V2.3a2.306 2.306 0 012.3-2.3h41.939a2.306 2.306 0 012.3 2.3v25.672L35.498 40.5a1.97 1.97 0 01-.962.249zm-.486-.312a1.757 1.757 0 001.33-.149l22.15-12.455V2.3A2.063 2.063 0 0055.469.239H13.527A2.063 2.063 0 0011.466 2.3v25.5l1.453.816 20.77 11.672q.042.024.086.045.044-.021.086-.045l.163-.092z" fill="#3f3d56"/><path data-name="Path 11606" d="M67.963 22.107l-8.8 4.945-1.515.852-22.212 12.49a1.847 1.847 0 01-.9.234 1.807 1.807 0 01-.6-.1 1.464 1.464 0 01-.158-.061q-.074-.033-.145-.073L12.864 28.718l-1.515-.851-10.293-5.784a.123.123 0 01-.046-.166.121.121 0 01.165-.046l10.175 5.718 1.515.851 20.888 11.738a1.582 1.582 0 00.216.1c.032.012.064.023.1.033a1.608 1.608 0 001.256-.133l22.331-12.555 1.515-.852 8.678-4.879a.121.121 0 01.119.211z" fill="#3f3d56" stroke="#80899a"/><path data-name="Path 11607" d="M20.388 8h-3.394a.97.97 0 010-1.939h3.394a.97.97 0 010 1.939z" fill="#99acc2"/><path data-name="Path 11608" d="M24.388 11.272h-7.394a.97.97 0 110-1.939h7.394a.97.97 0 010 1.939z" fill="#fff"/><path data-name="Path 11609" d="M45.045 20H24.076a.97.97 0 010-1.939h20.97a.97.97 0 010 1.939z" fill="#99acc2"/><path data-name="Path 11610" d="M46.984 23.757H22.015a.97.97 0 010-1.939h24.97a.97.97 0 010 1.939z" fill="#fff"/><path data-name="Path 11611" d="M46.984 27.394H22.015a.97.97 0 010-1.939h24.97a.97.97 0 010 1.939z" fill="#fff"/></svg>