<svg xmlns="http://www.w3.org/2000/svg" width="161.262" height="18.072" viewBox="0 0 161.262 18.072"><g fill="#fff"><path data-name="Path 13091" d="M13.29 12.392H3.447a3.592 3.592 0 003.826 2.792 8.01 8.01 0 004.233-1.324l1.348 2.383a9.926 9.926 0 01-5.727 1.8C2.22 18.047.006 14.7.006 11.187A6.6 6.6 0 016.84 4.3a6.22 6.22 0 016.566 6.6 9.855 9.855 0 01-.116 1.492zM3.447 9.865h6.666A3.173 3.173 0 006.84 7.122a3.36 3.36 0 00-3.393 2.743zm10.859-5.222h3.321v1.829a4.592 4.592 0 014.115-2.19c2.647 0 5.126 1.757 5.126 5.463v8.014h-3.399v-7.1c0-2.118-1.131-3.249-2.767-3.249a3.023 3.023 0 00-3.008 3.321v7.027h-3.388zm23.362 12.345a7.269 7.269 0 01-3.874 1.083c-3.008 0-4.573-1.781-4.573-5.174V7.484h-2.143v-2.84h2.168V0h3.37v4.644h4.331v2.84h-4.333v5.2c0 1.516.577 2.31 1.851 2.31a4.432 4.432 0 002.19-.674z"/><path data-name="Path 13092" d="M50.254 12.392h-9.843a3.592 3.592 0 003.826 2.792 8.008 8.008 0 004.235-1.324l1.348 2.383a9.925 9.925 0 01-5.728 1.8c-4.909 0-7.123-3.345-7.123-6.86A6.6 6.6 0 0143.804 4.3a6.22 6.22 0 016.57 6.594 9.854 9.854 0 01-.119 1.5zm-9.843-2.527h6.666a3.173 3.173 0 00-3.273-2.743 3.36 3.36 0 00-3.393 2.743zm32.256 1.324a6.692 6.692 0 017.051-6.883 6.544 6.544 0 016.117 3.658l-2.719 1.492a3.907 3.907 0 00-3.345-2 3.743 3.743 0 00-.073 7.485 3.876 3.876 0 003.337-1.971l2.743 1.612a6.85 6.85 0 01-6.161 3.465 6.635 6.635 0 01-6.949-6.858zm23.752 5.8a7.27 7.27 0 01-3.874 1.083c-3.008 0-4.573-1.781-4.573-5.174V7.484h-2.137v-2.84h2.166V0h3.369v4.644h4.332v2.84h-4.331v5.2c0 1.516.577 2.31 1.853 2.31a4.43 4.43 0 002.19-.674zM59.38 4.733c0 .989-.013 1.906.007 2.822.007.306-.2.34-.391.432a5.907 5.907 0 00-3.475 4.125 8.335 8.335 0 00-.167 1.664c-.024 1.318-.008 2.637-.008 3.983h-3.6c-.009-.141-.024-.275-.025-.41 0-1.136.046-2.275-.015-3.408a6.158 6.158 0 01.675-3.053 11.08 11.08 0 016.354-5.962c.188-.068.383-.116.643-.193zm-7.606 4.844c0-2.026-.027-3.244-.027-5.321h3.547a1.225 1.225 0 01-.4 1.3 8.652 8.652 0 00-2.874 3.585c-.061.151-.125.3-.187.45zm19.633-.607a4.652 4.652 0 00-2.953-4.531 10.221 10.221 0 00-7.344.04c-.094.032-.226.151-.227.232-.016.909-.01 1.819-.01 2.77.321-.116.578-.223.844-.3a6.9 6.9 0 014.708.118 2.262 2.262 0 011.473 2.746c-.653-.128-1.3-.306-1.962-.369a11.165 11.165 0 00-2.049-.008c-2.162.2-4.1 1.229-4.181 3.942a3.828 3.828 0 001.968 3.879 5.519 5.519 0 005.761-.589c.134-.119.276-.228.5-.412v1.283h3.453a.887.887 0 00.036-.165c0-2.88.064-5.762-.017-8.64zm-5.272 6.417c-2.25.516-3.576-.036-3.54-1.659s1.549-2.1 3.024-1.954a18.567 18.567 0 012.1.3s.664 2.8-1.585 3.318zM97.48.713v3.641h.679V.713h1.254v-.65h-3.188v.65zm2.538 3.641h.664V1.607l1.4 2.044h.2l1.4-2.044v2.747h.674V.063h-.378l-1.79 2.631-1.8-2.631h-.366z"/><path data-name="Path 13094" d="M100.206 17.793a2.033 2.033 0 10-1.8-1 2.033 2.033 0 001.8 1z"/><path d="M114.209 16.635v-2.2h-.043a4.311 4.311 0 01-1.531 1.8 3.924 3.924 0 01-2.229.669 3.424 3.424 0 01-2.481-.881 2.959 2.959 0 01-.913-2.224q0-2.879 3.813-3.48l3.384-.5q0-3.545-2.664-3.545a5.427 5.427 0 00-3.534 1.456V6.535a5.388 5.388 0 011.66-.827 6.334 6.334 0 011.971-.344 3.318 3.318 0 012.631 1.055 4.491 4.491 0 01.929 3.062v7.154zm-3.029-5.479a5.247 5.247 0 00-2.428.8 2.159 2.159 0 00-.7 1.8 2.154 2.154 0 00.65 1.611 2.483 2.483 0 001.81.634 3.4 3.4 0 002.644-1.176 4.379 4.379 0 001.053-3.035v-1.074zm14.008 5a5.475 5.475 0 01-2.922.752 4.618 4.618 0 01-3.62-1.542 5.832 5.832 0 01-1.373-4.038 6.067 6.067 0 011.545-4.293 5.174 5.174 0 013.975-1.67 6.038 6.038 0 012.438.516v1.117a4.829 4.829 0 00-2.589-.73 3.95 3.95 0 00-3.137 1.391 5.313 5.313 0 00-1.2 3.6 5.139 5.139 0 001.1 3.438 3.621 3.621 0 002.906 1.3 4.8 4.8 0 002.879-.881zm9.325 0a5.475 5.475 0 01-2.922.752 4.618 4.618 0 01-3.618-1.546 5.832 5.832 0 01-1.375-4.034 6.067 6.067 0 011.544-4.293 5.174 5.174 0 013.975-1.67 6.038 6.038 0 012.438.516v1.117a4.829 4.829 0 00-2.589-.73 3.95 3.95 0 00-3.137 1.391 5.313 5.313 0 00-1.2 3.6 5.139 5.139 0 001.1 3.438 3.621 3.621 0 002.906 1.3 4.8 4.8 0 002.879-.881zm2.439-4.974a5.44 5.44 0 001.047 3.545 3.514 3.514 0 002.874 1.274 5.847 5.847 0 003.609-1.366v1.055a6.429 6.429 0 01-3.809 1.214 4.313 4.313 0 01-3.437-1.525 6.412 6.412 0 01-1.311-4.308 6.135 6.135 0 011.37-4.055 4.411 4.411 0 013.561-1.649 3.718 3.718 0 013.147 1.439 6.346 6.346 0 011.1 3.932v.44zm7.111-.9a4.866 4.866 0 00-.913-2.954 2.843 2.843 0 00-2.342-1.053 3.435 3.435 0 00-2.562 1.03 4.975 4.975 0 00-1.251 2.97zm2.75 5.87v-1.193a4.139 4.139 0 001.354.763 4.253 4.253 0 001.375.279q2.589 0 2.589-2.116a1.621 1.621 0 00-.57-1.25 6.866 6.866 0 00-1.847-1.06 6.273 6.273 0 01-2.218-1.423 2.633 2.633 0 01-.639-1.789 2.653 2.653 0 011.026-2.17 3.9 3.9 0 012.53-.827 4.8 4.8 0 012.428.58v1.117a4.6 4.6 0 00-2.535-.795 2.618 2.618 0 00-1.753.567 1.831 1.831 0 00-.666 1.466 1.887 1.887 0 00.419 1.273 5.617 5.617 0 001.848 1.121 8.093 8.093 0 012.363 1.434 2.407 2.407 0 01.645 1.756 2.743 2.743 0 01-.983 2.165 4 4 0 01-2.712.854 4.482 4.482 0 01-2.654-.752zm8.1 0v-1.193a4.139 4.139 0 001.354.763 4.253 4.253 0 001.375.279q2.589 0 2.589-2.116a1.621 1.621 0 00-.57-1.25 6.866 6.866 0 00-1.847-1.06 6.273 6.273 0 01-2.218-1.423 2.633 2.633 0 01-.639-1.789 2.653 2.653 0 011.026-2.17 3.9 3.9 0 012.53-.827 4.8 4.8 0 012.428.58v1.117a4.6 4.6 0 00-2.535-.795 2.618 2.618 0 00-1.753.567 1.831 1.831 0 00-.666 1.466 1.887 1.887 0 00.419 1.273 5.617 5.617 0 001.848 1.121 8.093 8.093 0 012.363 1.434 2.407 2.407 0 01.645 1.756 2.743 2.743 0 01-.983 2.165 4 4 0 01-2.712.854 4.482 4.482 0 01-2.654-.752z"/></g></svg>