<svg xmlns="http://www.w3.org/2000/svg" width="26.301" height="16" viewBox="0 0 26.301 16"><path data-name="Path 6190" d="M0 16v-3.356c3.524 0 5.285-1.746 6.987-3.434a26.44 26.44 0 011.275-1.209c-.441-.383-.861-.8-1.275-1.209C5.285 5.103 3.524 3.356 0 3.356V0c4.907 0 7.476 2.548 9.35 4.408 1.112 1.1 1.827 1.776 2.589 1.907.091 0 .18-.011.274-.011v.036h8.071L18.9 2.85a.28.28 0 01.43-.325l6.857 5.271a.281.281 0 010 .443l-6.857 5.272a.28.28 0 01-.43-.325l1.379-3.491H12.2a4.28 4.28 0 01-.256-.01c-.763.13-1.477.8-2.589 1.907C7.476 13.456 4.907 16 0 16z" fill="#1da1f3"/></svg>