<svg xmlns="http://www.w3.org/2000/svg" width="427.762" height="350.924" viewBox="0 0 427.762 350.924"><defs><style>.b{fill:#e6e7e8}.c{fill:#fe4777}.d{fill:#fff}.f{fill:#fc8964}.g{fill:#e0dcdc}.j{fill:#ff8f6e}.k{fill:#382d3d}.l{fill:#f5dddd}.n{fill:#cf5e4e}.o{fill:#756f6c}.p{fill:#928a86}.q{fill:#3b3040}.r{fill:#664f5a}.s{fill:#91bae0}.t{fill:#79a3c9}.u{fill:#af6be9}.v{fill:#c96d58}.w{fill:#76a688}.x{fill:#91c9a5}.z{fill:#2a212e}.aa{fill:#4a77f7}.ab{fill:#8a3e3e}.ad{fill:#6f605b}.ae{fill:#e38e2d}.af{fill:#ffb966}.ag{fill:#5c4f4c}.ai{fill:#a36f6f}.aj{fill:#8f5252}</style></defs><g transform="translate(-16 -345)"><path class="b" d="M116.201 383.714h-21.2a2 2 0 01-2-2 2 2 0 012-2h21.2a2 2 0 012 2 2 2 0 01-2 2z" opacity=".4"/><circle class="c" cx="16" cy="16" r="16" transform="translate(90 345)"/><path class="d" d="M110.042 354.003c-2.4 0-4.347 2.3-4.347 2.3s-1.946-2.3-4.347-2.3-4.347 2.266-4.347 5.061c0 4.647 8.695 9.9 8.695 9.9s8.695-5.249 8.695-9.9c-.004-2.798-1.948-5.061-4.349-5.061z"/><path class="b" d="M117.686 444.36l-93.79.12a7.86 7.86 0 01-7.866-7.853L16 401.884a7.859 7.859 0 017.852-7.866l93.79-.12a7.859 7.859 0 017.866 7.852l.03 34.744a7.859 7.859 0 01-7.852 7.866z"/><path class="d" d="M104.083 410.47l-44.075.077a1.165 1.165 0 01-1.166-1.164 1.165 1.165 0 011.164-1.166l44.075-.077a1.166 1.166 0 011.166 1.164 1.166 1.166 0 01-1.164 1.166zm.006 6.814l-44.075.077a1.165 1.165 0 01-1.166-1.164 1.165 1.165 0 011.164-1.166l44.075-.077a1.166 1.166 0 011.166 1.165 1.166 1.166 0 01-1.164 1.165zm-33.946 13.662l-10.117.048a1.166 1.166 0 01-1.166-1.165 1.165 1.165 0 011.165-1.166l10.116-.051a1.165 1.165 0 011.166 1.165 1.166 1.166 0 01-1.164 1.169z"/><path class="b" d="M65.387 449.428h55.667a1.164 1.164 0 011.167 1.164 1.166 1.166 0 01-1.166 1.166h-55.67a1.164 1.164 0 01-1.164-1.164 1.166 1.166 0 011.166-1.166zm55.673 8.877l-26.287.023a1.165 1.165 0 01-1.166-1.164 1.165 1.165 0 011.165-1.166l26.287-.023a1.165 1.165 0 011.166 1.164 1.165 1.165 0 01-1.165 1.166z"/><circle cx="7.762" cy="7.762" r="7.762" transform="rotate(-89.77 226.097 196.525)" fill="#f77257"/><g transform="translate(128.678 390.765)"><circle class="f" cx="27.981" cy="27.981" r="27.981" transform="rotate(-45 47.766 19.785)"/><path class="f" d="M13.045 65.061L18.233 53.2l11.861 5.188z"/></g><g transform="translate(152.968 426.123)"><circle class="d" cx="3.626" cy="3.626" r="3.626" transform="rotate(-13.34 21.579 -101.62)"/><circle class="d" cx="3.626" cy="3.626" r="3.626" transform="rotate(-67.625 11.128 -5.464)"/><circle class="d" cx="3.626" cy="3.626" r="3.626" transform="rotate(-60.876 5.392 3.168)"/></g><path class="b" d="M283.982 451.878h-66.836a4.286 4.286 0 01-4.282-4.281v-16.666a4.287 4.287 0 014.282-4.282h66.836a4.287 4.287 0 014.282 4.282v16.665a4.287 4.287 0 01-4.282 4.282zm-66.836-24.2a3.262 3.262 0 00-3.258 3.258v16.665a3.262 3.262 0 003.258 3.258h66.836a3.262 3.262 0 003.258-3.258v-16.67a3.262 3.262 0 00-3.258-3.258z"/><path class="g" d="M277.471 435.105h-42.99a.559.559 0 01-.559-.559.559.559 0 01.559-.559h42.99a.559.559 0 01.559.559.559.559 0 01-.559.559zm0 3.269h-42.99a.559.559 0 01-.559-.559.559.559 0 01.559-.559h42.99a.559.559 0 01.559.559.559.559 0 01-.559.559zm-16.289 6.539h-26.7a.559.559 0 01-.559-.559.559.559 0 01.559-.559h26.7a.559.559 0 01.559.559.559.559 0 01-.559.559z"/><path class="d" d="M285.594 454.905h-26.7a.559.559 0 01-.559-.559.559.559 0 01.559-.559h26.7a.559.559 0 01.559.559.559.559 0 01-.559.559zm.001 3.152h-12.609a.558.558 0 01-.559-.559.559.559 0 01.559-.559h12.609a.559.559 0 01.559.559.558.558 0 01-.559.559z"/><circle cx="3.723" cy="3.723" r="3.723" transform="rotate(-80.808 367.85 91.348)" fill="#f18d4f"/><path class="b" d="M232.614 383.275h-70.77a4.981 4.981 0 01-4.975-4.975v-17.646a4.981 4.981 0 014.975-4.975h70.77a4.981 4.981 0 014.975 4.975V378.3a4.981 4.981 0 01-4.975 4.975zm-70.77-25.629a3.012 3.012 0 00-3.009 3.008V378.3a3.012 3.012 0 003.009 3.008h70.77a3.012 3.012 0 003.008-3.008v-17.646a3.011 3.011 0 00-3.008-3.008z"/><path class="g" d="M225.72 365.073H180.2a.592.592 0 01-.592-.592.592.592 0 01.592-.591h45.52a.592.592 0 01.592.591.592.592 0 01-.592.592zm0 3.462H180.2a.592.592 0 01-.592-.592.592.592 0 01.592-.591h45.52a.592.592 0 01.592.591.592.592 0 01-.592.592zm-17.247 6.923H180.2a.592.592 0 01-.592-.592.592.592 0 01.592-.592h28.273a.592.592 0 01.592.592.592.592 0 01-.592.592z"/><circle cx="3.943" cy="3.943" r="3.943" transform="rotate(-76.772 315.155 81.71)" fill="#408cde"/><path class="j" d="M236.257 553.056l-3.172-6-24.678 11.921a6.206 6.206 0 00-2.585 8.388 6.206 6.206 0 009.147 2.11zm-41.579 39.74l-33.888 99.107h-6.5l13.674-100.518z"/><path class="j" d="M200.392 688.431h-6.677l-10.671-97.512h25.139z"/><path class="k" d="M158.122 688.635a4.166 4.166 0 014.165 4.167v3.122h-8.332v-3.128a4.166 4.166 0 014.167-4.161z"/><path class="j" d="M213.412 570.485a6.223 6.223 0 004.74-7.415l-8.427-38.3a6.222 6.222 0 00-7.415-4.74 6.223 6.223 0 00-4.74 7.415l8.427 38.3a6.223 6.223 0 007.415 4.74z"/><path class="l" d="M202.32 519.993a6.206 6.206 0 017.395 4.728l6.641 30.189-12.123 2.667-6.642-30.185a6.206 6.206 0 014.729-7.399z"/><path class="l" d="M210.059 605.978l-44.493-.007-1.817-56.2-1.716-21.689a7.4 7.4 0 014.914-7.561l1.942-.682 7.971-2.808 1.024-.361s18.143.112 18.068 0l1.079.207 3.716.717a10.8 10.8 0 018.756 10.531l.161 22.693.023 3.077.013 1.64z"/><path class="j" d="M162.251 566.248a6.775 6.775 0 01-5.408-7.912l1.68-8.947 4.207-23.29a6.777 6.777 0 1113.32 2.5l-4.207 23.29-1.68 8.947a6.778 6.778 0 01-7.912 5.412z"/><path class="l" d="M171.842 551.893l-13.32-2.5 4.207-23.29a6.777 6.777 0 1113.32 2.5z"/><path class="k" d="M211.332 695.924h-16.847l-.742-7.492h9.866a7.732 7.732 0 017.723 7.492z"/><path class="j" d="M196.066 517.128s-2.408 2.147-9.168 2.147-9.168-2.147-9.168-2.147v-13.891h18.336z"/><path class="k" d="M196.066 514.981v-8.422H180.92s2.677 7.58 15.146 8.422z"/><path class="j" d="M177.199 488.859v4.974h.533v13.321a21.932 21.932 0 0015.193 4.355 8.761 8.761 0 007.863-8.724v-13.926a11.528 11.528 0 00-11.528-11.535h-.527a11.537 11.537 0 00-11.534 11.535z"/><path d="M199.777 484.134a11.524 11.524 0 00-10.517-6.81h-.527a11.535 11.535 0 00-11.535 11.535v4.974h.533v2.576h3.864v-5.844h1.381a3.141 3.141 0 003.141-3.141v-.034a3.252 3.252 0 013.25-3.253z" fill="#ab777a"/><path class="n" d="M198.125 497.089l.021.679a2.323 2.323 0 01-2.323 2.4v-1.093a1.228 1.228 0 001.229-1.268l-.023-.713z"/><path class="k" d="M189.152 495.061a1.347 1.347 0 101.315-1.641 1.5 1.5 0 00-1.315 1.641zm8.903-.045c0 .876.481 1.586 1.076 1.586s1.075-.71 1.075-1.586-.481-1.586-1.075-1.586-1.076.71-1.076 1.586zm-8.321-3.392a5.4 5.4 0 012.005.077c.381.107.874-.307.975-.7a1.083 1.083 0 00-.587-1.142 6.736 6.736 0 00-2.588-.111 7.54 7.54 0 00-2.5.889c-.345.202 1.6 1.153 2.695.987zm8.343-.205a.476.476 0 00.34-.082 1.257 1.257 0 01.78-.193c.4.06 1.73-.41 1.5-.684a2.4 2.4 0 00-1.336-.787 2.2 2.2 0 00-1.464.36.871.871 0 00-.25 1 .576.576 0 00.43.386z"/><path class="d" d="M198.926 502.157c0 2.411-1.644 4.365-3.673 4.365s-3.673-1.955-3.673-4.365z"/><path class="k" d="M190.684 500.197h-2.081a2.632 2.632 0 01-2.629-2.629v-2.546a2.632 2.632 0 012.629-2.628h4.182a2.632 2.632 0 012.629 2.628v.445a4.735 4.735 0 01-4.73 4.73zm-2.081-7.032a1.86 1.86 0 00-1.858 1.858v2.546a1.86 1.86 0 001.858 1.858h2.081a3.964 3.964 0 003.959-3.959v-.445a1.86 1.86 0 00-1.858-1.858z"/><path class="k" d="M197.356 494.133a1.543 1.543 0 00-2.7 0l.523.742c.587-.968 1.177-.86 1.654 0z"/><path class="k" d="M201.541 500.197h-.792a4.151 4.151 0 01-4.146-4.146v-1.33a2.33 2.33 0 012.327-2.327h2.611a2.33 2.33 0 012.328 2.327v3.149a2.33 2.33 0 01-2.328 2.327zm-2.607-7.032a1.558 1.558 0 00-1.556 1.557v1.33a3.379 3.379 0 003.375 3.375h.792a1.558 1.558 0 001.556-1.556v-3.149a1.558 1.558 0 00-1.556-1.557zm-12.194 2.65l-9.014-.018.003-1.54 9.014.018z"/><path class="j" d="M176.88 492.701a2.526 2.526 0 00-2.526 2.526v5.219a2.526 2.526 0 002.526 2.526h2.554v-7.716a2.555 2.555 0 00-2.554-2.555zm19.069 23.972l4.35.841s.807 13.372-11.812 13.466-17.8-11.7-17.8-11.7l7.192-2.6z"/><path class="o" d="M185.761 615.861l2.663 25.253h17.869l3.772-35.136-21.636-.008z"/><path class="p" d="M189.89 605.974l-9.067 35.449h-19.929l4.672-35.453z"/><path class="o" d="M169.308 613.231h-3.222v-1.08h3.222a4.575 4.575 0 004.57-4.57v-1.611h1.079v1.611a5.655 5.655 0 01-5.649 5.65z"/><path class="p" d="M185.822 620.321h2.092a4.542 4.542 0 004.543-4.542v-9.809h-6.634z"/><path class="j" d="M172.244 589.651l-5.789 2.284-8.847-28.284a6.205 6.205 0 013.5-8.05 6.206 6.206 0 018.318 4.35z"/><path class="j" d="M170.56 602.439l-4.395-1.398a3.516 3.516 0 01-2.285-4.416l1.714-5.39a4.612 4.612 0 015.792-2.997 3.516 3.516 0 012.286 4.416l-3.112 9.785z"/><circle class="c" cx="25.487" cy="25.487" r="25.487" transform="rotate(-80.62 420.675 169.125)"/><path class="d" d="M222.096 524.453c-4.118 0-7.456 3.939-7.456 3.939s-3.338-3.939-7.456-3.939-7.456 3.886-7.456 8.68c0 7.969 14.912 16.972 14.912 16.972s14.912-9 14.912-16.972c0-4.794-3.338-8.68-7.456-8.68z"/><path class="j" d="M229.336 545.993l.036-.06a4.66 4.66 0 016.391-1.612l.485.29a4.918 4.918 0 011.7 6.743 4.73 4.73 0 01-6.487 1.636l-.424-.254a4.918 4.918 0 01-1.7-6.743z"/><path class="q" d="M283.393 695.928h8.553v-6.953h-6.637z"/><path class="q" d="M286.525 689.448a5.46 5.46 0 00-5.46 5.461v1.015h10.921v-1.015a5.461 5.461 0 00-5.461-5.461zm21.771 6.48h7.2l-1.784-6.953h-6.637z"/><path class="q" d="M314.562 689.448a5.461 5.461 0 015.461 5.461v1.014h-10.922v-1.014a5.461 5.461 0 015.461-5.461z"/><path class="j" d="M291.946 688.971l-.451-89.481H270.92a109.744 109.744 0 00.544 18.464l13.845 71.017z"/><path class="j" d="M311.205 599.49h-22.729l18.6 89.481h6.637v-65.685a149.242 149.242 0 00-2.508-23.796z"/><path class="r" d="M311.208 599.49l14.837 69.107H269.06s.489-39.189.748-50.653c.209-9.28 1.112-18.454 1.112-18.454z"/><path class="q" d="M289.621 618.792l6.677-6.122.553.603-6.677 6.122zm.053-4.476l6.556-6.317.568.59-6.556 6.316z"/><ellipse class="q" cx="13.842" cy="16.277" rx="13.842" ry="16.277" transform="translate(279.664 502.869)"/><ellipse class="q" cx="13.046" cy="13.872" rx="13.046" ry="13.872" transform="translate(278.019 489.171)"/><path class="s" d="M257.544 566.998a4.99 4.99 0 01-1.4-6.908l17.444-24.118a4.989 4.989 0 016.987-.926 4.989 4.989 0 011.4 6.908l-17.445 24.118a4.989 4.989 0 01-6.986.926zm67.191-.772a4.989 4.989 0 001.4-6.908L308.692 535.2a4.989 4.989 0 00-6.99-.922 4.989 4.989 0 00-1.4 6.908l17.444 24.118a4.99 4.99 0 006.989.922z"/><path class="s" d="M273.142 584.968c2.763-10.511 2.817-17.059 1.8-22.22a39.762 39.762 0 00-1.771-6.1c-.5-1.344-1.026-2.662-1.541-4.031l.867-12.818a8.076 8.076 0 012.4-5.744 8.377 8.377 0 012.474-1.67l1-.561 1.335-.753 1.511-.85 9.884-5.555 9.436 5.317 2.369 1.335 1.109.624.779.439a8.188 8.188 0 011.151.615 8.085 8.085 0 013.709 6.8l.825 12.1a49.442 49.442 0 01-1.7 5.463c-.712 1.934-1.444 3.713-2.068 5.538-1.917 5.614-2.8 11.667 1.235 23.878a101.531 101.531 0 013.265 12.718h-40.29a75 75 0 012.221-14.525z"/><path class="t" d="M305.941 532.997c-1.783 3.7-7.7 6.417-14.719 6.417-7.1 0-13.073-2.784-14.773-6.556a7.883 7.883 0 01.917-.473l1-.561 1.335-.753 1.511-.85 9.884-5.555 9.436 5.317 2.369 1.335 1.109.624.779.439a8.191 8.191 0 011.152.616z"/><path class="s" d="M313.22 543.471v40.338a4.834 4.834 0 01-4.835 4.831h-32.8a4.834 4.834 0 01-4.835-4.831v-40.338z"/><path class="t" d="M290.459 564.17l6.555-6.318.568.589-6.555 6.318zm1.524-5.569l6.555-6.318.568.589-6.555 6.318z"/><path class="r" d="M311.205 599.49a113.307 113.307 0 00-1.209-5.531h-38.567a85.467 85.467 0 00-.51 5.531z"/><path class="j" d="M302.905 531.316c-.933 3.182-5.76 5.605-11.571 5.605-5.957 0-10.88-2.549-11.629-5.852l1.511-.85 9.884-5.555 9.436 5.317z"/><path class="j" d="M296.167 529.465l-4.962 3.513-5-3.513a2.55 2.55 0 01-.7-1.809v-12.049h11.366v12.05a2.55 2.55 0 01-.704 1.808z"/><path class="q" d="M285.507 520.439s4.046 6.1 5.7 6.1 5.666-6.173 5.666-6.173z"/><path class="j" d="M293.804 522.333a4.469 4.469 0 01-5.229 0s-6.673-3.043-6.673-7.714v-13.361a9.073 9.073 0 019.288-9.461 9.073 9.073 0 019.283 9.461v13.808c0 3.892-6.669 7.267-6.669 7.267z"/><path class="q" d="M283.705 505.456l5.194.891a1.582 1.582 0 00-1.505-1.651l-2.166-.015a2.344 2.344 0 00-1.523.775zm15.124 0l-5.195.891a1.582 1.582 0 011.506-1.651l2.166-.015a2.345 2.345 0 011.523.775z"/><path class="j" d="M281.081 507.037a1.685 1.685 0 00-1.685 1.684v3.266a1.685 1.685 0 001.685 1.685h.821v-6.422a1.674 1.674 0 00-.821-.213zm20.217 0a1.685 1.685 0 011.685 1.684v3.266a1.685 1.685 0 01-1.685 1.685h-.822v-6.422a1.673 1.673 0 01.822-.213z"/><path class="n" d="M290.53 513.318h.551a1.062 1.062 0 001.062-1.062v-1.4h-.818v1.169a.476.476 0 01-.476.476h-.319zm4.246 3.111a15.883 15.883 0 01-7.422 0 7.345 7.345 0 017.422 0zm-5.416 2.107a7.728 7.728 0 001.878.285 4.819 4.819 0 001.622-.285 1.872 1.872 0 01-1.641 1.219 2.372 2.372 0 01-1.859-1.219z"/><path class="q" d="M284.861 509.238a1.55 1.55 0 113.1 0zm12.564 0a1.55 1.55 0 10-3.1 0z"/><path class="d" d="M293.506 516.688a3.136 3.136 0 01-4.779 0z"/><path class="q" d="M300.554 504.044c-4.63 0-.517-7.728-7.549-8.824a2.167 2.167 0 01-1.815-2.149v-1.27h4.017a5.347 5.347 0 015.347 5.347z"/><path class="q" d="M281.902 504.044c4.63 0 .518-7.728 7.549-8.824a2.166 2.166 0 001.815-2.149v-1.27h-4.017a5.348 5.348 0 00-5.348 5.347z"/><circle class="u" cx="22.646" cy="22.646" r="22.646" transform="translate(269.497 540.706)"/><path class="j" d="M283.341 544.698l-.616-2.945-9.584 2.054a2.806 2.806 0 00-2.159 3.318l1.079 5.16 7.372-1.579a5.08 5.08 0 003.908-6.008z"/><path class="j" d="M272.245 545.573l4.2 4.5-11.489 17.4a5.511 5.511 0 01-8.015.636 5.511 5.511 0 01-.366-7.785zm26.691-1.647l.616-2.945 9.584 2.053a2.806 2.806 0 012.159 3.318l-1.079 5.16-7.372-1.58a5.08 5.08 0 01-3.908-6.006z"/><path class="j" d="M310.037 544.801l-4.2 4.5 11.489 17.4a5.511 5.511 0 008.015.636 5.511 5.511 0 00.366-7.785z"/><path class="d" d="M299.514 578.363l-6.469-6.469h6.469z"/><circle class="d" cx="12.394" cy="12.394" r="12.394" transform="translate(279.589 551.156)"/><path class="u" d="M287.863 563.495a1.854 1.854 0 11-1.854-1.854 1.854 1.854 0 011.854 1.854zm5.974 0a1.854 1.854 0 11-1.854-1.854 1.854 1.854 0 011.854 1.854zm5.974 0a1.854 1.854 0 11-1.854-1.854 1.854 1.854 0 011.854 1.854z"/><path class="v" d="M130.671 553.455l-1.742.491a7.9 7.9 0 015.46-9.747l1.742-.492a7.9 7.9 0 01-5.46 9.748z"/><path class="v" d="M129.478 553.704l-1.569-5.967-21.72 7.092a4.369 4.369 0 00-2.944 4.925 4.374 4.374 0 006.031 3.239c15.94-6.851 20.202-9.289 20.202-9.289z"/><path class="w" d="M76.423 687.334h9.794a203.385 203.385 0 006.553-19.744 293.42 293.42 0 003.953-15.421c1.988-8.7 4.074-18.717 5.677-29.738a252.745 252.745 0 002.749-36.3H82.157l-3.74 66.036-.784 13.78v.008z"/><path class="k" d="M86.813 687.328H76.425l-.571 8.6h19.1c-.086-4.766-3.694-8.6-8.141-8.6z"/><path class="x" d="M68.652 622.431c1.318 8.293 3.761 16.739 5.62 26.741.193 1.027.378 2.031.563 3 1.019 5.342 1.944 9.9 2.8 13.788 3.868 17.651 6 21.376 6 21.376h9.139v-101.2h-19.05c-6.583 14.138-6.852 25.075-5.072 36.295z"/><path d="M93.896 687.328H83.504l2.184 8.6h16.344c-.081-4.766-3.689-8.6-8.136-8.6z" fill="#524359"/><path class="w" d="M80.859 592.825h-6.036v-6.674h12.71a6.674 6.674 0 01-6.674 6.674z"/><path class="x" d="M92.771 609.272v-23.139h5.471v17.668a5.471 5.471 0 01-5.471 5.471z"/><path class="p" d="M117.732 555.087l-10.589-19.746a4.715 4.715 0 10-7.541 5.662l10.506 19.046a4.741 4.741 0 006.86.53l.412-.366c1.548-1.376 1.149-3.932.352-5.126zm-56.721 8.269l8-27.092a4.715 4.715 0 118.983 2.869l-8.154 26.4a4.741 4.741 0 01-6.3 2.756l-.51-.211c-1.915-.788-2.378-3.333-2.019-4.722z"/><path class="k" d="M63.129 496.963l.272.369-.207.55.574.235.183.391v.494l.617.145.048.473.546.141-.122.62.543.112.045.527.026.58.309.326.576.021.228.409.483.088.277.359.277.38.576-.113.531-.093.266.406.308.36.49-.071.236.622.486-.084.4.2.378.321.5-.289.428.049.4.344.456-.263.431-.068.442.508.418-.437.385-.447.467.321.442.024.395-.217.479.128.25-.667.588.412.343-.322.465-.016.446-.085.353-.277.508-.005.274-.4.217-.456.16-.5.684.165.431-.181.063-.573.059-.538.793.135-.039-.6.2-.387.569-.127.225-.379-.254-.654.448-.238-.017-.483.683-.165-.181-.542.49-.286.188-.405-.5-.585.135-.4.7-.308-.177-.472-.49-.482.757-.377.146-.442-.7-.428.21-.436-.355-.394.486-.494.13-.471-.669-.3.41-.55-.182-.409-.808-.182.093-.484-.057-.44.239-.6-.294-.35-.56-.183-.389-.258.033-.539-.624-.066-.189-.384-.309-.286-.1-.487-.029-.593-.609.024-.114-.539-.7.206-.042-.677-.3-.339-.7.338-.266-.39-.139-.7-.725.56-.159-.748-.475.032-.485.115-.344-.366-.444.008-.439.022-.389-.3-.427-.1-.437.011-.432-.285-.433.426-.447-.253-.4.38-.432-.007-.433.016-.472-.131-.481-.093-.422.152-.365.305-.238.59-.428.074-.651-.356-.334.326-.4.2-.049.739-.723-.292-.022.7-.3.306-.467.114-.175.438-.483.127-.5.14-.044.535-.568.117.051.576.077.558-.186.375-.412.254-.313.323-.339.324-.155.41-.247.378.495.606-.288.356-.621.3-.2.417.8.556-.881.337.386.468-.065.43-.234.44.523.408.168.407.045.416-.344.49.455.341-.3.515z"/><circle class="k" cx="16.326" cy="16.326" r="16.326" transform="rotate(-77.47 356.525 215.39)"/><path class="v" d="M77.988 506.571a1.9 1.9 0 011.93 1.87l.092 5.923-1.394.021a2.406 2.406 0 01-2.443-2.368l-.055-3.516a1.9 1.9 0 011.87-1.93z"/><path class="v" d="M94.249 531.525s.437 2.875-4.921 2.875a19.019 19.019 0 01-9.611-2.875v-18.6h14.532z"/><path class="k" d="M94.257 527.916v-11.733H80.98s2.347 10.56 13.277 11.733z"/><path class="v" d="M90.485 493.647a10.807 10.807 0 00-10.636 10.974l.152 9.714a10.806 10.806 0 0010.975 10.636 10.806 10.806 0 0010.637-10.974l-.152-9.713a10.807 10.807 0 00-10.976-10.637z"/><path class="z" d="M93.087 509.502c0 .992-.57 1.8-1.273 1.8s-1.273-.8-1.273-1.8.57-1.8 1.273-1.8 1.273.807 1.273 1.8zm7.738-.142c0 .964-.414 1.746-.925 1.746s-.925-.781-.925-1.746.414-1.746.925-1.746.925.783.925 1.746z"/><path class="k" d="M84.025 496.554l-4.289.776-.019 9.239 1.71 11.04z"/><path class="k" d="M80.609 492.008l4.016-.063.103 6.6a4.016 4.016 0 01-3.953 4.078l-.166-10.615z"/><path class="p" d="M110.327 550.698v24.106a4.993 4.993 0 01-4.992 4.992H72.773a4.132 4.132 0 01-4.133-4.132v-37.357a6.777 6.777 0 014.834-6.492l7-2.1 13.765-.644 8.3 3.378a9.443 9.443 0 015.716 7.025z"/><path class="l" d="M102.539 532.449c-.616 3.658-3.043 7.984-10.5 7.984-7.886 0-17.638-4.913-18.562-8.618l7-2.1 13.765-.644z"/><path class="v" d="M76.815 530.818s3.975 6.136 15.512 5.825c7.173-.193 6.273-5.8 6.273-5.8l-4.364-1.777-13.881.458z"/><path class="k" d="M72.978 579.802h32.173v6.331H72.978z"/><circle class="aa" cx="21.181" cy="21.181" r="21.181" transform="translate(91.673 536.638)"/><path class="v" d="M89.37 571.236l-1.79-.292a7.9 7.9 0 019.072-6.521l1.79.293a7.9 7.9 0 01-9.072 6.52z"/><path class="v" d="M87.986 570.92l1.1-6.07-22.681-2.767a4.368 4.368 0 00-4.752 3.217 4.373 4.373 0 004.093 5.487c17.346.539 22.24.133 22.24.133z"/><path class="ab" d="M96.408 512.512v1.052a2.72 2.72 0 002.562-1.815h-1.169a1.678 1.678 0 01-1.393.763z"/><path class="z" d="M87.898 504.895l5.575.841a1.627 1.627 0 00-1.628-1.624h-2.322a2.566 2.566 0 00-1.625.783zm13.573-.041l-2.758.876c0-.9.406-1.626.908-1.627h1.3c.501-.001.55.751.55.751z"/><path class="ab" d="M96.942 519.059a4.428 4.428 0 01-3.706-.02s1.557 3.281 3.706.02zm1.595-2c.021-1.619-1.889-1.75-3.544-1.566a8.873 8.873 0 00-3.807 1.7l5.378.411z"/><path class="ab" d="M91.649 518.043a.921.921 0 01.024-1.838z"/><path class="k" d="M101.931 502.622s-5.224-9.678-10.976-4.327-13.9 6.516-13.193 5.192 3.225-13.291 13.3-12.385 11.338 8.302 10.869 11.52z"/><path class="d" d="M125.069 558.854a12.214 12.214 0 11-12.214-12.215 12.164 12.164 0 0112.214 12.215z"/><circle class="aa" cx="4.446" cy="4.446" r="4.446" transform="rotate(-22.347 1455.559 5.95)"/><path class="aa" d="M120.276 568.546a12.184 12.184 0 01-14.844 0 7.5 7.5 0 0114.844 0z"/><g transform="translate(18.897 18.897)"><rect width="65" height="65" rx="32.5" transform="translate(306.103 375.103)" stroke="transparent" fill="#4a77f7"/><path class="d" d="M349.018 395.897h-21.454a2.678 2.678 0 00-2.669 2.682l-.013 24.136 5.364-5.364h18.772a2.69 2.69 0 002.682-2.682v-16.09a2.69 2.69 0 00-2.682-2.682zm-2.682 16.091h-16.09v-2.682h16.09zm0-4.023h-16.09v-2.682h16.09zm0-4.023h-16.09v-2.681h16.09z"/></g><path class="ad" d="M414.838 574.897a6.223 6.223 0 004.74-7.415l-8.427-38.3a6.222 6.222 0 00-7.415-4.74 6.223 6.223 0 00-4.74 7.415l8.427 38.3a6.223 6.223 0 007.415 4.74z"/><path class="ae" d="M405.982 688.472h-11.59l-10.61-96.989h26.417z"/><path class="af" d="M395.352 593.352l-30.17 98.573-10.023.14 13.6-99.977z"/><path class="q" d="M358.994 688.674a4.143 4.143 0 014.143 4.144v3.106h-8.287v-3.107a4.143 4.143 0 014.144-4.143z"/><path class="ad" d="M363.951 528.99a7.357 7.357 0 014.887-7.521l1.932-.679 7.928-2.793 1.018-.359s18.045.111 17.97 0l7.8 3.056a8.791 8.791 0 015.584 8.233l-.419 77.534-46.923-.006z"/><path class="ag" d="M381.26 578.863h20.11a6.092 6.092 0 016.09 6.092v15.687h-26.2v-21.779z"/><path class="ad" d="M365.45 563.679a6.188 6.188 0 01-5.489-6.818l.891-8.267 2.168-21.508a6.19 6.19 0 1112.308 1.33l-2.169 21.508-.891 8.267a6.191 6.191 0 01-6.818 5.488z"/><path d="M403.91 518.417c0 5.07-10.767 17.018-10.767 17.018s-19.688-11.948-19.688-17.018 6.818-9.18 15.227-9.18 15.228 4.107 15.228 9.18z" fill="#8a7870"/><path class="d" d="M381.095 518.091l11.277 9.71 4.015-9.71z"/><path class="q" d="M411.917 695.922h-16.756l-.738-7.452h9.813a7.69 7.69 0 017.681 7.452z"/><path class="j" d="M396.387 518.091s-2.008 2.135-7.646 2.135-7.646-2.135-7.646-2.135v-13.816h15.293zm-21.003 1.075l-.042.015.042-.015z"/><path class="ae" d="M370.12 613.676h-3.2v-1.074h3.2a4.55 4.55 0 004.546-4.545v-1.6h1.073v1.6a5.625 5.625 0 01-5.619 5.619z"/><path class="af" d="M386.542 620.728v-14.273h6.6v7.673a6.6 6.6 0 01-6.6 6.6z"/><path class="k" d="M366.806 606.455l-.58 4.262 44.426-4.254z"/><path class="ag" d="M385.011 563.697l11.375-9.968.466.532-11.375 9.968z"/><path class="ad" d="M378.757 554.788l-1.112-6.09-12.432 3.017a6.173 6.173 0 00-4.963 7.181 6.173 6.173 0 008.044 4.74z"/><path class="j" d="M397.298 509.821l-5.159 3.446a5.487 5.487 0 01-6.141 0l-5.159-3.446a6.164 6.164 0 01-2.677-5.136v-15.364c0-6.368 4.883-11.531 10.907-11.531s10.907 5.162 10.907 11.531v15.363a6.165 6.165 0 01-2.678 5.137z"/><path class="ai" d="M398.439 496.438l.007 3.405a8.683 8.683 0 01-8.685 8.685h-1.044a8.685 8.685 0 01-8.686-8.685v-3.405h-1.869v8.242a6.165 6.165 0 002.675 5.137l5.159 3.445a5.486 5.486 0 006.142 0l5.16-3.445a6.166 6.166 0 002.675-5.137l-.007-8.242z"/><path class="j" d="M383.319 504.578h11.225v.776a5.613 5.613 0 01-5.612 5.613 5.613 5.613 0 01-5.613-5.613v-.776z"/><path class="q" d="M400.317 496.526h-1.87v-10.865h4.659z"/><path class="aj" d="M399.884 474.278v3.855a7.426 7.426 0 01-.1 1.234 7.527 7.527 0 01-5.637 6.078h-10.174a3.91 3.91 0 00-1 .129.025.025 0 00-.013 0 2.789 2.789 0 00-.277.084h-1.008v-3.854a7.516 7.516 0 017.528-7.528z"/><path class="aj" d="M399.733 479.367a3.848 3.848 0 013.848 3.848 7.332 7.332 0 01-.3 2.091 7.151 7.151 0 01-.493 1.257 7.513 7.513 0 01-4.354 3.793v-.973a3.939 3.939 0 00-3.938-3.938h-8.991a1.342 1.342 0 01.042-.19 7.527 7.527 0 015.008-5.517 6.948 6.948 0 011.093-.264 7.6 7.6 0 011.244-.1zm-14.365 2.919v3.158h-1.4a3.911 3.911 0 00-1 .129.023.023 0 00-.013 0 2.754 2.754 0 00-.277.084 3.792 3.792 0 00-.722.335h-2.817a3.412 3.412 0 01-3.268-2.423 3.288 3.288 0 01-.151-.992v-3.709h6.22c.106 0 .213.007.316.013a3.419 3.419 0 013.112 3.405z"/><path class="q" d="M378.158 496.438h1.87v-7.728h-4.658z"/><path class="aj" d="M382.962 485.577a2.783 2.783 0 00-.277.084 3.782 3.782 0 00-.722.335 3.925 3.925 0 00-1.931 3.387v1.315h-2.342a3.414 3.414 0 01-3.413-3.419v-3.706h5.575a2.516 2.516 0 01.352.02h.019a2.833 2.833 0 01.722.161.04.04 0 01.026.006 3.45 3.45 0 011.985 1.8c.003.007.006.01.006.017z"/><path class="j" d="M377.249 494.275a1.875 1.875 0 00-1.875 1.875v3.635a1.875 1.875 0 001.875 1.875h.914v-7.146a1.863 1.863 0 00-.914-.239zm23.643 0a1.875 1.875 0 011.875 1.875v3.635a1.875 1.875 0 01-1.875 1.875h-.913v-7.146a1.861 1.861 0 01.913-.239z"/><path class="q" d="M391.666 474.278a21.132 21.132 0 01-.939 5.192c-.074.229-.157.458-.245.683a17.087 17.087 0 01-3.925 5.289h-1.25l.052-.045.157-.145c1.159-1.07 3.435-3.355 4.261-5.472l.016-.045a19.584 19.584 0 001.093-5.459zm4.169 0a20.563 20.563 0 01-.754 5.089 8.541 8.541 0 01-1.321 2.736 15.744 15.744 0 01-3.559 3.342h-1.682a15.145 15.145 0 004.663-3.954 7.162 7.162 0 001.065-2.124 19.035 19.035 0 00.8-5.089zm7.449 11.028a7.169 7.169 0 01-.493 1.257 24.961 24.961 0 01-4.673 1.263 3.92 3.92 0 00-.493-.838 19.03 19.03 0 005.659-1.682zm-18.952.139h-.361a3.906 3.906 0 00-1 .129l-.019-.013a7.776 7.776 0 00-1.279-.632 8.523 8.523 0 00-1.428-.4 8.411 8.411 0 01-2.5-.957 14.106 14.106 0 01-2.021-1.408v-1.215a10.938 10.938 0 004.477 2.643h.019c.064.016.132.032.2.042.18.036.354.074.525.119a.04.04 0 01.026.006c.248.062.484.132.706.206a7.735 7.735 0 012.655 1.48z"/><path class="n" d="M389.835 502.267h-.739a1.056 1.056 0 01-1.056-1.056v-1.262h.91v.913a.494.494 0 00.494.494h.39z"/><path class="q" d="M386.119 494.236h-3.274a.474.474 0 01-.474-.474v-.009a.474.474 0 01.424-.472l3.274-.347a.475.475 0 01.525.472v.355a.475.475 0 01-.475.475zm9.413 0h-3.274a.475.475 0 01-.475-.474v-.355a.475.475 0 01.525-.472l3.274.347a.474.474 0 01.425.472v.009a.474.474 0 01-.475.473zm-9.839 3.383c0 .9-.543 1.623-1.214 1.623s-1.214-.727-1.214-1.623.543-1.623 1.214-1.623 1.214.727 1.214 1.623zm9.415 0c0 .9-.543 1.623-1.214 1.623s-1.214-.727-1.214-1.623.543-1.623 1.214-1.623 1.214.727 1.214 1.623z"/><path class="ai" d="M386.387 507.43a12.2 12.2 0 002.966.451 7.6 7.6 0 002.561-.451 2.956 2.956 0 01-2.59 1.924 3.745 3.745 0 01-2.937-1.924z"/><path class="d" d="M393.125 504.762a4.951 4.951 0 01-7.546 0z"/><path class="ai" d="M388.945 502.713h-3.324a2.046 2.046 0 00-2.046 2.046h5.37zm.802 0h3.323a2.046 2.046 0 012.047 2.046h-5.37z"/><path class="j" d="M382.181 545.61a2.749 2.749 0 012.749 2.749v1.776a8.187 8.187 0 01-8.187 8.187 2.749 2.749 0 01-2.749-2.749v-1.776a8.187 8.187 0 018.187-8.187z"/><circle class="aa" cx="28.925" cy="28.925" r="28.925" transform="translate(381.91 503.876)"/><path class="d" d="M410.835 520.447a9.621 9.621 0 00-9.621 9.621c0 5.314 9.621 17.074 9.621 17.074s9.621-11.76 9.621-17.074a9.621 9.621 0 00-9.621-9.621zm.2 13.6a4.257 4.257 0 114.257-4.257 4.257 4.257 0 01-4.254 4.254z"/><path class="ad" d="M433.132 550.279l4.917 4.677-19.885 21.978a6.206 6.206 0 01-8.774.22 6.206 6.206 0 01.443-9.377z"/><path class="j" d="M436.168 542.407l3.695 2.011a4.439 4.439 0 011.777 6.021l-2.877 5.285a4.207 4.207 0 01-5.706 1.684 4.439 4.439 0 01-1.777-6.021l4.888-8.98z"/><g transform="translate(249.472 381.7)"><circle class="b" cx="2.41" cy="2.41" r="2.41"/><circle class="b" cx="2.41" cy="2.41" r="2.41" transform="translate(7.403)"/><path class="b" d="M19.628 2.41A2.41 2.41 0 1117.219 0a2.409 2.409 0 012.409 2.41z"/></g><g transform="translate(272.912 381.7)"><circle class="b" cx="2.41" cy="2.41" r="2.41"/><circle class="b" cx="2.41" cy="2.41" r="2.41" transform="translate(7.403)"/><circle class="b" cx="2.41" cy="2.41" r="2.41" transform="translate(14.807)"/></g></g></svg>