<svg xmlns="http://www.w3.org/2000/svg" width="442.221" height="379.108" viewBox="0 0 442.221 379.108"><defs><style>.a{fill:#3b3040}.b{fill:#ff8f6e}.c{fill:#f5dddd}.d{fill:#8f5252}.e{fill:#756f6c}.g{fill:#fff}.h{fill:#664f5a}.i{fill:#cf5e4e}.j{fill:#c96d58}.l{fill:#69798f}.m{fill:#382d3d}.n{fill:#8a3e3e}.p{fill:#37cb94}.s{opacity:.4}.t{fill:#e6e7e8}.u{fill:#4a77f7}.v{fill:#f77257}.w{fill:#b5474b}.z{fill:#91c9a5}.aa{fill:#a36f6f}.ac{fill:#fc8964}</style></defs><g transform="translate(-908.757 -316.816)"><path class="a" d="M1270.982 695.928h8.553v-6.953h-6.637z"/><path class="a" d="M1274.114 689.449a5.461 5.461 0 00-5.46 5.461v1.015h10.921v-1.015a5.46 5.46 0 00-5.461-5.461zm21.771 6.479h7.2l-1.784-6.953h-6.637z"/><path class="a" d="M1302.151 689.449a5.46 5.46 0 00-5.46 5.461v1.015h10.921v-1.015a5.461 5.461 0 00-5.461-5.461z"/><path class="b" d="M1279.535 679.957v9.015h-6.64l-2.1-9.015zm21.766 0v9.015h-6.635l-2.1-9.015z"/><path class="c" d="M1279.575 685.925l-.491-86.435h-20.575c-.411 6.829-1.875 86.435-1.875 86.435z"/><path class="c" d="M1298.795 599.49h-22.73l14.883 86.435h14.542s-4.9-77.13-6.695-86.435z"/><path class="c" d="M1265.75 599.49h25.032v16.868h-25.032z"/><path class="a" d="M1283.701 616.095h-9.5l4.925 3.219z"/><path class="a" d="M1280.695 599.49h.818v16.868h-.818z"/><path class="a" d="M1275.005 610.763l9.058-.901.081.814-9.058.9z"/><path class="d" d="M1291.263 509.566v11.822a33.645 33.645 0 01-26.045 32.773c-.262.063-.528.119-.79.173a32.532 32.532 0 01-4.51.609 17.8 17.8 0 01-.806.045q-.739.036-1.485.036h-1.05v-18.527a26.93 26.93 0 0126.927-26.931z"/><path class="a" d="M1285.59 511.294v.805c-14.156 0-25.672 11.9-25.672 26.528v16.318a17.92 17.92 0 01-.805.045v-16.367c.004-15.071 11.877-27.329 26.477-27.329z"/><path class="a" d="M1287.129 514.98v.787c-12.9 0-21.911 10.914-21.911 26.537v11.856c-.262.063-.528.119-.79.173v-12.029c0-7.492 2.153-14.341 6.058-19.286a20.539 20.539 0 0116.643-8.038z"/><path class="e" d="M1260.732 584.967c4.757-17.931 1.446-24.514-1.514-32.348l.87-12.82a8.082 8.082 0 014.87-7.415l3.847-2.162 9.884-5.554 9.437 5.316 4.257 2.4a8.089 8.089 0 014.861 7.415l.856 12.122c-2.82 11.541-9.045 15.244-2.568 34.857a102.363 102.363 0 013.266 12.717h-40.285a74.819 74.819 0 012.219-14.528z"/><path class="b" d="M1283.758 529.465l-4.959 3.513-5-3.513a2.549 2.549 0 01-.7-1.809v-12.049h11.365v12.05a2.551 2.551 0 01-.706 1.808z"/><path class="a" d="M1273.099 520.439s4.045 6.1 5.7 6.1 5.666-6.173 5.666-6.173z"/><path class="c" d="M1298.794 599.49a113.307 113.307 0 00-1.209-5.531h-38.567a85.467 85.467 0 00-.51 5.531z"/><path class="e" d="M1253.05 574.745a5.356 5.356 0 01-3.283-6.826l11.151-31.2a5.357 5.357 0 016.826-3.283 5.356 5.356 0 013.282 6.826l-11.15 31.2a5.356 5.356 0 01-6.826 3.283zm50.613.132a5.355 5.355 0 003.408-6.764l-10.573-31.4a5.356 5.356 0 00-6.765-3.408 5.356 5.356 0 00-3.408 6.764l10.573 31.4a5.356 5.356 0 006.765 3.408z"/><path class="a" d="M1286.88 556.836v-.818a7.937 7.937 0 007.4-5l.759.305a8.75 8.75 0 01-8.159 5.513zm-16.113 0a8.752 8.752 0 01-8.156-5.509l.759-.305a7.938 7.938 0 007.4 5zm-9.343 25.323l15.228-9.564-15.223.827z"/><path class="e" d="M1272.361 526.544l6.434 6.434-3.277 3.277-6.434-6.434zm16.145 3.277l-6.434 6.434-3.277-3.277 6.434-6.434z"/><path class="a" d="M1282.645 536.154l6.1-6.1-.471-.471-5.628 5.629-3.059-3.027-.468.474zm-7.794-.099l3.4-3.633-.486-.455-2.937 3.135-5.549-5.482-.467.475z"/><g transform="translate(1265.795 518.153)"><circle cx="25.487" cy="25.487" r="25.487" transform="rotate(-80.8 29.565 25.161)" fill="#fe4777"/><path class="g" d="M36.697 17.852c-4.118 0-7.456 3.939-7.456 3.939s-3.338-3.939-7.456-3.939-7.456 3.886-7.456 8.68c0 7.969 14.912 16.972 14.912 16.972s14.912-9 14.912-16.972c-.001-4.794-3.339-8.68-7.456-8.68z"/></g><path class="b" d="M1287.978 568.045l.046-2.789-9.086-.107a2.6 2.6 0 00-2.631 2.558l-.082 4.886 6.989.082a4.708 4.708 0 004.764-4.63zm25.787-17.843l-.022-2.789 6.552-.143c1.033-.023 1.876 1.116 1.888 2.547l.04 4.885-5.04.11c-1.869.042-3.397-2.019-3.418-4.61z"/><path class="e" d="M1276.74 566.536l-.085 6.058-21.153 3a5.511 5.511 0 01-5.788-5.581 5.511 5.511 0 015.588-5.433z"/><path class="h" d="M1285.097 596.505h-.018l.012-.006z"/><path class="d" d="M1265.699 504.13a13.739 13.739 0 1027.384-1.613 11.824 11.824 0 00-.122-.82 13.4 13.4 0 00-.757-2.644 10.4 10.4 0 00-.356-.815 13.746 13.746 0 00-15.974-7.379 9.207 9.207 0 00-.784.239 12.664 12.664 0 00-1.8.748c-.275.131-.541.279-.8.432a13.73 13.73 0 00-6.791 11.852z"/><path class="b" d="M1276.112 522.419a4.469 4.469 0 005.229 0s6.673-3.043 6.673-7.714v-13.357a9.073 9.073 0 00-9.287-9.462 9.073 9.073 0 00-9.287 9.462v13.808c-.001 3.891 6.672 7.263 6.672 7.263z"/><path class="g" d="M1282.663 515.146a3.63 3.63 0 01-7.26 0z"/><path class="d" d="M1268.361 504.651a4.129 4.129 0 004.129-4.13v-5.443a4.129 4.129 0 00-4.129 4.129z"/><path class="d" d="M1290.686 504.27h-10.612a8.569 8.569 0 01-8.569-8.569 4.383 4.383 0 014.381-4.383h1.848a12.952 12.952 0 0112.952 12.952z"/><path class="b" d="M1288.835 507.122a1.685 1.685 0 011.685 1.685v3.266a1.684 1.684 0 01-1.685 1.685h-.822v-6.422a1.677 1.677 0 01.822-.214zm-20.218 0a1.685 1.685 0 00-1.684 1.685v3.266a1.684 1.684 0 001.684 1.685h.821v-6.422a1.676 1.676 0 00-.821-.214z"/><path class="i" d="M1278.236 513.404h.779a.834.834 0 00.834-.834v-2.524h-.818v2.149a.391.391 0 01-.392.391h-.4z"/><path class="a" d="M1281.738 506.161a4.825 4.825 0 013.518 0l.278-.769a5.643 5.643 0 00-4.074 0zm-9.465 0a4.826 4.826 0 013.518 0l.278-.769a5.642 5.642 0 00-4.074 0zm9.676 2.926a1.091 1.091 0 101.091-1.091 1.091 1.091 0 00-1.091 1.091zm-8.263 0a1.091 1.091 0 101.09-1.091 1.091 1.091 0 00-1.09 1.091z"/><path class="a" d="M1285.046 509.086a1.55 1.55 0 10-3.1 0zm-12.37 0a1.55 1.55 0 113.1 0zm-.188-16.809a10.745 10.745 0 0010.721 10.239h9.874a11.824 11.824 0 00-.122-.82h-9.752a9.929 9.929 0 01-9.919-9.852c-.275.132-.541.28-.802.433z"/><path class="a" d="M1275.092 491.098a10.754 10.754 0 0010.37 7.955h6.744a10.037 10.037 0 00-.356-.815h-6.388a9.935 9.935 0 01-9.586-7.379 9.098 9.098 0 00-.784.239zm-114.051 83.271c-3.6-.537-6.169-4.192-5.727-8.162l4.344-31.068c.442-3.97 3.722-6.752 7.327-6.214 3.6.538 6.169 4.192 5.727 8.162l-4.344 31.068c-.44 3.97-3.72 6.752-7.327 6.214z"/><path class="a" d="M1159.464 601.248l-6.539.163 2.34-34.782c.3-3.052 2.938-2.789 5.9-2.535a5.418 5.418 0 014.679 6.775z"/><path class="j" d="M1162.762 612.458l-4.077.7a4.366 4.366 0 01-5.04-3.563l-1.002-5.832a4.137 4.137 0 013.374-4.777 4.366 4.366 0 015.042 3.563l1.703 9.909z"/><path d="M1168.169 688.686h9.515l10.307-94.192h-24.283z" fill="#586678"/><path class="l" d="M1176.754 596.307l31.2 95.732h7.815l-13.209-97.1z"/><path class="m" d="M1211.745 688.882a4.025 4.025 0 00-4.023 4.025v3.016h8.048v-3.017a4.025 4.025 0 00-4.025-4.024z"/><path class="a" d="M1162.516 532.633l.274 68.709 42.788-.007 1.055-46.224-.307-22.137a7.4 7.4 0 00-4.94-6.876l-8.408-2.962s-17.526.107-17.452 0l-8.486 3.165-.2.075a6.755 6.755 0 00-1.262.629 6.651 6.651 0 00-3.062 5.628z"/><path class="m" d="M1160.667 695.923h16.272l.717-7.237h-9.53a7.469 7.469 0 00-7.459 7.237zm27.669-194.794a10.669 10.669 0 0110.669 10.669v3.344h-2.385a8.284 8.284 0 01-8.284-8.284v-5.729z"/><path class="j" d="M1175.413 523.215s-.807 5.53 5.723 5.53 11.989-5.53 11.989-5.53v-12.772h-17.712z"/><path class="l" d="M1184.991 616.647h-3.375a3.568 3.568 0 01-3.568-3.568v-11.735h6.943z"/><path class="m" d="M1175.381 521.294v-11.152h14.994s0 11.152-14.994 11.152z"/><g transform="translate(1169.846 483.089)"><path class="j" d="M23.824 12.043v5.193h-.539v13.906a21.7 21.7 0 01-15.344 4.547 9.039 9.039 0 01-7.942-9.107V12.043A12.33 12.33 0 011.02 7.11a12.016 12.016 0 012.386-3.581A11.409 11.409 0 0111.642 0h.532a11.853 11.853 0 0111.65 12.043z"/><path class="n" d="M9.793 31.041a4.244 4.244 0 004.239-4.239h-1.413a2.829 2.829 0 01-2.826 2.827z"/><path class="m" d="M1.019 6.877s.83-1.528 2.1-1.531c1.466 0 5.594.039 8.561.042.306 0 .458 1.538.74 1.619l.038.011a2.914 2.914 0 01.305.107l.2.088a3.288 3.288 0 011.852 2.956v.034a2.777 2.777 0 001.539 2.68 5.788 5.788 0 013.024 5.163v1.229h3.9v-2.6h.539v-5.021c0-.649.415-1.4.309-2.016-.435-2.7-1.118-5.2-3.077-6.939-2.058-1.825-5.915-2.7-8.882-2.7h-.531a11.606 11.606 0 00-8.237 3.414 11.741 11.741 0 00-2.38 3.464z"/><path class="n" d="M3.079 20.884l-.021.673a2.3 2.3 0 002.3 2.373v-1.084A1.216 1.216 0 014.14 21.59l.022-.706z"/><path class="m" d="M11.97 18.874a1.335 1.335 0 11-1.3-1.625 1.491 1.491 0 011.3 1.625z"/><ellipse class="m" cx="1.065" cy="1.571" rx="1.065" ry="1.571" transform="translate(1.019 17.259)"/><path class="m" d="M11.392 15.902a4.4 4.4 0 00-1.986.093c-.377.13-.866-.372-.966-.852a1.407 1.407 0 01.582-1.386 5.5 5.5 0 012.564-.134 6.7 6.7 0 012.481 1.078c.337.253-1.589 1.406-2.675 1.201zm-8.326.105a.5.5 0 01-.379-.1 1.328 1.328 0 00-.871-.234c-.443.073-1.931-.5-1.676-.829a2.654 2.654 0 011.492-.955 2.317 2.317 0 011.635.437 1.118 1.118 0 01.279 1.219.662.662 0 01-.48.462z"/><path class="j" d="M24.146 15.532a2.551 2.551 0 012.551 2.551v5.272a2.551 2.551 0 01-2.551 2.551h-2.58v-7.793a2.58 2.58 0 012.58-2.581z"/><path class="m" d="M22.77 12.615h-4.766a11.3 11.3 0 01-11.3-11.3h16.068z"/></g><path class="a" d="M1209.508 573.188c3.3-.319 5.67-3.813 5.284-7.8l-3.831-31.279c-.386-3.99-3.377-6.966-6.682-6.646-3.3.32-5.67 3.813-5.285 7.8l3.832 31.279c.386 3.99 3.377 6.966 6.682 6.646z"/><rect width="6.583" height="4.985" rx="2.493" transform="rotate(179.916 596.29 279.758)" fill="#64536b"/><path class="a" d="M1194.666 556.155l-2.871 5.8 15.956 11.565a5.159 5.159 0 006.353-3.589c.843-3.03-.372-7.3-3.492-7.694z"/><circle class="p" cx="31.657" cy="31.657" r="31.657" transform="rotate(-45 1231.036 -1064.476)"/><path class="g" d="M1168.334 579.681l-9.043-9.043h9.043z"/><circle class="g" cx="17.326" cy="17.326" r="17.326" transform="rotate(-22.48 1946.467 -2577.644)"/><path class="p" d="M1152.047 558.897a2.592 2.592 0 11-2.592-2.592 2.592 2.592 0 012.592 2.592zm8.351 0a2.592 2.592 0 11-2.592-2.592 2.592 2.592 0 012.592 2.592zm8.351 0a2.592 2.592 0 11-2.592-2.592 2.592 2.592 0 012.592 2.592z"/><path class="j" d="M1196.39 560.38a4.137 4.137 0 01-5.664 1.459l-3.63-2.142a4.366 4.366 0 01-1.542-5.979l2.1-3.56 7.194 4.243a4.366 4.366 0 011.541 5.98z"/><path d="M1196.679 480.872s-21.473-4.246-25.9 7.44l-.372 1.023 26.838 10.195.51-1.4c2.653-7.284 5.509-14.757-1.076-17.258z" fill="#ffb966"/><path d="M1169.957 499.45s.559-4.234 6.615-4.291c12.707-.121 20.664 9.71 20.664 9.71s3.134.194 3.188-2.469l.14-6.941c.029-1.45-6.238-8.238-18.1-9.258s-13.618 2.249-14.623 3.1-.638 9.339-.219 9.619a10.463 10.463 0 002.335.53z" fill="#ffcd96"/><path class="a" d="M1206.512 610.3l-.779-15.807-42.971.45v15.046z"/><g class="s"><path class="t" d="M1304.327 414.699a1.206 1.206 0 11-1.206-1.2 1.2 1.2 0 011.206 1.2z"/></g><path class="t" d="M1308.034 414.699a1.207 1.207 0 11-1.207-1.2 1.2 1.2 0 011.207 1.2z"/><g class="s"><path class="t" d="M1311.742 414.699a1.207 1.207 0 11-1.207-1.2 1.2 1.2 0 011.207 1.2z"/></g><g class="s"><path class="t" d="M1284.083 453.389h-14.493a1.357 1.357 0 01-1.357-1.357 1.357 1.357 0 011.357-1.357h14.493a1.357 1.357 0 011.357 1.357 1.357 1.357 0 01-1.357 1.357z"/></g><path class="t" d="M1349.084 462.749h-28.572a.594.594 0 01-.594-.594.594.594 0 01.594-.594h28.572a.593.593 0 01.594.594.594.594 0 01-.594.594zm-4.607-3.629h-80.748a6.486 6.486 0 01-6.5-6.456V424.72a6.486 6.486 0 016.5-6.456h80.748a6.486 6.486 0 016.5 6.456v27.945a6.486 6.486 0 01-6.5 6.455zm-80.748-39.573a5.2 5.2 0 00-5.21 5.173v27.945a5.2 5.2 0 005.21 5.173h80.748a5.2 5.2 0 005.21-5.173V424.72a5.2 5.2 0 00-5.21-5.173z"/><path class="t" d="M1337.556 428.712h-42.683a.69.69 0 01-.691-.69.69.69 0 01.691-.69h42.683a.69.69 0 01.69.69.69.69 0 01-.69.69zm0 6.073h-42.683a.69.69 0 01-.691-.69.69.69 0 01.691-.69h42.683a.69.69 0 01.69.69.69.69 0 01-.69.69zm-20.245 6.034h-22.434a.69.69 0 01-.691-.69.69.69 0 01.691-.69h22.434a.69.69 0 01.69.69.69.69 0 01-.69.69z"/><circle class="u" cx="11" cy="11" r="11" transform="translate(1264.999 426)"/><path class="g" d="M1273.999 432l6.555 4.824-6.555 4.824z"/><path class="t" d="M1039.03 350.612a2.41 2.41 0 11-2.41-2.41 2.41 2.41 0 012.41 2.41zm7.403 0a2.41 2.41 0 11-2.41-2.41 2.41 2.41 0 012.41 2.41zm7.403 0a2.41 2.41 0 11-2.41-2.41 2.41 2.41 0 012.41 2.41zm8.633 0a2.41 2.41 0 11-2.41-2.41 2.409 2.409 0 012.41 2.41zm7.404 0a2.41 2.41 0 11-2.41-2.41 2.41 2.41 0 012.41 2.41zm7.403 0a2.41 2.41 0 11-2.41-2.41 2.41 2.41 0 012.41 2.41z"/><g transform="translate(1057.65 363.349)"><circle class="t" cx="2.41" cy="2.41" r="2.41"/><circle class="t" cx="2.41" cy="2.41" r="2.41" transform="translate(7.403)"/><circle class="t" cx="2.41" cy="2.41" r="2.41" transform="translate(14.807)"/></g><g transform="translate(1081.091 363.349)"><circle class="t" cx="2.41" cy="2.41" r="2.41"/><circle class="t" cx="2.41" cy="2.41" r="2.41" transform="translate(7.403)"/><circle class="t" cx="2.41" cy="2.41" r="2.41" transform="translate(14.807)"/></g><g transform="translate(1254.472 387.7)"><circle class="t" cx="2.41" cy="2.41" r="2.41"/><circle class="t" cx="2.41" cy="2.41" r="2.41" transform="translate(7.403)"/><path class="t" d="M19.628 2.41A2.41 2.41 0 1117.219 0a2.409 2.409 0 012.409 2.41z"/></g><g transform="translate(1277.912 387.7)"><circle class="t" cx="2.41" cy="2.41" r="2.41"/><circle class="t" cx="2.41" cy="2.41" r="2.41" transform="translate(7.403)"/><circle class="t" cx="2.41" cy="2.41" r="2.41" transform="translate(14.807)"/></g><g transform="translate(1087.675 316.816)"><circle class="u" cx="56.485" cy="56.485" r="56.485" transform="rotate(-45 96.426 39.941)"/><path class="u" d="M124.673 139.799l-6.256-25.374-25.374 6.255z"/><g transform="translate(50.575 71.932)"><circle class="g" cx="6.706" cy="6.706" r="6.706" transform="rotate(-80.783 8 6.806)"/><circle class="g" cx="6.706" cy="6.706" r="6.706" transform="rotate(-76.717 18.92 -6.959)"/><circle class="g" cx="6.706" cy="6.706" r="6.706" transform="rotate(-80.783 29.72 -18.721)"/></g></g><g transform="translate(21.837 21.837)"><rect class="v" width="59" height="59" rx="20" transform="translate(930.163 357.163)"/><g transform="translate(943.147 370.147)"><path class="g" d="M33.437 16.718A16.718 16.718 0 1116.722 0a16.649 16.649 0 0116.715 16.718z"/><circle class="v" cx="6.085" cy="6.085" r="6.085" transform="translate(10.634 7.13)"/><path class="v" d="M26.877 29.985a16.675 16.675 0 01-20.318 0 10.267 10.267 0 0120.318 0z"/></g></g><path class="a" d="M1050.769 493.488h29.023v22.007h-29.023zm22.678 202.436h-9.034v-7.343h7.01z"/><path class="a" d="M1070.139 689.084a5.767 5.767 0 015.767 5.767v1.072h-11.535v-1.072a5.768 5.768 0 015.768-5.767zm-22.994 6.84h-7.606l1.885-7.343h7.01z"/><path class="a" d="M1040.526 689.084a5.768 5.768 0 015.768 5.767v1.072h-11.535v-1.072a5.767 5.767 0 015.767-5.767z"/><path class="b" d="M1064.417 679.059v9.521h7.01l2.223-9.521zm-22.993 0v9.521h7.01l2.223-9.521z"/><path class="w" d="M1064.371 685.363l.519-91.294h21.732a115.906 115.906 0 01-.574 19.5l-10.717 71.792z"/><path class="w" d="M1044.072 594.069h24.008l-15.72 91.294h-10.935v-66.16a157.63 157.63 0 012.647-25.134z"/><path class="w" d="M1052.911 593.977h26.439v17.816h-26.439z"/><path class="a" d="M1060.014 611.608h10.037l-5.2 3.4z"/><path class="a" d="M1062.324 594.069h.864v17.816h-.864zm23.648 7.178v-.864a8.384 8.384 0 01-7.813-5.277l-.8.322a9.242 9.242 0 008.613 5.819zm-41.538 0a9.244 9.244 0 008.614-5.819l-.8-.322a8.383 8.383 0 01-7.812 5.277z"/><path class="a" d="M1060.279 604.872h9.568v.864h-9.568zm-.043-3.262l.085-.86 9.568.952-.085.86z"/><path class="h" d="M1039.483 568.251a5.657 5.657 0 01-3.778-7.052l10.33-33.439a5.657 5.657 0 017.052-3.778 5.657 5.657 0 013.778 7.052l-10.33 33.439a5.657 5.657 0 01-7.052 3.778zm56.476-.609a5.083 5.083 0 002.857-7.11l-13.9-31.927a6.383 6.383 0 00-7.637-3.546 5.083 5.083 0 00-2.857 7.11l13.9 31.927a6.383 6.383 0 007.637 3.546z"/><path d="M1047.519 580.637c6.842-20.713.3-24.65-2.679-36.84l.871-12.777a8.539 8.539 0 015.134-7.832l2.915-1.642 1.58-.89 9.966-5.617 10.439 5.868 1.164.653 2.9 1.632a8.538 8.538 0 015.144 7.832l.918 13.539c-3.128 8.272-6.653 14.94-1.6 34.167a79.077 79.077 0 012.347 15.342h-42.546a107.7 107.7 0 013.447-13.435z" fill="#ebd6e3"/><path class="b" d="M1076.944 522.176c0 4.643-5.2 8.409-11.612 8.409s-11.609-3.767-11.609-8.409a4.67 4.67 0 01.038-.63l1.58-.89 9.966-5.617 10.439 5.868 1.164.653a5.291 5.291 0 01.034.616z"/><path class="a" d="M1044.069 594.069c.373-1.931.8-3.885 1.277-5.842h40.734c.247 1.963.422 3.916.538 5.842z"/><path class="h" d="M1087.504 618.746h-13.136v-98.614l1.377.774 4.065 2.286a8.531 8.531 0 015.145 7.832l.791 11.646h.126zm-31.292-98.58v98.581h-15.456l4.082-76.076h.079l.791-11.65a8.538 8.538 0 015.136-7.832l4.5-2.533z"/><path class="a" d="M1051.917 562.806l-8.641 9.02.217-4.046z"/><path class="b" d="M1059.953 520.109l5.241 3.71 5.277-3.71a2.693 2.693 0 00.743-1.91v-12.725h-12v12.727a2.692 2.692 0 00.739 1.908zm-36.125 45.744l.289-6.5 15.755-4.216a5.821 5.821 0 016.409 5.571 5.82 5.82 0 01-5.6 6.035z"/><path class="a" d="M1059.212 511.029s4.273 6.448 6.02 6.448 5.984-6.52 5.984-6.52zm-8.445-17.541a14.512 14.512 0 0029.023 0 14.354 14.354 0 00-.1-1.7 12.988 12.988 0 00-.128-.866 14.153 14.153 0 00-.8-2.792 9.967 9.967 0 00-.376-.862 14.519 14.519 0 00-16.872-7.793c-.281.072-.557.157-.828.252a13.33 13.33 0 00-1.9.79c-.29.138-.571.295-.847.457a14.5 14.5 0 00-7.172 12.514z"/><path class="b" d="M1062.397 513.12a4.721 4.721 0 005.523 0s7.048-3.215 7.048-8.148v-14.108a9.583 9.583 0 00-9.809-9.993 9.584 9.584 0 00-9.81 9.993v14.584c0 4.111 7.048 7.672 7.048 7.672z"/><path class="g" d="M1069.317 505.439a3.834 3.834 0 01-7.668 0z"/><path class="a" d="M1054.211 494.356a4.361 4.361 0 004.362-4.361v-5.749a4.362 4.362 0 00-4.362 4.362zm22.5.378a4.361 4.361 0 01-4.361-4.362v-5.745a4.361 4.361 0 014.361 4.361z"/><path class="b" d="M1075.835 496.963a1.779 1.779 0 011.779 1.779v3.45a1.779 1.779 0 01-1.779 1.78h-.867v-6.783a1.767 1.767 0 01.867-.226zm-21.353 0a1.779 1.779 0 00-1.779 1.779v3.45a1.779 1.779 0 001.779 1.78h.867v-6.783a1.765 1.765 0 00-.867-.226z"/><path class="a" d="M1064.641 503.598h.737a.967.967 0 00.967-.967v-1.706h-.864v1.338a.471.471 0 01-.471.471h-.369z"/><circle class="a" cx="1.152" cy="1.152" r="1.152" transform="translate(1068.57 497.645)"/><circle class="a" cx="1.152" cy="1.152" r="1.152" transform="translate(1059.635 497.645)"/><path class="a" d="M1071.845 498.797a1.636 1.636 0 10-3.271 0zm-13.272 0a1.635 1.635 0 113.271 0zm-1.821-14.168l19.539 8.469c0-6.753-4.911-12.227-10.969-12.227h-5.2a3.58 3.58 0 00-3.372 3.758zm.716 10.342l5.486.942a1.672 1.672 0 00-1.59-1.745l-2.288-.016a2.476 2.476 0 00-1.608.819zm15.97 0l-5.486.942a1.672 1.672 0 011.59-1.745l2.288-.016a2.476 2.476 0 011.608.819z"/><path class="b" d="M1013.964 561.256l-.022-2.865 9.548-.185a2.748 2.748 0 012.8 2.726l.023 2.989a2.153 2.153 0 01-2.111 2.169l-5.169.1a4.973 4.973 0 01-5.069-4.934z"/><circle cx="28.925" cy="28.925" r="28.925" fill="#af6be9" transform="translate(1017.36 517.191)"/><path class="b" d="M1067.501 545.45l.359-2.924 9.52 1.216a2.748 2.748 0 012.379 3.061l-.629 5.123-7.322-.936a4.973 4.973 0 01-4.307-5.54z"/><path class="b" d="M1076.529 546.307l-3.514 3.687 16.694 16.71a5.167 5.167 0 007.8-1.31 5.141 5.141 0 00-1.531-7.493z"/><path class="g" d="M1064.032 551.475l-5.451 5.451a1.3 1.3 0 01-1.838 0l-5.455-5.451a1.3 1.3 0 010-1.838l.586-.586a1.3 1.3 0 011.864.027l2.192 2.313v-9.856h-10.155a1.3 1.3 0 01-.919-.381l-.868-.863a1.3 1.3 0 01.919-2.218h13.188a1.3 1.3 0 011.3 1.3v12.018l2.188-2.317a1.3 1.3 0 011.864-.027l.586.586a1.3 1.3 0 010 1.838zm-14.355.835a1.3 1.3 0 00-.919-.381h-10.154v-9.86l2.184 2.322a1.3 1.3 0 001.864.027l.586-.586a1.3 1.3 0 000-1.838l-5.45-5.455a1.3 1.3 0 00-1.838 0l-5.448 5.452a1.3 1.3 0 000 1.838l.586.586a1.3 1.3 0 001.863-.024l2.188-2.317v12.017a1.3 1.3 0 001.3 1.3h13.186a1.3 1.3 0 00.919-2.218l-.866-.866z"/><path class="h" d="M964.045 688.622h9.819l10.319-94.8h-22.2z"/><path class="h" d="M951.169 593.819h23.781v13.836h-23.781z"/><path class="h" d="M937.254 688.622h9.836l18.06-94.8h-23.919z"/><path class="a" d="M982.101 601.596a8.364 8.364 0 01-7.748-5.786l.721-.321a7.586 7.586 0 007.027 5.247zm-38.702-.505v-.859c2.17 0 4.106-2.043 4.933-5.206l.746.238c-.925 3.535-3.154 5.827-5.679 5.827zm14.497 4.796h9.028l-4.617 2.854z"/><path class="a" d="M962.972 593.819h.777v13.836h-.777zm-25.29 90.711h6.93v.859h-6.93zm28.141 0h6.592v.859h-6.592z"/><path class="a" d="M939.594 685.01l9.178-75.571.772-.1-9.178 75.571zm30.765-.01l5.363-75.571.774-.082-5.363 75.571zm-25.042 10.924h-8.048l-.018-7.3h9.8z"/><path class="a" d="M937.732 689.118a5.188 5.188 0 015.188 5.188v1.614h-10.375v-1.614a5.188 5.188 0 015.187-5.188zm36.178 6.806h-9.839l-.018-7.3h9.8z"/><path class="a" d="M972.631 689.118a5.187 5.187 0 015.187 5.188v1.614h-10.375v-1.614a5.188 5.188 0 015.188-5.188zm-14.497-87.861h5.315v.859h-5.315zm5.254-2.301l-5.315-.947.124-.848 5.315.947z"/><path class="z" d="M993.055 569.398a6.505 6.505 0 004.414-8.072l-9.967-34.015a6.505 6.505 0 00-8.072-4.414 6.505 6.505 0 00-4.414 8.072l9.967 34.015a6.505 6.505 0 008.072 4.414zm-59.456.013a6.506 6.506 0 01-4.428-8.065l9.909-34.032a6.505 6.505 0 018.064-4.427 6.505 6.505 0 014.428 8.065l-9.909 34.032a6.505 6.505 0 01-8.064 4.427z"/><path class="z" d="M941.233 529.229v64.589h42.95v-64.585a8.767 8.767 0 00-3.32-6.991 7.364 7.364 0 00-1.3-.8l-2.227-1.067-14.645-7.033-15.049 7.238-1.792.862a7.518 7.518 0 00-1.72 1.147 8.842 8.842 0 00-2.897 6.64z"/><path class="b" d="M955.857 518.334l5.108 3.956a2.528 2.528 0 003.084 0l5.108-3.956a2.4 2.4 0 00.94-1.9v-12.655h-15.18v12.655a2.4 2.4 0 00.94 1.9z"/><path class="a" d="M954.917 505.199h15.18a9.6 9.6 0 01-9.6 9.6h-5.585zm29.266 70.248l-17.261-3.231 17.262-1.6z"/><path class="c" d="M975.032 518.743l-8.299 8.299-4.226-4.227 8.299-8.298z"/><path class="c" d="M954.209 514.516l8.299 8.299-4.227 4.226-8.298-8.299z"/><path class="b" d="M954.787 508.031l4.775 3.19a5.079 5.079 0 005.684 0l4.775-3.19a5.707 5.707 0 002.478-4.754v-14.219c0-5.894-4.52-10.671-10.095-10.671-5.575 0-10.094 4.778-10.094 10.671v14.218a5.707 5.707 0 002.477 4.755z"/><path class="a" d="M967.111 493.495a4.044 4.044 0 00-1.5.058c-.286.08-.656-.23-.732-.527a.812.812 0 01.441-.857 5.049 5.049 0 011.94-.083 5.656 5.656 0 011.878.667c.253.157-1.205.87-2.027.742zm-9.712 0a4.046 4.046 0 011.5.058c.286.08.656-.23.732-.527a.812.812 0 00-.441-.857 5.048 5.048 0 00-1.94-.083 5.66 5.66 0 00-1.878.667c-.253.157 1.205.87 2.027.742z"/><path class="aa" d="M954.04 495.649l-.006 3.152a7.777 7.777 0 007.728 8.037h.966a8.037 8.037 0 008.038-8.038v-3.152h1.73v7.628a5.708 5.708 0 01-2.476 4.755l-4.775 3.188a5.077 5.077 0 01-5.685 0l-4.775-3.188a5.707 5.707 0 01-2.476-4.755l.006-7.628z"/><path class="b" d="M962.403 509.095a5.195 5.195 0 01-5.195-5.195v-.718h10.39v.718a5.195 5.195 0 01-5.195 5.195zm10.94-15.449a1.735 1.735 0 011.735 1.735v3.364a1.735 1.735 0 01-1.735 1.735h-.845v-6.613a1.723 1.723 0 01.845-.221zm-21.878 0a1.735 1.735 0 00-1.735 1.735v3.364a1.735 1.735 0 001.735 1.735h.846v-6.613a1.725 1.725 0 00-.846-.221z"/><path class="i" d="M961.695 501.044h.674a.988.988 0 00.988-.988v-2.205h-.842v1.878a.473.473 0 01-.473.473h-.346z"/><ellipse class="a" cx="1.123" cy="1.485" rx="1.123" ry="1.485" transform="translate(965.636 495.239)"/><path class="a" d="M956.925 496.724a1.167 1.167 0 101.124-1.485 1.343 1.343 0 00-1.124 1.485z"/><path class="aa" d="M965.067 505.586a10.97 10.97 0 01-2.67.406 6.841 6.841 0 01-2.3-.406 2.661 2.661 0 002.332 1.732 3.371 3.371 0 002.638-1.732z"/><path class="g" d="M959.002 503.183a4.457 4.457 0 006.793 0z"/><path class="aa" d="M962.765 501.341h2.992a1.842 1.842 0 011.842 1.842h-4.834zm-.722 0h-2.992a1.842 1.842 0 00-1.842 1.842h4.834z"/><path class="a" d="M972.497 495.649h-1.724v-5.701h1.724zm-18.463 0h-1.724v-5.701h1.724z"/><path class="d" d="M965.832 484.626a6.661 6.661 0 00-12.214-5.321z"/><path class="d" d="M964.677 485.457c-.142-3.676-3.648-6.526-7.831-6.364s-7.458 3.273-7.316 6.949z"/><path class="d" d="M963.531 482.727c-2.45-2.745-7.06-2.627-10.3.262s-3.875 7.456-1.425 10.2z"/><path class="d" d="M970.773 489.948a7.163 7.163 0 00-7.163-7.163h-1.567v-5.3h.967a9.489 9.489 0 019.489 9.489v2.973z"/><path class="d" d="M957.883 490.516c-1.448-2.745 0-6.355 3.239-8.062s7.035-.868 8.484 1.877z"/><path class="a" d="M960.245 568.153a1.079 1.079 0 101.08-1.079 1.08 1.08 0 00-1.08 1.079z"/><path class="z" d="M997.698 563.05a6.1 6.1 0 00-6.71-5.428l-25.179 5.66.968 9.169 25.493-2.692a6.1 6.1 0 005.428-6.709z"/><path class="b" d="M933.221 539.617l-2.92-.146a9.322 9.322 0 01-8.844-9.776l2.919.146a9.322 9.322 0 018.845 9.776z"/><path class="z" d="M935.992 569.866a6.1 6.1 0 005.177-6.905l-6.585-24.954-9.128 1.306 3.63 25.376a6.1 6.1 0 006.906 5.177z"/><circle cx="28.925" cy="28.925" r="28.925" transform="translate(908.757 520.744)" fill="#d94c95"/><path class="b" d="M966.777 572.452l-2.907.307a9.322 9.322 0 01-10.25-8.292l2.908-.307a9.322 9.322 0 0110.249 8.292z"/><path class="a" d="M966.561 499.785a3.06 3.06 0 10-3.061-3.061 3.064 3.064 0 003.061 3.061zm0-5.673a2.612 2.612 0 11-2.612 2.612 2.615 2.615 0 012.612-2.612zm-8.515 5.673a3.06 3.06 0 10-3.06-3.061 3.064 3.064 0 003.06 3.061zm0-5.673a2.612 2.612 0 11-2.612 2.612 2.615 2.615 0 012.612-2.612z"/><path class="a" d="M960.852 496.099h2.908v.448h-2.908zm-8.133-1.8l.245-.375 2.428 1.587-.245.375zm16.243 1.154l2.784-1.537.217.392-2.785 1.537z"/><path class="c" d="M962.972 593.819l21.212 9.7v-9.7zm-.529 0l-21.63 9.963.419-9.963z"/><path class="g" d="M946.716 539.74h-18.9a2.359 2.359 0 00-2.35 2.362l-.012 21.262 4.725-4.724h16.537a2.369 2.369 0 002.362-2.362v-14.176a2.369 2.369 0 00-2.362-2.362zm-2.362 14.175h-14.175v-2.363h14.175zm0-3.544h-14.175v-2.363h14.175zm0-3.544h-14.175v-2.362h14.175z"/><path class="ac" d="M1081.985 414.085a34 34 0 110 48.084 34 34 0 010-48.084z"/><path class="ac" d="M1077.426 472.482l13.927-7.313-7.313-13.927z"/><path class="g" d="M1121.438 435.105l-10.173-8.785a1.388 1.388 0 00-2.294 1.05v4.627c-9.285.107-16.647 1.967-16.647 10.766a11.816 11.816 0 004.817 8.909 1.03 1.03 0 001.623-1.077c-2.621-8.382 1.243-10.607 10.207-10.736v5.082a1.388 1.388 0 002.294 1.05l10.173-8.786a1.388 1.388 0 000-2.1z"/></g></svg>