<svg xmlns="http://www.w3.org/2000/svg" width="670.5" height="523" viewBox="0 0 670.5 523"><defs><filter id="a" x="85.5" y="104" width="552" height="339" filterUnits="userSpaceOnUse"><feOffset dy="3"/><feGaussianBlur stdDeviation="3" result="blur"/><feFlood flood-opacity=".161"/><feComposite operator="in" in2="blur"/><feComposite in="SourceGraphic"/></filter><filter id="b" x="0" y="218.5" width="209" height="266" filterUnits="userSpaceOnUse"><feOffset dx="4" dy="6"/><feGaussianBlur stdDeviation="9.5" result="blur-2"/><feFlood flood-opacity=".161"/><feComposite operator="in" in2="blur-2"/><feComposite in="SourceGraphic"/></filter><filter id="c" x="391.5" y="0" width="212" height="269" filterUnits="userSpaceOnUse"><feOffset dx="-7" dy="10"/><feGaussianBlur stdDeviation="10" result="blur-3"/><feFlood flood-opacity=".161"/><feComposite operator="in" in2="blur-3"/><feComposite in="SourceGraphic"/></filter></defs><g data-name="Group 444" transform="translate(-73.5 -1409)"><rect data-name="Rectangle 159" width="66" height="66" rx="16" transform="translate(345 1423)" fill="#fff"/><g data-name="Group 440" transform="translate(10023.406 -1806.253)"><g transform="translate(-9949.91 3215.25)" filter="url(#a)"><rect data-name="Rectangle 114" width="534" height="321" rx="6" transform="translate(94.5 110)" fill="#fff"/></g><rect data-name="Rectangle 115" width="485" height="64" rx="4" transform="translate(-9826.406 3345.253)" fill="#c5e0f1"/><g data-name="Rectangle 116" transform="translate(-9826.406 3431.253)" fill="#fff" stroke="#f0f2f3"><rect width="123" height="190" rx="6" stroke="none"/><rect x=".5" y=".5" width="122" height="189" rx="5.5" fill="none"/></g><g data-name="Rectangle 128" transform="translate(-9662.406 3431.253)" fill="#fff" stroke="#f0f2f3"><rect width="321" height="190" rx="6" stroke="none"/><rect x=".5" y=".5" width="320" height="189" rx="5.5" fill="none"/></g><rect data-name="Rectangle 125" width="85" height="10" rx="5" transform="translate(-9808.406 3468.253)" fill="#d9dde1"/><rect data-name="Rectangle 141" width="85" height="10" rx="5" transform="translate(-9808.406 3443.253)" fill="#d9dde1"/><rect data-name="Rectangle 133" width="62" height="10" rx="5" transform="translate(-9645.406 3468.253)" fill="#d9dde1"/><rect data-name="Rectangle 153" width="62" height="10" rx="5" transform="translate(-9645.406 3443.253)" fill="#d9dde1"/><rect data-name="Rectangle 146" width="62" height="10" rx="5" transform="translate(-9476.406 3443.253)" fill="#d9dde1"/><rect data-name="Rectangle 151" width="19" height="10" rx="5" transform="translate(-9405.406 3443.253)" fill="#d9dde1"/><rect data-name="Rectangle 121" width="85" height="10" rx="5" transform="translate(-9808.406 3518.253)" fill="#d9dde1"/><rect data-name="Rectangle 129" width="62" height="10" rx="5" transform="translate(-9645.406 3518.253)" fill="#d9dde1"/><rect data-name="Rectangle 144" width="62" height="10" rx="5" transform="translate(-9476.406 3493.253)" fill="#d9dde1"/><rect data-name="Rectangle 149" width="19" height="10" rx="5" transform="translate(-9405.406 3493.253)" fill="#d9dde1"/><rect data-name="Rectangle 119" width="73" height="11" rx="5.5" transform="translate(-9808.406 3543.253)" fill="#d9dde1"/><rect data-name="Rectangle 130" width="62" height="11" rx="5.5" transform="translate(-9645.406 3543.253)" fill="#d9dde1"/><rect data-name="Rectangle 143" width="62" height="10" rx="5" transform="translate(-9476.406 3518.253)" fill="#d9dde1"/><rect data-name="Rectangle 156" width="62" height="11" rx="5.5" transform="translate(-9476.406 3568.253)" fill="#d9dde1"/><rect data-name="Rectangle 148" width="19" height="10" rx="5" transform="translate(-9405.406 3518.253)" fill="#d9dde1"/><rect data-name="Rectangle 157" width="19" height="11" rx="5.5" transform="translate(-9405.406 3568.253)" fill="#d9dde1"/><rect data-name="Rectangle 127" width="73" height="11" rx="5.5" transform="translate(-9808.406 3568.253)" fill="#d9dde1"/><rect data-name="Rectangle 131" width="62" height="11" rx="5.5" transform="translate(-9645.406 3568.253)" fill="#d9dde1"/><rect data-name="Rectangle 142" width="62" height="11" rx="5.5" transform="translate(-9476.406 3543.253)" fill="#d9dde1"/><rect data-name="Rectangle 154" width="62" height="9" rx="4.5" transform="translate(-9476.406 3593.253)" fill="#d9dde1"/><rect data-name="Rectangle 147" width="19" height="11" rx="5.5" transform="translate(-9405.406 3543.253)" fill="#d9dde1"/><rect data-name="Rectangle 155" width="19" height="9" rx="4.5" transform="translate(-9405.406 3593.253)" fill="#d9dde1"/><rect data-name="Rectangle 136" width="19" height="11" rx="5.5" transform="translate(-9574.406 3568.253)" fill="#5fb1e1"/><rect data-name="Rectangle 137" width="43" height="11" rx="5.5" transform="translate(-9574.406 3543.253)" fill="#7689bd"/><rect data-name="Rectangle 138" width="27" height="10" rx="5" transform="translate(-9574.406 3518.253)" fill="#62be8d"/><rect data-name="Rectangle 139" width="19" height="10" rx="5" transform="translate(-9574.406 3493.253)" fill="#5db1e0"/><rect data-name="Rectangle 140" width="27" height="10" rx="5" transform="translate(-9574.406 3468.253)" fill="#61bd8c"/><rect data-name="Rectangle 152" width="27" height="10" rx="5" transform="translate(-9574.406 3443.253)" fill="#61bd8c"/><rect data-name="Rectangle 123" width="85" height="10" rx="5" transform="translate(-9808.406 3493.253)" fill="#d9dde1"/><rect data-name="Rectangle 132" width="62" height="10" rx="5" transform="translate(-9645.406 3493.253)" fill="#d9dde1"/><rect data-name="Rectangle 145" width="62" height="10" rx="5" transform="translate(-9476.406 3468.253)" fill="#d9dde1"/><rect data-name="Rectangle 150" width="19" height="10" rx="5" transform="translate(-9405.406 3468.253)" fill="#d9dde1"/><rect data-name="Rectangle 117" width="35" height="12" rx="4" transform="translate(-9808.406 3593.253)" fill="#008ee5"/><rect data-name="Rectangle 134" width="36" height="12" rx="4" transform="translate(-9645.406 3593.253)" fill="#008ee5"/><path data-name="Path 3609" d="M-9703.603 3356.93a6.087 6.087 0 00-9.819-.012l-14.024 21.229-3.143-4.332c-2.185-3.22-7.322-3.067-9.526 0l-12.366 17.089a5.9 5.9 0 00-.488 6.133 5.837 5.837 0 005.255 3.247h61.811a5.92 5.92 0 004.912-9.189zm-43.91 37.221l11.957-16.748 5.733 7.923a2.911 2.911 0 002.55 1.269 3.069 3.069 0 002.5-1.378l16.062-24.892 22.377 33.826h-61.179z" fill="#a0cfeb"/><path data-name="Path 3610" d="M-9563.139 3356.93a6.087 6.087 0 00-9.819-.012l-14.024 21.229-3.143-4.332c-2.185-3.22-7.322-3.067-9.526 0l-12.366 17.089a5.9 5.9 0 00-.488 6.133 5.837 5.837 0 005.255 3.247h61.811a5.92 5.92 0 004.912-9.189zm-43.91 37.221l11.957-16.748 5.733 7.923a2.911 2.911 0 002.55 1.269 3.069 3.069 0 002.5-1.378l16.062-24.892 22.377 33.826h-61.179z" fill="#a0cfeb"/><path data-name="Path 3611" d="M-9422.675 3356.93a6.087 6.087 0 00-9.819-.012l-14.024 21.229-3.143-4.332c-2.185-3.22-7.322-3.067-9.526 0l-12.366 17.089a5.9 5.9 0 00-.488 6.133 5.837 5.837 0 005.255 3.247h61.811a5.92 5.92 0 004.912-9.189zm-43.91 37.221l11.957-16.748 5.733 7.923a2.911 2.911 0 002.55 1.269 3.069 3.069 0 002.5-1.378l16.062-24.892 22.377 33.826h-61.179z" fill="#a0cfeb"/><ellipse data-name="Ellipse 101" cx="10" cy="9.5" rx="10" ry="9.5" transform="translate(-9773.406 3361.253)" fill="#a0cfeb"/><ellipse data-name="Ellipse 102" cx="10" cy="9.5" rx="10" ry="9.5" transform="translate(-9633.406 3361.253)" fill="#a0cfeb"/><circle data-name="Ellipse 103" cx="9.5" cy="9.5" r="9.5" transform="translate(-9492.406 3361.253)" fill="#a0cfeb"/></g><g data-name="Group 441" transform="translate(98 1650.098)"><g transform="translate(-24.5 -241.1)" filter="url(#b)"><rect data-name="Rectangle 101" width="152" height="209" rx="6" transform="translate(24.5 241)" fill="#fff"/></g><rect data-name="Rectangle 108" width="40" height="15" rx="7.5" transform="translate(56 15.902)" fill="#d9dde1"/><rect data-name="Rectangle 106" width="103" height="10" rx="5" transform="translate(26 50.902)" fill="#d9dde1"/><rect data-name="Rectangle 107" width="103" height="10" rx="5" transform="translate(26 89.902)" fill="#d9dde1"/><rect data-name="Rectangle 113" width="103" height="10" rx="5" transform="translate(26 128.902)" fill="#d9dde1"/><rect data-name="Rectangle 109" width="103" height="9" rx="4.5" transform="translate(26 109.902)" fill="#d9dde1"/><rect data-name="Rectangle 112" width="103" height="10" rx="5" transform="translate(26 148.902)" fill="#d9dde1"/><rect data-name="Rectangle 110" width="101" height="10" rx="5" transform="translate(28 69.902)" fill="#d9dde1"/><rect data-name="Rectangle 111" width="103" height="19" rx="9.5" transform="translate(26 171.902)" fill="#008ee5"/></g><g data-name="Group 442" transform="translate(502.036 1428.748)"><g transform="translate(-428.54 -19.75)" filter="url(#c)"><rect data-name="Rectangle 90" width="152" height="209" rx="6" transform="translate(428.5 20)" fill="#fff"/></g><rect data-name="Rectangle 91" width="41" height="14" rx="7" transform="translate(56.964 23.253)" fill="#d9dde1"/><g data-name="Rectangle 96" transform="translate(22.964 52.253)" fill="#fff" stroke="#f0f2f3"><rect width="108" height="20" rx="2" stroke="none"/><rect x=".5" y=".5" width="107" height="19" rx="1.5" fill="none"/></g><g data-name="Rectangle 97" transform="translate(22.964 80.253)" fill="#fff" stroke="#f0f2f3"><rect width="108" height="19" rx="2" stroke="none"/><rect x=".5" y=".5" width="107" height="18" rx="1.5" fill="none"/></g><g data-name="Rectangle 98" transform="translate(22.964 109.253)" fill="#fff" stroke="#f0f2f3"><rect width="108" height="20" rx="2" stroke="none"/><rect x=".5" y=".5" width="107" height="19" rx="1.5" fill="none"/></g><g data-name="Rectangle 99" transform="translate(22.964 139.253)" fill="#fff" stroke="#f0f2f3"><rect width="108" height="19" rx="2" stroke="none"/><rect x=".5" y=".5" width="107" height="18" rx="1.5" fill="none"/></g><rect data-name="Rectangle 92" width="83" height="10" rx="5" transform="translate(27.964 57.253)" fill="#d9dde1"/><rect data-name="Rectangle 93" width="83" height="10" rx="5" transform="translate(27.964 114.253)" fill="#d9dde1"/><rect data-name="Rectangle 94" width="72" height="9" rx="4.5" transform="translate(27.964 144.253)" fill="#d9dde1"/><rect data-name="Rectangle 95" width="49" height="10" rx="5" transform="translate(28.964 85.253)" fill="#d9dde1"/><rect data-name="Rectangle 100" width="108" height="20" rx="10" transform="translate(22.964 166.253)" fill="#008ee5"/></g><text data-name="" transform="translate(358 1472)" fill="#a0cfeb" font-size="41" font-family="FontAwesome5Pro-Light, 'Font Awesome \35 Pro'" font-weight="300"><tspan x="0" y="0"></tspan></text></g><g data-name="Group 445" transform="translate(-2819.5 -890)"><circle data-name="Ellipse 104" cx="68" cy="68" r="68" transform="translate(3327 1250)" fill="#fff"/><text data-name="" transform="translate(3301 1389)" fill="#a7b1bb" font-size="189" font-family="FontAwesome5Pro-Solid, 'Font Awesome \35 Pro'"><tspan x="0" y="0"></tspan></text></g></svg>