<svg xmlns="http://www.w3.org/2000/svg" width="22.415" height="22.416" viewBox="0 0 22.415 22.416"><g fill="none" stroke="#fff" stroke-linecap="round" stroke-linejoin="round" stroke-width="2"><path data-name="Path 5419" d="M14.001 2.414v6h6"/><path data-name="Line 783" d="M21.001 1.414l-7 7"/><path data-name="Path 5420" d="M20.001 16.639v2.86a1.909 1.909 0 01-2.083 1.907 18.931 18.931 0 01-8.245-2.927 18.611 18.611 0 01-5.732-5.721 18.844 18.844 0 01-2.932-8.266A1.908 1.908 0 012.91 2.414h2.866a1.909 1.909 0 011.913 1.64 12.222 12.222 0 00.669 2.679 1.9 1.9 0 01-.43 2.012L6.712 9.956a15.27 15.27 0 005.732 5.721l1.213-1.211a1.913 1.913 0 012.016-.429 12.287 12.287 0 002.685.667 1.908 1.908 0 011.643 1.935z"/></g></svg>