<svg xmlns="http://www.w3.org/2000/svg" width="16.75" height="16.75" viewBox="0 0 16.75 16.75"><g data-name="Group 406"><g data-name="Group 405" fill="#f8cf61" stroke="#f8cf61" stroke-width=".75"><path data-name="Path 422" d="M8.375.375a8 8 0 108 8 8.009 8.009 0 00-8-8zm0 15.3a7.3 7.3 0 117.3-7.3 7.312 7.312 0 01-7.3 7.3z"/><path data-name="Path 423" d="M6.665 6.987a1.064 1.064 0 10-1.064 1.064 1.066 1.066 0 001.064-1.064zm-1.419 0a.355.355 0 11.355.355.355.355 0 01-.355-.355z"/><path data-name="Path 424" d="M11.149 5.923a1.064 1.064 0 101.065 1.064 1.066 1.066 0 00-1.065-1.064zm0 1.419a.355.355 0 11.355-.355.355.355 0 01-.355.355z"/><path data-name="Path 425" d="M8.375 10.085a4.642 4.642 0 00-3.458 1.537.355.355 0 10.529.473 3.948 3.948 0 015.858 0 .355.355 0 10.529-.473 4.643 4.643 0 00-3.458-1.537z"/></g></g></svg>