<svg width="255" height="27" viewBox="0 0 255 27" fill="none" xmlns="http://www.w3.org/2000/svg"><path d="M18.88 18.51H4.897a5.103 5.103 0 005.435 3.966 11.38 11.38 0 006.014-1.88l1.914 3.384a14.1 14.1 0 01-8.135 2.557C3.155 26.543.009 21.788.009 16.798a9.375 9.375 0 019.708-9.783 8.836 8.836 0 019.328 9.375c-.002.71-.057 1.418-.165 2.12zM4.897 14.92h9.47a4.507 4.507 0 00-4.65-3.896 4.773 4.773 0 00-4.82 3.896zm51.147 10.212a10.326 10.326 0 01-5.504 1.539c-4.273 0-6.496-2.53-6.496-7.35v-7.69H41V7.597h3.08V1h4.787v6.597h6.153v4.034h-6.156v7.387c0 2.154.82 3.282 2.63 3.282a6.295 6.295 0 003.11-.958l1.44 3.79zm20.837-7.528H62.898a5.103 5.103 0 005.435 3.966c2.143-.048 4.228-.7 6.017-1.881l1.914 3.385a14.1 14.1 0 01-8.136 2.557c-6.974 0-10.12-4.752-10.12-9.745a9.375 9.375 0 019.71-9.778 8.836 8.836 0 019.333 9.367 13.989 13.989 0 01-.169 2.131l-.001-.003zm-13.983-3.59h9.47a4.507 4.507 0 00-4.65-3.897 4.773 4.773 0 00-4.82 3.897zm45.822 1.88a9.504 9.504 0 0110.016-9.778 9.294 9.294 0 018.69 5.197l-3.863 2.12a5.547 5.547 0 00-4.752-2.841 5.314 5.314 0 00-5.368 5.264 5.316 5.316 0 005.265 5.368 5.505 5.505 0 004.74-2.8l3.897 2.29a9.735 9.735 0 01-8.752 4.923 9.425 9.425 0 01-9.872-9.742h-.001zm33.741 8.24a10.328 10.328 0 01-5.503 1.538c-4.273 0-6.497-2.53-6.497-7.35v-7.69h-3.035V6.596h3.077V0h4.785v6.597h6.154v4.034h-6.152v7.387c0 2.154.82 3.282 2.632 3.282a6.292 6.292 0 003.111-.958l1.428 3.792zM89.845 6.724c0 1.404-.019 2.707.01 4.008.01.435-.284.483-.556.614a8.39 8.39 0 00-4.936 5.86 11.84 11.84 0 00-.237 2.364c-.034 1.872-.012 3.746-.012 5.658H79c-.012-.2-.034-.391-.035-.583 0-1.613.065-3.232-.021-4.841a8.749 8.749 0 01.959-4.337 15.74 15.74 0 019.026-8.47c.267-.096.544-.164.913-.274h.003zm-10.805 6.88c0-2.877-.038-4.608-.038-7.558h5.039a1.74 1.74 0 01-.569 1.847 12.29 12.29 0 00-4.082 5.092c-.087.215-.178.427-.266.64l-.084-.02zm27.89-.862a6.608 6.608 0 00-4.195-6.436 14.52 14.52 0 00-10.433.057c-.133.045-.32.214-.322.33-.023 1.29-.014 2.583-.014 3.934.456-.165.82-.317 1.199-.426a9.802 9.802 0 016.688.168 3.216 3.216 0 012.092 3.9c-.927-.181-1.846-.434-2.787-.524a15.863 15.863 0 00-2.91-.011c-3.072.284-5.825 1.746-5.94 5.6a5.438 5.438 0 002.796 5.51 7.84 7.84 0 008.184-.837c.19-.169.392-.324.71-.585v1.823h4.905c.024-.077.042-.155.051-.235 0-4.09.091-8.185-.024-12.273v.005zm-7.49 9.116c-3.195.733-5.08-.051-5.028-2.357.051-2.305 2.2-2.983 4.296-2.775 1.002.085 1.997.227 2.983.426 0 0 .943 3.977-2.252 4.713l.002-.007zM26.718 7.519H22v18.63h4.82v-9.982a4.293 4.293 0 014.273-4.717c2.324 0 3.93 1.606 3.93 4.615v10.086h4.822V14.767c0-5.265-3.521-7.76-7.282-7.76a6.523 6.523 0 00-5.845 3.11V7.52zm122.234 16.256a2.889 2.889 0 10-.128-5.776 2.889 2.889 0 00.128 5.776zm19.714-15.222v3.167c-1.383-2.213-3.689-3.566-6.487-3.566-4.705 0-8.179 3.659-8.179 8.547 0 4.89 3.474 8.702 8.179 8.702 2.798 0 5.104-1.353 6.487-3.598v3.198h1.784V8.553h-1.784zm-6.395 15.159c-3.843 0-6.426-3.106-6.426-6.949s2.583-6.918 6.426-6.918c3.874 0 6.549 3.105 6.549 6.856 0 3.844-2.675 7.01-6.549 7.01zm20.512 1.66c3.197 0 6.118-1.63 7.441-4.181l-1.507-.923c-1.045 1.968-3.382 3.413-5.934 3.413-3.782 0-6.549-2.86-6.549-6.887 0-4.09 2.859-6.95 6.733-6.95 2.552 0 4.735 1.354 5.842 3.414l1.507-.861c-1.261-2.614-4.12-4.243-7.349-4.243-4.981 0-8.578 3.566-8.578 8.64 0 5.011 3.505 8.578 8.394 8.578zm18.286 0c3.198 0 6.119-1.63 7.441-4.181l-1.507-.923c-1.045 1.968-3.382 3.413-5.934 3.413-3.782 0-6.549-2.86-6.549-6.887 0-4.09 2.859-6.95 6.733-6.95 2.552 0 4.735 1.354 5.842 3.414l1.507-.861c-1.261-2.614-4.12-4.243-7.349-4.243-4.981 0-8.578 3.566-8.578 8.64 0 5.011 3.505 8.578 8.394 8.578zm25.727-9.316c0-4.981-3.352-7.902-7.656-7.902-4.981 0-8.179 3.69-8.179 8.578 0 4.274 2.491 8.64 8.548 8.64 2.89 0 5.473-1.107 6.918-2.275l-.861-1.415c-1.476 1.169-3.874 1.968-6.026 1.968-4.182 0-6.396-2.644-6.673-6.15h13.837c.03-.368.092-.768.092-1.444zm-7.656-6.211c3.321 0 5.688 2.275 5.75 5.965h-12.023c.369-3.567 2.798-5.965 6.273-5.965zm15.728 15.527c3.32 0 5.596-2.214 5.596-4.889 0-2.029-1.2-3.105-2.891-3.935-1.322-.677-2.921-1.23-4.028-1.753-1.106-.553-1.783-1.353-1.783-2.49 0-1.476 1.107-2.675 3.229-2.675 1.568 0 2.89.645 3.689 1.998l1.292-1.045C238.926 8.86 237.051 8 235.021 8c-3.167 0-5.042 1.968-5.042 4.366 0 1.599.891 2.952 2.613 3.843 1.107.585 2.798 1.138 3.936 1.722 1.168.584 2.091 1.322 2.091 2.675 0 1.63-1.445 3.106-3.751 3.106-1.753 0-3.383-.953-4.336-2.86l-1.476.923c1.23 2.521 3.536 3.597 5.812 3.597zm13.602 0c3.32 0 5.596-2.214 5.596-4.889 0-2.029-1.2-3.105-2.891-3.935-1.322-.677-2.921-1.23-4.028-1.753-1.106-.553-1.783-1.353-1.783-2.49 0-1.476 1.107-2.675 3.229-2.675 1.568 0 2.89.645 3.689 1.998l1.292-1.045C252.528 8.86 250.653 8 248.623 8c-3.167 0-5.042 1.968-5.042 4.366 0 1.599.891 2.952 2.613 3.843 1.107.585 2.798 1.138 3.936 1.722 1.168.584 2.091 1.322 2.091 2.675 0 1.63-1.445 3.106-3.751 3.106-1.753 0-3.383-.953-4.336-2.86l-1.476.923c1.23 2.521 3.536 3.597 5.812 3.597z" fill="#fff"/></svg>