<svg xmlns="http://www.w3.org/2000/svg" width="41" height="41" viewBox="0 0 41 41"><g data-name="Group 3517" transform="translate(6360 -1940)"><circle data-name="Ellipse 38737" cx="20.5" cy="20.5" r="20.5" transform="translate(-6360 1940)" fill="#fff"/><g data-name="user (1)"><g data-name="Group 3516"><g data-name="Group 3515" fill="#3d596d"><path data-name="Path 5693" d="M-6334.72 1960.598a6.634 6.634 0 01-1.013 1.029 7.265 7.265 0 013.659 6.3c0 1.456-3.189 2.6-7.261 2.6s-7.261-1.14-7.261-2.6a7.265 7.265 0 013.659-6.3 6.636 6.636 0 01-1.013-1.029 8.667 8.667 0 00-4.052 7.332c0 .934.512 2.236 2.948 3.133a17.173 17.173 0 005.718.868 17.173 17.173 0 005.718-.868c2.437-.9 2.948-2.2 2.948-3.133a8.668 8.668 0 00-4.05-7.332z"/><path data-name="Path 5694" d="M-6339.334 1961.524c2.731 0 4.834-2.64 4.834-5.762s-2.104-5.762-4.834-5.762-4.834 2.64-4.834 5.762 2.104 5.762 4.834 5.762zm0-10.118c1.891 0 3.429 1.954 3.429 4.356s-1.538 4.356-3.429 4.356-3.429-1.954-3.429-4.356 1.539-4.357 3.429-4.357z"/></g></g></g></g></svg>