<svg xmlns="http://www.w3.org/2000/svg" width="138" height="30.587" viewBox="0 0 138 30.587"><defs><linearGradient id="a" x1=".501" y1="1" x2=".501" y2=".002" gradientUnits="objectBoundingBox"><stop offset="0" stop-color="#20b038"/><stop offset="1" stop-color="#60d66a"/></linearGradient><linearGradient id="b" x1=".501" y1="1" x2=".501" y2=".002" gradientUnits="objectBoundingBox"><stop offset="0" stop-color="#f9f9f9"/><stop offset="1" stop-color="#fff"/></linearGradient></defs><g data-name="Group 4"><g data-name="Group 3" fill="#282828"><path data-name="Path 14" d="M50.864 21.224l-2.579-10.362h-.043l-2.536 10.362h-3.389L38.288 6h3.346l2.409 10.363h.042L46.728 6h3.134l2.6 10.491h.042L54.999 6h3.283l-4.093 15.224z"/><path data-name="Path 15" d="M61.99 6v5.737h.064a3.5 3.5 0 011.471-1.4 3.976 3.976 0 011.749-.437 5.161 5.161 0 011.993.33 2.961 2.961 0 011.225.916 3.56 3.56 0 01.629 1.428 8.949 8.949 0 01.181 1.867v6.78h-3.027V15a3.863 3.863 0 00-.427-2.036 1.651 1.651 0 00-1.513-.672 2.1 2.1 0 00-1.791.736 4.086 4.086 0 00-.555 2.419v5.778h-3.027V6z"/><path data-name="Path 16" d="M71.476 11.821a3.612 3.612 0 011.193-1.13 5.187 5.187 0 011.631-.607 9.186 9.186 0 011.822-.182 12.444 12.444 0 011.683.117 5.153 5.153 0 011.557.458 3.062 3.062 0 011.15.949 2.644 2.644 0 01.448 1.61v5.736a11.307 11.307 0 00.086 1.428 2.558 2.558 0 00.3 1.023h-3.07a4.338 4.338 0 01-.139-.522 4.56 4.56 0 01-.074-.544 3.949 3.949 0 01-1.706 1.046 6.874 6.874 0 01-2 .3 5.411 5.411 0 01-1.471-.192 3.354 3.354 0 01-1.193-.6 2.758 2.758 0 01-.8-1.024 3.456 3.456 0 01-.288-1.471 3.226 3.226 0 01.33-1.546 2.783 2.783 0 01.854-.971 3.855 3.855 0 011.194-.543 12.661 12.661 0 011.353-.287c.454-.07.9-.128 1.342-.172a7.783 7.783 0 001.173-.192 2.02 2.02 0 00.81-.373.821.821 0 00.277-.715 1.607 1.607 0 00-.16-.778 1.174 1.174 0 00-.426-.448 1.681 1.681 0 00-.618-.213 5.1 5.1 0 00-.756-.053 2.3 2.3 0 00-1.407.383 1.715 1.715 0 00-.6 1.28h-3.026a3.5 3.5 0 01.531-1.767zm5.979 4.275a4.933 4.933 0 01-.619.161c-.219.042-.45.078-.692.106s-.484.065-.724.107a5.5 5.5 0 00-.672.17 2.008 2.008 0 00-.575.288 1.38 1.38 0 00-.395.458 1.479 1.479 0 00-.149.7 1.426 1.426 0 00.149.682 1.15 1.15 0 00.405.437 1.706 1.706 0 00.6.223 3.752 3.752 0 00.7.065 2.662 2.662 0 001.386-.3 1.993 1.993 0 00.725-.714 2.281 2.281 0 00.287-.841 5.649 5.649 0 00.053-.684v-1.129a1.358 1.358 0 01-.48.271z"/><path data-name="Path 17" d="M88.829 10.2v2.026h-2.22v5.458a1.025 1.025 0 001.278 1.28q.256 0 .49-.022a3.828 3.828 0 00.448-.064v2.346a6.964 6.964 0 01-.853.086c-.313.013-.618.021-.917.021a8.9 8.9 0 01-1.332-.1 3.148 3.148 0 01-1.109-.373 1.983 1.983 0 01-.756-.79 2.824 2.824 0 01-.277-1.343v-6.5h-1.832v-2.026h1.832v-3.3h3.028v3.3z"/><path data-name="Path 18" d="M92.289 18.484a1.759 1.759 0 00.522.576 2.219 2.219 0 00.736.331 3.457 3.457 0 00.863.107 3.24 3.24 0 00.672-.075 2.29 2.29 0 00.64-.235 1.455 1.455 0 00.48-.427 1.116 1.116 0 00.192-.671q0-.682-.906-1.024a17.974 17.974 0 00-2.526-.682c-.44-.1-.87-.217-1.289-.353a4.39 4.39 0 01-1.12-.532 2.583 2.583 0 01-.787-.832 2.358 2.358 0 01-.3-1.226 3.317 3.317 0 01.416-1.748 3.069 3.069 0 011.1-1.076 4.822 4.822 0 011.535-.555 9.522 9.522 0 011.748-.16 8.722 8.722 0 011.736.171 4.591 4.591 0 011.5.575 3.45 3.45 0 011.1 1.076 3.619 3.619 0 01.522 1.695h-2.878a1.324 1.324 0 00-.659-1.183 3.025 3.025 0 00-1.408-.309 5.4 5.4 0 00-.554.031 1.9 1.9 0 00-.543.138 1.143 1.143 0 00-.416.31.815.815 0 00-.17.544.825.825 0 00.3.66 2.285 2.285 0 00.777.417 9.8 9.8 0 001.1.287q.618.128 1.257.278a13.174 13.174 0 011.29.362 4.276 4.276 0 011.119.565 2.744 2.744 0 01.789.875 2.564 2.564 0 01.3 1.289 3.526 3.526 0 01-.436 1.823 3.484 3.484 0 01-1.14 1.183 4.688 4.688 0 01-1.609.631 9.468 9.468 0 01-1.845.18 9.115 9.115 0 01-1.874-.192 4.961 4.961 0 01-1.632-.64 3.648 3.648 0 01-1.172-1.184 3.706 3.706 0 01-.5-1.844h2.877a1.664 1.664 0 00.193.844z"/><path data-name="Path 19" d="M108.756 15.339l-1.918-5.586h-.042l-1.982 5.586zM108.565 6l5.691 15.224h-3.476l-1.15-3.39h-5.692l-1.193 3.39h-3.368L105.131 6z"/><path data-name="Path 20" d="M121.532 18.942a2.412 2.412 0 00.811-.779 3.226 3.226 0 00.437-1.119 6.621 6.621 0 00.126-1.3 6.085 6.085 0 00-.138-1.3 3.487 3.487 0 00-.458-1.141 2.537 2.537 0 00-.821-.809 2.289 2.289 0 00-1.225-.31 2.325 2.325 0 00-1.246.31 2.464 2.464 0 00-.811.8 3.355 3.355 0 00-.438 1.131 6.735 6.735 0 00-.126 1.323 6.071 6.071 0 00.138 1.3 3.362 3.362 0 00.447 1.119 2.381 2.381 0 00.821.779 2.724 2.724 0 002.482 0zM117.6 10.2v1.408h.044a3.317 3.317 0 011.407-1.3 4.307 4.307 0 011.876-.405 4.756 4.756 0 012.237.491 4.618 4.618 0 011.557 1.3 5.532 5.532 0 01.917 1.887 8.431 8.431 0 01.3 2.25 7.623 7.623 0 01-.3 2.132 5.443 5.443 0 01-.906 1.812 4.485 4.485 0 01-1.514 1.258 4.549 4.549 0 01-2.12.47 4.286 4.286 0 01-1.886-.416 3.563 3.563 0 01-1.419-1.225h-.041v5.224h-3.029V10.2z"/><path data-name="Path 21" d="M133.598 18.942a2.422 2.422 0 00.811-.779 3.2 3.2 0 00.436-1.119 6.59 6.59 0 00.128-1.3 6.09 6.09 0 00-.138-1.3 3.446 3.446 0 00-.458-1.141 2.538 2.538 0 00-.821-.809 2.286 2.286 0 00-1.225-.31 2.327 2.327 0 00-1.247.31 2.481 2.481 0 00-.81.8 3.334 3.334 0 00-.437 1.131 6.732 6.732 0 00-.128 1.323 6.134 6.134 0 00.138 1.3 3.392 3.392 0 00.448 1.119 2.385 2.385 0 00.821.779 2.726 2.726 0 002.483 0zm-3.931-8.742v1.408h.042a3.329 3.329 0 011.407-1.3 4.309 4.309 0 011.875-.405 4.765 4.765 0 012.24.491 4.618 4.618 0 011.555 1.3 5.5 5.5 0 01.917 1.887 8.352 8.352 0 01.3 2.25 7.551 7.551 0 01-.3 2.132 5.405 5.405 0 01-.906 1.812 4.486 4.486 0 01-1.513 1.258 4.559 4.559 0 01-2.121.47 4.293 4.293 0 01-1.887-.416 3.567 3.567 0 01-1.418-1.225h-.042v5.224h-3.027V10.2z"/></g><path data-name="Path 24" d="M.2-528.147a14.6 14.6 0 001.954 7.315L.077-513.25l7.759-2.034a14.632 14.632 0 006.994 1.784h.007a14.655 14.655 0 0014.636-14.632 14.539 14.539 0 00-4.283-10.351 14.543 14.543 0 00-10.353-4.291A14.655 14.655 0 00.2-528.147" transform="translate(.451 543.308)" fill="url(#a)"/><path data-name="Path 25" d="M.2-546.671a15.129 15.129 0 002.024 7.577L.072-531.24l8.037-2.107a15.151 15.151 0 007.245 1.845h.007a15.182 15.182 0 0015.161-15.156 15.065 15.065 0 00-4.437-10.723 15.067 15.067 0 00-10.725-4.445A15.18 15.18 0 00.2-546.671zm4.786 7.182l-.3-.476a12.563 12.563 0 01-1.926-6.7 12.618 12.618 0 0112.606-12.6 12.519 12.519 0 018.909 3.694 12.52 12.52 0 013.687 8.912 12.618 12.618 0 01-12.6 12.6 12.586 12.586 0 01-6.414-1.756l-.46-.273-4.77 1.25z" transform="translate(-.072 561.827)" fill="url(#b)"/><path data-name="Path 26" d="M11.5 8.82c-.284-.631-.582-.644-.852-.655-.221-.009-.474-.009-.726-.009a1.392 1.392 0 00-1.01.474 4.247 4.247 0 00-1.326 3.159 7.369 7.369 0 001.547 3.918c.189.253 2.621 4.2 6.471 5.718 3.2 1.262 3.851 1.011 4.546.948a3.826 3.826 0 002.557-1.8 3.165 3.165 0 00.221-1.8c-.095-.158-.347-.253-.726-.442s-2.241-1.106-2.589-1.232-.6-.189-.852.19-.978 1.232-1.2 1.485-.442.285-.821.1a10.363 10.363 0 01-3.046-1.88 11.415 11.415 0 01-2.108-2.623c-.221-.379-.024-.584.166-.773.17-.17.379-.442.568-.663a2.6 2.6 0 00.378-.632.7.7 0 00-.032-.664c-.095-.189-.831-2.063-1.168-2.812" fill="#fff" fill-rule="evenodd"/></g></svg>